<svg width="22" height="28" viewBox="0 0 22 28" fill="none" xmlns="http://www.w3.org/2000/svg">
<path d="M0.571268 17.4662C0.940025 17.821 1.42686 18.0101 1.94356 17.9995C2.97026 17.9778 3.80561 17.1392 3.80565 16.1284L3.79431 11.9315L4.52212 11.2165C4.61231 11.3944 4.73223 11.5585 4.87936 11.7031C5.61679 12.4275 6.81682 12.4274 7.55434 11.7029L10.4541 8.85424C10.6618 8.65016 10.8443 8.42791 11 8.19109C11.1557 8.42787 11.3382 8.65016 11.5459 8.85424L14.4457 11.7029C15.1833 12.4274 16.3832 12.4275 17.1206 11.7031C17.2678 11.5586 17.3877 11.3944 17.4779 11.2166L18.2057 11.9315L18.1943 16.1302C18.1944 17.1392 19.0297 17.9778 20.0564 17.9996C20.5717 18.01 21.0599 17.8211 21.4287 17.4663C21.7972 17.1116 22 16.6372 22 16.1303L22 9.66086L16.2476 4.11895L16.2476 1.40445e-06L5.75244 4.86942e-07L5.75244 4.11895L7.29031e-07 9.66085L1.63456e-07 16.1303C-4.37499e-05 16.6372 0.202812 17.1116 0.571268 17.4662ZM11.6445 1.26733L14.9585 1.26733L14.9585 4.65148L20.7109 10.1933L20.7109 16.1304C20.7109 16.2936 20.6456 16.4464 20.527 16.5605C20.4081 16.6749 20.2499 16.7365 20.0842 16.7325C19.7529 16.7255 19.4834 16.4552 19.4834 16.1317L19.4962 11.4076L14.5234 6.5224L13.6122 7.41891L16.2106 9.97152C16.3236 10.0832 16.3858 10.2312 16.3858 10.3885C16.3858 10.5464 16.3232 10.6948 16.2095 10.8065C15.9744 11.0374 15.5919 11.0373 15.3569 10.8063L12.4571 7.95765C11.9332 7.44303 11.6446 6.75909 11.6445 6.03186L11.6445 1.26733ZM1.28906 10.1933L7.0415 4.65148L7.0415 1.26733L10.3555 1.26733L10.3555 6.03177C10.3554 6.75909 10.0668 7.44307 9.54297 7.95765L6.64318 10.8063C6.40802 11.0373 6.02555 11.0374 5.79047 10.8065C5.67677 10.6948 5.61417 10.5464 5.61421 10.3885C5.61421 10.2305 5.6769 10.082 5.79064 9.97025L8.3878 7.41886L7.47665 6.52235L2.50379 11.4076L2.51655 16.1299C2.51655 16.4551 2.24705 16.7254 1.91576 16.7324C1.74999 16.7365 1.59182 16.6749 1.47297 16.5605C1.35433 16.4463 1.28906 16.2936 1.28906 16.1303L1.28906 10.1933Z" fill="#3B3B3D"/>
<rect x="8.2" y="13.7" width="5.6" height="5.52308" rx="2.76154" stroke="#3B3B3D" stroke-width="1.4"/>
<rect x="4.7" y="21.7769" width="12.6" height="5.52308" rx="2.76154" stroke="#3B3B3D" stroke-width="1.4"/>
</svg>
