<svg height="512pt" viewBox="0 -17 512.00126 512" width="512pt" xmlns="http://www.w3.org/2000/svg"><g fill-rule="evenodd"><path d="m158.296875 418.671875-53.160156-18.265625-53.128907 18.265625c0 70.363281 106.289063 70.363281 106.289063 0zm0 0" fill="#f78411"/><path d="m256 400.40625-53.160156 18.265625c0 70.359375 106.320312 70.359375 106.320312 0zm0 0" fill="#f78411"/><path d="m409.949219 401.0625-56.246094 17.609375c0 70.359375 106.289063 70.359375 106.289063 0zm0 0" fill="#f78411"/><path d="m499.804688 381.652344-243.804688-18.953125-243.804688 18.953125c-10.683593 17.042968-2.238281 36.449218 19.578126 37.023437h448.453124c21.816407-.574219 30.261719-19.980469 19.578126-37.023437zm0 0" fill="#808080"/><path d="m251.238281 307.183594-198.378906 36.59375-33.15625 29.171875c-3.113281 2.738281-5.609375 5.679687-7.507813 8.703125h487.609376c-1.898438-3.023438-4.390626-5.964844-7.507813-8.703125l-31.027344-28.171875zm0 0" fill="#e6e6e6"/><path d="m267.476562 344.777344h201.355469c15.019531-.203125 25.050781-10.25 25.050781-36.109375 0-1.769531-.085937-3.511719-.253906-5.308594-3.007812-31.882813-31.964844-68.730469-56.164062-75.070313-41.878906-10.988281-74.496094-19.695312-127.085938-33.109374-19.894531-6.277344-36.132812-12.902344-40.777344-20.578126l-8.585937-36.28125-65.542969-.199218c-38.621094-.144532-55.851562 15.386718-56.898437 50.664062 3.855469 94.679688-117 66.25-117 7.648438v109.550781c0 12.929687 7 27.972656 19.125 33.480469 3.828125 2.253906 7.90625 3.570312 12.15625 4.3125 5.613281.96875 11.5625.996094 17.597656.996094h197.023437zm0 0" fill="#50d960"/><path d="m315.277344 303.359375c-28.535156 0-47.800782 18.695313-47.800782 41.414063h201.355469c15.019531-.199219 25.050781-10.246094 25.050781-36.105469 0-1.769531-.085937-3.511719-.253906-5.308594zm0 0" fill="#808080"/><path d="m343.050781 203.515625-5.300781 18.378906c-1.613281 5.539063 1.585938 11.390625 7.054688 12.988281l8.21875 2.425782c5.496093 1.597656 11.304687-1.597656 12.890624-7.136719l5.554688-19.207031.058594-.144532.738281-2.570312c1.585937-5.535156-1.589844-11.386719-7.085937-12.984375l-8.214844-2.425781c-5.5-1.597656-11.28125 1.597656-12.894532 7.132812l-.738281 2.570313zm0 0" fill="#f78411"/><path d="m396.632812 212.078125-.652343 2.597656-.652344 2.539063-4.335937 16.984375c-1.414063 5.59375 1.929687 11.332031 7.484374 12.757812l8.273438 2.140625c5.554688 1.425782 11.246094-1.941406 12.664062-7.535156l4.308594-16.867188.679688-2.65625.652344-2.597656c1.417968-5.566406-1.925782-11.304687-7.480469-12.730468l-8.273438-2.167969c-5.554687-1.429688-11.25 1.96875-12.667969 7.535156zm0 0" fill="#f78411"/><path d="m198.535156 7.734375-148.285156.171875c-17.113281 0-28.675781 9.503906-28.675781 30.054688v20.097656l110.683593 29.457031 121.445313-29.457031c.710937-23.234375-2.207031-53.0625-55.167969-50.324219zm0 0" fill="#50d960"/><path d="m144.269531 58.058594h-122.695312v148.539062c0 58.570313 120.855469 87.027344 117-7.648437 1.046875-35.308594 18.277343-50.496094 56.898437-50.664063l67.839844-.34375-9.609375-40.503906c6.6875 0 12.15625-6.5625 12.15625-14.585938v-20.210937c0-8.019531-5.46875-14.585937-12.15625-14.585937h-109.433594zm0 0" fill="#e6e6e6"/><path d="m245.175781 58.058594h-100.90625c-6.628906.054687-12.011719 6.621094-12.011719 14.585937l-.03125 20.207031c0 8.023438 5.46875 14.585938 12.15625 14.585938h109.324219c6.6875 0 12.15625-6.5625 12.15625-14.585938v-20.210937c0-8.019531-5.46875-14.585937-12.15625-14.585937h-8.53125zm0 0" fill="#f78411"/><path d="m269.601562 174.597656h-33.152343c-7.960938 0-14.480469 6.566406-14.480469 14.585938v12.019531c0 8.019531 6.515625 14.585937 14.480469 14.585937h59.449219c7.960937 0 14.480468-6.566406 14.480468-14.585937v-12.019531c0-8.019532-6.515625-14.585938-14.480468-14.585938zm0 0" fill="#f78411"/><path d="m158.296875 418.671875h-34.484375c0 27.460937-16.179688 44.1875-35.902344 50.238281 30.859375 9.417969 70.386719-7.335937 70.386719-50.238281zm0 0" fill="#f74311"/><path d="m309.160156 418.671875h-34.484375c0 27.460937-16.183593 44.1875-35.902343 50.238281 30.828124 9.417969 70.386718-7.335937 70.386718-50.238281zm0 0" fill="#f74311"/><path d="m425.507812 418.671875c0 27.460937-16.152343 44.1875-35.902343 50.238281 30.859375 9.417969 70.386719-7.335937 70.386719-50.238281zm0 0" fill="#f74311"/><path d="m461.269531 344.777344h-58.121093l31.058593 28.171875c1.445313 1.253906 2.746094 2.566406 3.910157 3.90625 1.359374 1.570312 2.546874 3.171875 3.570312 4.796875h58.117188c-1.898438-3.027344-4.394532-5.964844-7.507813-8.707032zm0 0" fill="#c2c7cc"/><path d="m499.804688 381.652344h-58.117188c6.855469 10.90625 5.867188 22.777344-1.472656 30.058594-4.109375 4.109374-10.230469 6.761718-18.109375 6.964843h58.117187c21.820313-.574219 30.265625-19.980469 19.582032-37.023437zm0 0" fill="#666"/><path d="m493.628906 303.359375h-20.855468c.140624 1.796875.226562 3.539063.226562 5.308594 0 17.070312-4.363281 27.257812-11.644531 32.253906-3.769531 2.570313-8.304688 3.765625-13.40625 3.851563h20.886719c15.015624-.199219 25.046874-10.246094 25.046874-36.105469 0-1.769531-.085937-3.511719-.253906-5.308594zm0 0" fill="#666"/><path d="m245.175781 58.058594h-47.179687c5.496094.054687 10.171875 4.59375 11.589844 10.703125.28125 1.226562.453124 2.539062.453124 3.882812v20.207031c0 8.023438-5.46875 14.585938-12.15625 14.585938h55.824219c6.6875 0 12.15625-6.5625 12.15625-14.585938v-20.210937c0-8.019531-5.46875-14.585937-12.15625-14.585937h-8.53125zm0 0" fill="#f74311"/><path d="m253.703125 58.058594c.710937-23.234375-2.207031-53.0625-55.167969-50.324219l-19.722656.03125c40.859375 2.339844 43.269531 29.054687 42.617188 50.292969zm0 0" fill="#2bad3b"/><path d="m250.617188 107.4375h-28.335938c-.285156.027344-.566406.027344-.851562.027344l7.28125 30.773437.058593.140625 2.265625 9.589844.027344.144531 32.25-.171875-2.296875-9.617187-7.3125-30.886719zm0 0" fill="#c2c7cc"/><path d="m263.3125 147.941406-32.25.171875 6.292969 26.484375h32.246093zm0 0" fill="#2bad3b"/><path d="m292.214844 174.597656h-22.527344.027344c6.488281.058594 11.984375 4.453125 13.769531 10.417969.398437 1.34375.625 2.742187.625 4.167969v12.019531c0 8.019531-6.515625 14.585937-14.507813 14.585937h26.296876c7.960937 0 14.480468-6.566406 14.480468-14.585937v-12.019531c0-8.019532-6.519531-14.585938-14.480468-14.585938zm0 0" fill="#f74311"/><path d="m395.328125 217.214844c-.878906 3.453125-2.292969 7.421875-2.777344 10.816406l28.167969 8.105469c1.21875-3.136719 2.125-8.046875 3.003906-11.445313l1.332032-5.25c1.417968-5.566406-1.925782-11.304687-7.480469-12.730468l-8.273438-2.167969c-5.554687-1.429688-11.25 1.96875-12.667969 7.535156zm0 0" fill="#f74311"/><path d="m395.328125 217.214844-23.859375-6.25-5.183594 17.953125c8.246094 2.140625 16.320313 4.28125 24.480469 6.421875.058594-.371094.113281-.742188.226563-1.140625zm0 0" fill="#2bad3b"/><path d="m356.960938 192.839844c-5.496094-1.597656-11.277344 1.597656-12.890626 7.132812l-1.019531 3.539063-2.835937 9.792969 28.136718 8.417968 3.117188-10.761718.792969-2.710938c1.589843-5.535156-1.585938-11.386719-7.082031-12.988281zm0 0" fill="#f74311"/><path d="m343.050781 203.570312c-10.117187-2.597656-20.886719-5.363281-32.671875-8.390624v6.023437c0 3.824219-1.503906 7.335937-3.941406 9.960937l31.824219 8.933594 1.671875-5.792968zm0 0" fill="#2bad3b"/><path d="m493.628906 303.359375c-3.003906-31.882813-31.964844-68.734375-56.164062-75.070313-.054688-.027343-.113282-.027343-.167969-.058593l-1.644531-.425781-11.929688-3.109376c0 .027344 0 .054688-.027344.085938-.792968 3.167969-1.644531 7.5625-2.71875 10.671875l-1.558593 6.109375c-.113281.429688-.226563.828125-.398438 1.226562.199219.03125.398438.085938.625.144532 20.542969 5.394531 44.515625 32.765625 53.128907 60.425781zm0 0" fill="#2bad3b"/></g><path d="m506.117188 377.5c-.027344-.035156-.050782-.074219-.074219-.113281-2.285157-3.570313-5.199219-6.972657-8.710938-10.074219l-18.246093-16.566406c10.863281-3.472656 22.351562-13.824219 22.351562-42.078125 0-1.824219-.097656-3.6875-.265625-5.574219-.011719-.230469-.027344-.464844-.054687-.691406-1.53125-15.445313-8.527344-32.664063-19.730469-48.199219-12.542969-17.402344-27.855469-29.507813-42.007813-33.222656l-6.613281-1.730469c1.203125-8.929688-4.417969-17.574219-13.277344-19.847656l-8.3125-2.179688c-4.632812-1.191406-9.464843-.496094-13.597656 1.953125-3.46875 2.058594-6.074219 5.148438-7.539063 8.84375l-9.824218-2.574219c.042968-7.867187-5.054688-15.148437-12.898438-17.425781l-8.246094-2.4375c-8.296874-2.410156-16.964843 1.492188-20.878906 8.894531l-20.257812-5.167968v-.121094c0-12.210938-9.886719-22.144531-22.035156-22.144531h-20.320313l-4.835937-20.421875c-.054688-.328125-.128907-.652344-.226563-.960938l-7.832031-33.105468c6.367187-3.675782 10.734375-11.125 10.734375-19.703126v-20.207031c0-9.175781-4.992188-17.0625-12.085938-20.417969-.117187-13.539062-2.433593-27.875-13.203125-38.417968-10.550781-10.328125-26.835937-14.785156-49.792968-13.628906l-53.929688.058593c-4.175781.003907-7.554688 3.390625-7.550781 7.5625.003906 4.171875 3.386719 7.550781 7.554687 7.550781h.011719l54.121094-.058593c.128906 0 .253906-.003907.382812-.011719 18.347657-.953125 31.34375 2.191406 38.632813 9.328125 6.59375 6.457031 8.386718 15.925781 8.636718 25.890625h-217.0625v-12.539062c0-15.136719 6.90625-22.496094 21.125-22.496094l56.472657-.058594c4.175781-.003906 7.554687-3.390625 7.550781-7.566406-.003906-4.171875-3.386719-7.546875-7.554688-7.546875-.003906 0-.007812 0-.007812 0l-56.46875.058593c-22.6875 0-36.230469 14.058594-36.230469 37.609376v268.023437c0 14.175781 7.257813 32.722656 23.1875 40.191406.304688.175781.613281.328125.921875.496094l-23.421875 20.609375c-3.53125 3.113281-6.460937 6.527344-8.753906 10.113281-.019531.03125-.039063.0625-.058594.09375-5.9335935 9.332031-7.546875 19.835938-4.113281 29.296875 4.277344 11.792969 15.414062 19.058594 29.792969 19.445313h.203125 13.070312c3.625 34.679687 32.121094 52.769531 60.304688 52.769531s56.683594-18.089844 60.308594-52.769531h30.21875c3.625 34.679687 32.132812 52.769531 60.324218 52.769531 28.1875 0 56.691406-18.089844 60.320313-52.769531h30.21875c3.625 34.679687 32.125 52.769531 60.308593 52.769531 28.183594 0 56.679688-18.089844 60.304688-52.769531h13.070312.203126c14.378906-.386719 25.515624-7.652344 29.792968-19.445313 3.425782-9.457031 1.816406-19.953125-4.105468-29.285156zm-37.335938-40.28125h-192.855469c3.757813-15.613281 19.152344-26.304688 39.351563-26.304688h171.015625c-.660157 25.984376-12.800781 26.242188-17.511719 26.304688zm-64.824219-123.277344c.253907-1 .941407-1.535156 1.328125-1.761718.378906-.226563 1.164063-.566407 2.097656-.328126l8.308594 2.179688c1.5.382812 2.429688 2.007812 2.035156 3.570312l-5.636718 22.105469c-.253906 1-.933594 1.53125-1.3125 1.757813-.378906.222656-1.167969.566406-2.136719.316406l-8.285156-2.144531c-1.496094-.386719-2.425781-2.023438-2.039063-3.578125l4.996094-19.546875zm-49.882812-13.960937c.25 0 .5.035156.746093.105469l8.25 2.433593c1.488282.433594 2.371094 2.105469 1.929688 3.648438l-.777344 2.679687c-.019531.066406-.042968.132813-.0625.199219-.003906.023437-.007812.046875-.011718.066406l-5.496094 18.976563c-.28125.988281-.980469 1.496094-1.371094 1.710937-.386719.214844-1.183594.53125-2.117188.257813l-8.238281-2.429688c-1.488281-.433594-2.367187-2.089844-1.921875-3.617187.003906-.007813.003906-.015625.007813-.019531l6.3125-21.898438c.371093-1.28125 1.527343-2.113281 2.75-2.113281zm-51.253907-10.796875v12.019531c0 3.875-3.105468 7.027344-6.921874 7.027344h-59.449219c-3.816407 0-6.921875-3.152344-6.921875-7.027344v-12.019531c0-3.875 3.105468-7.027344 6.921875-7.027344h33.125c.007812 0 .015625.003906.023437.003906.007813 0 .019532-.003906.03125-.003906h26.269532c3.816406 0 6.921874 3.152344 6.921874 7.027344zm-49.117187-123.570313c2.171875 0 4.601563 3.007813 4.601563 7.03125v20.207031c0 4.023438-2.429688 7.027344-4.601563 7.027344h-109.320313c-2.167968 0-4.597656-3.003906-4.597656-7.015625l.027344-20.21875c0-4.023437 2.414062-7.03125 4.570312-7.03125zm-127.984375 0c-.65625 2.207031-1.019531 4.566407-1.019531 7.019531l-.027344 20.21875c0 12.207032 8.84375 22.140626 19.710937 22.140626h103.34375l6.023438 25.4375-58.308594.296874c-42.78125.1875-63.25 18.617188-64.417968 57.996094-.007813.179688-.003907.355469 0 .53125.921874 22.632813-5.816407 39.039063-19.488282 47.433594-14.902344 9.152344-37.671875 8.164062-56.65625-2.457031-16.121094-9.015625-25.746094-23.085938-25.746094-37.632813v-140.984375zm-55.265625 286.71875h86.371094c4.171875 0 7.554687-3.382812 7.554687-7.558593 0-4.171876-3.382812-7.554688-7.554687-7.554688h-86.371094c-9.613281 0-18.695313 0-25.910156-4.261719-.234375-.136719-.472657-.261719-.71875-.371093-9.542969-4.335938-14.691407-16.941407-14.691407-26.601563v-62.886719c5.027344 5.460938 11.203126 10.316406 18.367188 14.324219 12.691406 7.101563 26.574219 10.679687 39.757812 10.679687 11.726563 0 22.902344-2.832031 32.1875-8.535156 12.945313-7.949218 28.066407-24.925781 26.691407-60.652344.988281-30.839843 14.851562-42.921874 49.375-43.074218l61.808593-.3125 2.726563 11.515625h-23.597656c-12.152344 0-22.035157 9.933593-22.035157 22.140625v12.019531c0 12.207031 9.886719 22.140625 22.035157 22.140625h59.449219c10.921874 0 20.007812-8.023438 21.734374-18.515625l15.996094 4.082031-3.136718 10.882813c-2.773438 9.546875 2.691406 19.566406 12.171874 22.339843l8.25 2.433594c1.652344.480469 3.339844.71875 5.015626.71875 2.992187 0 5.957031-.757812 8.65625-2.25 4.21875-2.328125 7.269531-6.15625 8.589843-10.753906l3.515625-12.136719 9.457032 2.476563-2.476563 9.707031c0 .003906 0 .011719-.003906.015625-2.4375 9.636719 3.359375 19.476562 12.914062 21.929688l8.285157 2.144531c1.488281.382812 2.992187.570312 4.488281.570312 3.183593 0 6.320312-.855469 9.132812-2.527343 4.140625-2.453126 7.070313-6.378907 8.25-11.027344l2.425781-9.503906 6.386719 1.667968c18.691407 4.90625 42.835938 33.160156 49.179688 60.203125h-169.449219c-28.644531 0-50.890625 17.339844-54.761719 41.417969h-69.070312c-4.171875 0-7.554688 3.382812-7.554688 7.554688 0 4.175781 3.382813 7.558593 7.554688 7.558593h266.898437l23.972656 21.765625h-452.480468l25.417968-22.367187c5.1875.59375 10.339844.601562 15.195313.601562zm34.699219 111.554688c-20.089844 0-41.582032-11.847657-45.089844-37.65625h90.179688c-3.507813 25.808593-25 37.65625-45.089844 37.65625zm150.847656 0c-20.097656 0-41.59375-11.847657-45.105469-37.65625h90.210938c-3.511719 25.808593-25.007813 37.65625-45.105469 37.65625zm150.847656 0c-20.089844 0-41.582031-11.847657-45.089844-37.65625h90.179688c-3.507812 25.808593-25 37.65625-45.089844 37.65625zm89.164063-62.257813c-2.101563 5.792969-7.890625 9.246094-15.890625 9.488282h-448.242188c-8-.242188-13.789062-3.695313-15.890625-9.488282-1.394531-3.839844-1.066406-8.15625.753907-12.417968h478.515624c1.820313 4.261718 2.148438 8.578124.753907 12.417968zm0 0"/></svg>