<svg height="512pt" viewBox="-17 0 512 512.00204" width="512pt" xmlns="http://www.w3.org/2000/svg"><g fill-rule="evenodd"><path d="m154.089844 154.375-25.730469-25.109375h-16.726563c-6.144531 0-11.179687 4.988281-11.179687 11.109375v10.96875c0 14.027344 15.640625 28.308594 29.621094 28.136719zm0 0" fill="#eda93b"/><path d="m235.085938 230.832031-53.976563 22.699219c-.429687.59375-6.546875 6.488281-9.40625 9.75-5.71875 6.542969-14.4375 13.828125-25.1875 18.078125 15.867187 27.066406 53.71875 54.269531 91.601563 54.183594 39.082031-.054688 78.226562-28.195313 93.375-54.183594-10.777344-4.25-19.46875-11.535156-25.1875-18.078125-2.859376-3.261719-8.976563-9.152344-9.40625-9.75-9.347657 6.972656-51.175782-26.636719-61.8125-22.699219zm0 0" fill="#fcc368"/><path d="m377.554688 151.339844v-10.964844c0-6.121094-5.035157-11.109375-11.179688-11.109375h-16.726562l-23.84375 23.292969 22.128906 26.921875c13.980468.171875 29.621094-14.113281 29.621094-28.140625zm0 0" fill="#eda93b"/><path d="m331.492188 281.359375c-29.847657 51.152344-152.785157 54.921875-184.976563 0-5.203125 2.070313-10.921875 3.429687-17.011719 3.628906-.800781.027344-5.632812.167969-6.433594.226563-40.113281 2.125-55.265624 24.085937-74.566406 60.21875l-33.90625 63.535156 227.066406 27.40625 221.746094-27.40625-33.90625-63.535156c-19.300781-36.132813-34.453125-58.09375-74.59375-60.21875-.769531-.058594-5.601562-.199219-6.402344-.226563-6.09375-.199219-11.808593-1.53125-17.015624-3.628906zm0 0" fill="#50d960"/><path d="m119.523438 411.691406c-51.917969-14.824218-79.652344-17.003906-104.925782-2.722656-25.617187 47.949219 22.644532 60.332031 81.996094 60.332031h23.585938l14.667968-25.390625zm0 0" fill="#ffdda6"/><path d="m328.40625 381.480469c0-8.105469-6.71875-14.765625-14.925781-14.765625h-35.28125l-3.828125-11.078125c-.972656-2.835938-2.460938-5.414063-5.460938-5.414063l-60.671875.058594c-3 0-4.203125 2.691406-5.460937 5.410156l-5.203125 11.082032h-33.933594c-8.179687 0-14.898437 6.660156-14.898437 14.792968v108.082032c0 8.132812 6.71875 14.792968 14.898437 14.792968l149.839844-.054687c8.207031-.027344 14.925781-6.660157 14.925781-14.792969 0-31.34375 0-76.882812 0-108.113281zm0 0" fill="#e6e6e6"/><path d="m381.414062 469.304688c59.351563 0 107.613282-12.386719 81.996094-60.335938-25.273437-14.28125-53.007812-12.101562-104.925781 2.722656l-17.8125 28.394532 17.152344 29.21875zm0 0" fill="#ffdda6"/><path d="m349.648438 129.265625v-24.855469c-87.027344-53.445312-103.925782-72.714844-221.289063 0v59.625c0 5.019532.570313 10.175782 1.714844 15.445313 7.863281 36.21875 41.457031 76.035156 81.367187 90.714843 20.070313 7.394532 35.195313 7.367188 55.265625-.058593 39.855469-14.734375 73.363281-54.464844 81.226563-90.65625 1.113281-5.269531 1.714844-10.429688 1.714844-15.445313zm0 0" fill="#ffdda6"/><path d="m349.648438 104.410156c0-87.195312-97.464844-114.515625-163.023438-85.976562-33.25 14.480468-58.265625 43.328125-58.265625 85.976562 96.636719-25.8125 88.773437 49.964844 221.289063 0zm0 0" fill="#808080"/><path d="m219.304688 433.3125c0-6.320312 2.03125-12.15625 5.488281-16.917969h-49.746094l-14.382813 15.132813 12.667969 18.730468h51.433594c-3.429687-4.789062-5.460937-10.625-5.460937-16.945312zm0 0" fill="#f78411"/><path d="m304.648438 450.257812 10.261718-18.671874-11.949218-15.191407h-50.605469c3.460937 4.761719 5.488281 10.597657 5.488281 16.917969s-2.027344 12.15625-5.488281 16.945312zm0 0" fill="#f78411"/><path d="m96.59375 449.296875c-42.484375 0-79.28125-6.320313-87.398438-27.519531-10.894531 37.40625 33.707032 47.523437 87.398438 47.523437h23.589844c-.429688-1.046875-.660156-2.152343-.660156-3.285156v-16.71875zm0 0" fill="#fcc368"/><path d="m381.414062 449.324219h-22.929687v16.691406c0 1.132813-.230469 2.238281-.660156 3.289063h23.585937c53.664063 0 98.296875-10.117188 87.375-47.527344-8.089844 21.199218-44.886718 27.546875-87.371094 27.546875zm0 0" fill="#fcc368"/><path d="m172.558594 466.015625 2.71875-54.324219c.339844-6.859375-8.09375-12.46875-18.011719-12.46875h-19.730469c-9.890625 0-18.011718 5.609375-18.011718 12.46875v54.324219c0 6.855469 8.121093 12.496094 18.011718 12.496094h17.011719c9.921875 0 17.671875-5.640625 18.011719-12.496094zm0 0" fill="#fcc368"/><path d="m153.804688 461.792969h-13.152344c-11.609375 0-21.128906-5.609375-21.128906-12.496094v16.71875c0 1.132813.230468 2.238281.660156 3.289063 2.085937 5.296874 9.089844 9.207031 17.351562 9.207031h17.011719c9.921875 0 17.667969-5.636719 18.011719-12.496094l.3125-6.628906c-3.429688 1.5-7.660156 2.40625-12.261719 2.40625zm0 0" fill="#eda93b"/><path d="m358.484375 466.015625v-54.324219c0-6.859375-8.121094-12.46875-18.011719-12.46875h-19.730468c-9.917969 0-18.351563 5.609375-18.011719 12.46875l2.71875 54.324219c.339843 6.855469 8.089843 12.496094 18.011719 12.496094h17.011718c9.890625 0 18.011719-5.640625 18.011719-12.496094zm0 0" fill="#fcc368"/><path d="m324.203125 461.792969h13.152344c11.605469 0 21.128906-5.609375 21.128906-12.46875v16.691406c0 1.132813-.230469 2.238281-.660156 3.289063-2.085938 5.296874-9.089844 9.207031-17.351563 9.207031h-17.011718c-9.921876 0-17.671876-5.636719-18.011719-12.496094l-.34375-6.628906c3.457031 1.5 7.660156 2.40625 12.292969 2.40625zm0 0" fill="#eda93b"/><path d="m274.828125 433.3125c0-19.835938-16.238281-35.90625-36.253906-35.90625-20.011719 0-36.253907 16.070312-36.253907 35.90625s16.242188 35.933594 36.253907 35.933594 36.253906-16.097656 36.253906-35.933594zm0 0" fill="#a2d6f2"/><path d="m270.539062 450.257812c2.746094-5.042968 4.289063-10.824218 4.289063-16.945312 0-3.457031-.515625-6.800781-1.429687-9.949219-2.773438 9.523438-9.40625 17.429688-18.125 21.90625-5.003907 2.582031-10.695313 4.054688-16.699219 4.054688-6.003907 0-11.695313-1.476563-16.695313-4.054688-8.722656-4.476562-15.355468-12.382812-18.128906-21.90625-.914062 3.148438-1.429688 6.492188-1.429688 9.949219 0 6.121094 1.546876 11.902344 4.289063 16.945312 6.089844 11.308594 18.128906 18.988282 31.964844 18.988282 13.839843 0 25.875-7.679688 31.964843-18.988282zm0 0" fill="#64b0d9"/><path d="m349.648438 104.410156c0-77.222656-76.449219-107.488281-139.492188-93.574218 44.113281 1.984374 86.570312 24.65625 99.121094 68.835937 2.402344 8.503906 3.71875 17.796875 3.71875 27.886719v8.527344c10.921875-2.71875 23.042968-6.542969 36.652344-11.675782zm0 0" fill="#666"/><path d="m349.648438 164.035156v-59.625c-13.609376 5.132813-25.730469 8.957032-36.652344 11.679688v51.09375c0 5.015625-.601563 10.171875-1.746094 15.414062-7.859375 36.21875-41.367188 75.949219-81.195312 90.683594-1.199219.425781-2.34375.851562-3.488282 1.222656 13.324219 2.550782 25.386719 1.074219 40.140625-4.367187 10.636719-3.9375 20.84375-9.632813 30.191407-16.605469 25.730468-19.101562 45.261718-47.523438 51.035156-74.050781 1.113281-5.269531 1.714844-10.425781 1.714844-15.445313zm0 0" fill="#fcc368"/><path d="m429.5 345.433594c-19.296875-36.132813-34.449219-58.09375-74.589844-60.21875-.773437-.058594-5.605468-.199219-6.40625-.226563-6.089844-.199219-11.808594-1.53125-17.011718-3.628906-5.402344 9.238281-13.808594 16.949219-24.1875 23.011719-.3125.171875-.628907.367187-.914063.539062 4.144531 1.304688 8.578125 2.125 13.210937 2.265625.769532.027344 5.628907.171875 6.402344.226563 40.113282 2.125 55.265625 24.089844 74.59375 60.21875l17.066406 31.96875c18.128907-1.164063 32.28125 1.757812 45.746094 9.378906zm0 0" fill="#2bad3b"/><path d="m181.109375 253.53125c-.375.480469-10.351563 10.597656-13.441406 13.859375 36.855469 30.800781 72.363281 39.019531 110.074219 20.941406 11.09375-5.328125 13.953124 2.519531 23.472656 11.617188 4.433594 4.222656 1.660156 1.476562 6.089844 4.421875 10.378906-6.066406 18.785156-13.773438 24.1875-23.011719-8.746094-3.429687-16.09375-8.898437-21.640626-14.339844-1.289062-1.246093-2.488281-2.519531-3.546874-3.738281-2.859376-3.261719-8.976563-9.152344-9.40625-9.75-6.488282 4.164062-11.320313 7.851562-18.441407 11.449219-3.800781 1.953125-7.746093 3.683593-11.75 5.15625-20.070312 7.425781-35.195312 7.453125-55.265625.058593-10.691406-3.941406-20.925781-9.664062-30.332031-16.664062zm0 0" fill="#eda93b"/><path d="m306.332031 381.480469v22.613281c3.316407-2.945312 8.609375-4.871094 14.410157-4.871094h7.664062v-17.742187c0-8.105469-6.71875-14.765625-14.925781-14.765625h-22.070313c8.207032 0 14.921875 6.660156 14.921875 14.765625zm0 0" fill="#c2c7cc"/><path d="m313.480469 504.386719c8.207031-.027344 14.925781-6.660157 14.925781-14.792969v-11.082031h-4.945312c-8.121094 0-14.8125-3.796875-17.128907-8.925781v20.007812c0 8.132812-6.71875 14.761719-14.921875 14.792969l-128.285156.027343h.027344c.144531.027344.316406.027344.488281.027344zm0 0" fill="#c2c7cc"/></g><path d="m253.242188 366.78125h-28.476563c-4.171875 0-7.558594 3.382812-7.558594 7.558594 0 4.171875 3.386719 7.554687 7.558594 7.554687h28.476563c4.171874 0 7.554687-3.382812 7.554687-7.554687 0-4.175782-3.382813-7.558594-7.554687-7.558594zm0 0"/><path d="m196.433594 171.425781c4.171875 0 7.554687-3.382812 7.554687-7.558593v-10.316407c0-4.171875-3.382812-7.554687-7.554687-7.554687s-7.558594 3.382812-7.558594 7.554687v10.316407c0 4.175781 3.382812 7.558593 7.558594 7.558593zm0 0"/><path d="m282.804688 171.425781c4.171874 0 7.554687-3.382812 7.554687-7.558593v-10.316407c0-4.171875-3.382813-7.554687-7.554687-7.554687-4.175782 0-7.558594 3.382812-7.558594 7.554687v10.316407c0 4.175781 3.382812 7.558593 7.558594 7.558593zm0 0"/><path d="m470.183594 405.621094c-.011719-.023438-.023438-.042969-.03125-.066406-.027344-.046876-.046875-.09375-.074219-.144532l-33.910156-63.539062c-19.285157-36.105469-36.375-61.847656-80.859375-64.203125-.039063-.003907-.082032-.003907-.121094-.007813l-6.441406-.226562c-19.078125-.609375-32.960938-14.800782-36.761719-19.136719-1.035156-1.179687-2.410156-2.625-3.808594-4.058594 22.003907-18.398437 39.015625-43.25 45.808594-67.804687 7.074219-1.414063 14.230469-5.28125 19.996094-10.980469 7.074219-6.988281 11.128906-15.777344 11.128906-24.113281v-10.964844c0-10.292969-8.40625-18.667969-18.738281-18.667969h-9.167969v-17.296875c0-35.5-15.734375-65.363281-44.304687-84.085937-35.703126-23.398438-87.660157-26.941407-129.292969-8.820313-39.914063 17.382813-62.804688 51.246094-62.804688 92.90625v17.296875h-9.167969c-10.332031 0-18.738281 8.375-18.738281 18.667969v10.964844c0 8.335937 4.058594 17.125 11.128907 24.113281 5.765624 5.695313 12.917968 9.566406 19.992187 10.980469 6.785156 24.566406 23.800781 49.414062 45.804687 67.8125-1.394531 1.429687-2.769531 2.871094-3.804687 4.050781-3.796875 4.335937-17.679687 18.527344-36.785156 19.136719l-6.433594.226562c-.042969 0-.085937.003906-.128906.007813-36.203125 1.902343-54.027344 19.140625-69.644531 44.441406-2.195313 3.550781-1.09375 8.207031 2.457031 10.398437 1.238281.765626 2.609375 1.128907 3.964843 1.128907 2.535157 0 5.007813-1.273438 6.4375-3.589844 13.835938-22.410156 27.6875-35.695313 57.515626-37.285156l6.339843-.222657c4.863281-.15625 9.425781-.9375 13.671875-2.132812 8.535156 11.761719 21.453125 21.367188 37.730469 27.992188 16.578125 6.742187 36.171875 10.308593 56.6875 10.308593h.171875c42.277344-.042969 79.253906-14.902343 96.554688-38.308593 4.25 1.203124 8.8125 1.984374 13.679687 2.140624l6.335937.226563c35.46875 1.898437 48.613282 19.445313 68.261719 56.226563l24.21875 45.382812c-17.125-4.246094-36.09375-2.945312-59.203125 2.015625l-12.851562-32.457031c-1.535156-3.878906-5.925782-5.78125-9.804688-4.242188-3.882812 1.535156-5.78125 5.925782-4.246094 9.808594l12.042969 30.410156c-3.160156.8125-6.402343 1.675782-9.714843 2.589844-4.1875-6.484375-12.722657-10.835938-22.804688-10.835938h-4.507812v-10.183593c0-12.308594-10.085938-22.320313-22.480469-22.320313h-29.898438l-2.066406-5.976562c-3.136719-9.152344-9.246094-10.515625-12.617187-10.515625l-60.660157.054687c-7.792969 0-10.816406 6.539063-12.265625 9.683594l-3.199218 6.808594h-29.136719c-12.382813 0-22.453125 10.027344-22.453125 22.351562v10.097656h-3.652344c-10.078125 0-18.617188 4.351563-22.804688 10.835938-3.3125-.910156-6.554687-1.777344-9.714843-2.589844l12.042969-30.410156c1.539062-3.878906-.363282-8.273438-4.242188-9.808594s-8.273438.363282-9.808594 4.246094l-12.851562 32.453125c-23.105469-4.960937-42.074219-6.261719-59.199219-2.015625l18.125-33.960938c1.964844-3.679687.574219-8.257812-3.105469-10.226562-3.683594-1.960938-8.261718-.574219-10.226562 3.109375l-27.816406 52.113281c-.027344.046875-.046876.089844-.070313.136719-.015625.027344-.027344.054687-.042969.082031-9.195312 17.316406-10.285156 32.070313-3.226562 43.84375 11.050781 18.429688 41.144531 27.390625 92.003906 27.390625h19.320312c4.496094 5.574219 12.414063 9.207031 21.617188 9.207031h3.652344v3.582032c0 12.324218 10.070312 22.351562 22.453125 22.351562h60.097656c4.171875 0 7.554687-3.386718 7.554687-7.558594 0-4.175781-3.382812-7.558593-7.554687-7.558593h-60.097656c-3.980469 0-7.339844-3.3125-7.339844-7.234375v-3.632813c12.96875-.699219 23.277344-9.0625 23.808594-19.625l.429687-8.578125h21.867188c7.902344 11.457032 21.164062 18.988282 36.171875 18.988282 15.007812 0 28.273437-7.53125 36.171875-18.988282h22.726562l.425782 8.578125c.519531 10.328125 10.386718 18.558594 22.949218 19.570313v3.628906c0 3.976562-3.316406 7.222656-7.367187 7.238281h-56.523438c-4.171875 0-7.554687 3.382813-7.554687 7.554688 0 4.175781 3.382812 7.558593 7.554687 7.558593h56.550781c12.382813-.042968 22.457032-10.070312 22.457032-22.351562v-3.523438h4.507812c9.203125 0 17.125-3.632812 21.617188-9.207031h19.324218c50.855469 0 80.949219-8.960937 92-27.390625 7.058594-11.777344 5.96875-26.53125-3.230468-43.851562zm-112.976563-241.585938v-27.210937h9.167969c1.960938 0 3.621094 1.625 3.621094 3.550781v10.964844c0 4.261718-2.480469 9.257812-6.636719 13.363281-1.941406 1.914063-4.121094 3.511719-6.359375 4.71875.132812-1.804687.207031-3.601563.207031-5.386719zm-242.558593.667969c-4.15625-4.105469-6.636719-9.101563-6.636719-13.363281v-10.964844c0-1.925781 1.65625-3.550781 3.621093-3.550781h9.167969v27.210937c0 1.789063.074219 3.59375.207031 5.402344-2.238281-1.207031-4.414062-2.816406-6.359374-4.734375zm74.992187-139.339844c37.152344-16.171875 83.355469-13.117187 114.976563 7.605469 16.3125 10.6875 35.613281 30.742188 37.347656 66.226562-67.757813 24.554688-95.855469 13.992188-123.050782 3.769532-15.308593-5.75-30.953124-11.632813-52.558593-11.632813-8.859375 0-18.722657.988281-29.96875 3.382813 4.136719-41.699219 34.585937-61.222656 53.253906-69.351563zm-52.171875 152.550781c-.003906-.015624-.007812-.03125-.011719-.046874-1-4.691407-1.539062-9.324219-1.539062-13.832032v-53.71875c36.648437-8.605468 56.617187-1.117187 77.679687 6.796875 16.371094 6.152344 33.03125 12.417969 56.847656 12.414063 18.492188 0 41.328126-3.804688 71.648438-14.347656v48.855468c0 37.390625-36.449219 83.660156-78.007812 99.015625-18.488282 6.839844-31.578126 6.851563-50.035157.050781-36.601562-13.460937-69.238281-50.882812-76.582031-85.1875zm100.519531 135.679688c-.054687 0-.109375 0-.164062 0-35.113281 0-64.785157-11.046875-80-29.289062 9.441406-5.402344 16.152343-12.15625 19.558593-16.042969 1.140626-1.296875 2.933594-3.144531 4.621094-4.851563 8.5 5.71875 17.519532 10.453125 26.824219 13.875 10.851563 4 20.507813 6 30.167969 6 9.707031 0 19.414062-2.019531 30.332031-6.058594 9.246094-3.417968 18.214844-8.132812 26.667969-13.820312 1.691406 1.707031 3.488281 3.558594 4.625 4.855469 3.398437 3.878906 10.089844 10.609375 19.492187 16.007812-15.332031 17.757813-46.925781 29.289063-82.125 29.324219zm-126.019531 148.152344h-15.375c-55.390625 0-73.554688-10.902344-79.035156-20.046875-3.945313-6.578125-3.03125-15.726563 2.695312-27.207031 17.839844-9.398438 37.4375-10.21875 72.535156-2.007813.210938.058594.429688.109375.644532.148437 5.746094 1.355469 11.898437 2.945313 18.535156 4.785157zm53.851562-12.316406c-.027343.273437-.046874.546874-.046874.828124 0 .023438.003906.042969.003906.0625l-.765625 15.316407c-.109375 2.167969-4.238281 5.316406-10.464844 5.316406h-17.011719c-5.558594 0-9.363281-2.457031-10.25-4.214844-.050781-.140625-.101562-.285156-.160156-.421875-.027344-.101562-.042969-.207031-.042969-.300781v-54.324219c0-1.6875 4.070313-4.914062 10.453125-4.914062h19.726563c4.558593 0 8.179687 1.664062 9.75 3.3125.449219.472656.726562.949218.714843 1.222656zm15.472657-6.726563.9375-18.75h13.566406c-.667969 3.015625-1.03125 6.144531-1.03125 9.359375 0 3.222656.363281 6.363281 1.039063 9.390625zm57.28125 18.984375c-15.824219 0-28.695313-12.726562-28.695313-28.375 0-4.792969 1.214844-9.308594 3.347656-13.269531.027344-.050781.054688-.105469.082032-.15625 4.851562-8.875 14.355468-14.921875 25.265625-14.921875 10.910156 0 20.414062 6.046875 25.265625 14.921875.027344.050781.054687.105469.082031.15625 2.132813 3.960937 3.347656 8.476562 3.347656 13.269531 0 15.648438-12.871093 28.375-28.695312 28.375zm42.769531-18.984375c.675781-3.027344 1.042969-6.167969 1.042969-9.390625 0-3.214844-.367188-6.34375-1.035157-9.359375h14.425782l.9375 18.75zm18.699219-43.03125c-2.542969 2.671875-4.144531 5.84375-4.675781 9.164063h-20.613282c-7.898437-11.453126-21.167968-18.988282-36.179687-18.988282s-28.28125 7.535156-36.179688 18.988282h-19.753906c-.535156-3.320313-2.136719-6.492188-4.679687-9.164063-4.769532-5.015625-12.507813-8.007813-20.699219-8.007813h-.964844v-10.097656c0-3.921875 3.363281-7.238281 7.339844-7.238281h33.9375c2.929687 0 5.59375-1.691406 6.839843-4.34375l5.277344-11.238281c.125-.273438.277344-.597656.425782-.914063l56.992187-.050781c.039063.097656.078125.203125.117187.324219l3.832032 11.078125c1.050781 3.046875 3.917968 5.089844 7.140625 5.089844h35.28125c3.992187 0 7.367187 3.300781 7.367187 7.207031v10.183593h-.105468c-8.1875 0-15.925782 2.992188-20.699219 8.007813zm50.882812 66.34375c0 .09375-.015625.195313-.042969.300781-.058593.136719-.109374.28125-.160156.421875-.890625 1.757813-4.691406 4.214844-10.25 4.214844h-17.011718c-6.226563 0-10.355469-3.148437-10.464844-5.316406l-2.714844-54.324219c-.015625-.273438.265625-.753906.714844-1.222656 1.566406-1.648438 5.191406-3.3125 9.746094-3.3125h19.730468c6.382813 0 10.453125 3.226562 10.453125 4.910156zm109.523438-24.316406c-5.480469 9.144531-23.644531 20.046875-79.035157 20.046875h-15.375v-44.328125c6.632813-1.839844 12.789063-3.429688 18.535157-4.785157.230469-.042968.460937-.097656.691406-.160156 35.070313-8.199218 54.65625-7.375 72.488281 2.019532 5.726563 11.480468 6.640625 20.625 2.695313 27.207031zm0 0"/></svg>