<svg width="18" height="15" viewBox="0 0 18 15" fill="none" xmlns="http://www.w3.org/2000/svg">
<path d="M9 15C8.74374 15 8.49669 14.913 8.30415 14.7551C7.577 14.1595 6.87593 13.5998 6.2574 13.1062L6.25424 13.1036C4.44081 11.6561 2.87485 10.406 1.78528 9.17466C0.567307 7.79804 0 6.49281 0 5.06693C0 3.68157 0.507156 2.40348 1.42795 1.46794C2.35973 0.521344 3.63826 0 5.02844 0C6.06747 0 7.01903 0.307687 7.8566 0.914443C8.2793 1.22071 8.66245 1.59555 9 2.03277C9.33769 1.59555 9.7207 1.22071 10.1435 0.914443C10.9811 0.307687 11.9327 0 12.9717 0C14.3617 0 15.6404 0.521344 16.5722 1.46794C17.493 2.40348 18 3.68157 18 5.06693C18 6.49281 17.4328 7.79804 16.2149 9.17453C15.1253 10.406 13.5595 11.656 11.7463 13.1033C11.1267 13.5978 10.4245 14.1584 9.69571 14.7553C9.50331 14.913 9.25612 15 9 15ZM5.02844 0.987634C3.93626 0.987634 2.93294 1.39591 2.20303 2.13734C1.46228 2.88997 1.05428 3.93034 1.05428 5.06693C1.05428 6.26616 1.53012 7.3387 2.59703 8.54449C3.62823 9.71002 5.16206 10.9343 6.938 12.352L6.9413 12.3546C7.56216 12.8502 8.26598 13.412 8.99849 14.012C9.7354 13.4109 10.4403 12.8481 11.0624 12.3517C12.8382 10.9341 14.3719 9.71002 15.4031 8.54449C16.4699 7.3387 16.9457 6.26616 16.9457 5.06693C16.9457 3.93034 16.5377 2.88997 15.797 2.13734C15.0672 1.39591 14.0637 0.987634 12.9717 0.987634C12.1716 0.987634 11.437 1.22586 10.7884 1.69562C10.2104 2.11445 9.80777 2.6439 9.5717 3.01436C9.4503 3.20486 9.23662 3.31857 9 3.31857C8.76338 3.31857 8.5497 3.20486 8.4283 3.01436C8.19237 2.6439 7.78972 2.11445 7.21156 1.69562C6.56296 1.22586 5.82838 0.987634 5.02844 0.987634Z" fill="#C2C2C2"/>
</svg>
