<svg height="512pt" viewBox="-16 0 512 512.00028" width="512pt" xmlns="http://www.w3.org/2000/svg"><g fill-rule="evenodd"><path d="m420.558594 225.46875-27.25 13.972656-12.476563 6.375c-2.890625 1.5-4.054687 5.070313-2.582031 7.933594l2.582031 5.042969 14.773438 28.792969 2.578125 5.015624c1.476562 2.890626 5.046875 4.023438 7.941406 2.546876l13.980469-7.167969 27.25-13.941407 13.609375-6.972656c2.863281-1.472656 4.027344-5.042968 2.550781-7.933594l-19.933594-38.847656c-1.472656-2.863281-5.046875-4.023437-7.9375-2.550781zm0 0" fill="#f78411"/><path d="m199.015625 186.820312-49.425781 31.054688c-1.074219 1.25-8.789063 9.039062-10.148438 10.316406-3.234375 3.089844-7.175781 6.148438-11.710937 8.613282 12.617187 65.570312 128.792969 56.871093 134.914062 1.925781-4.394531-3.003907-8.050781-6.460938-10.773437-9.746094l-6.949219-8.472656zm0 0" fill="#fcc368"/><path d="m71.160156 431.84375v57.808594c0 8.132812 6.4375 14.789062 14.289063 14.789062h215.84375c7.855469 0 14.265625-6.65625 14.265625-14.789062v-75.261719c19.421875-22.386719 50.898437-65.457031 28.410156-136.722656-10.292969-21.199219-26.058594-29.273438-52.542969-30.691407-.621093-.054687-4.5625-.167968-5.214843-.195312-9.019532-.285156-17.101563-3.65625-23.566407-8.050781-24.242187 40.664062-109.226562 41.003906-134.914062-1.925781-5.53125 3.003906-11.9375 5.128906-18.972657 5.355468-.621093.058594-4.59375.171875-5.214843.199219-32.609375 1.730469-50.5 17.425781-60.652344 49.390625l-23.367187 73.675781 51.636718 27.03125zm0 0" fill="#64b0d9"/><path d="m150.527344 310.507812c-49.140625-16.917968-83.027344 6.433594-89.234375 51.375-1.304688 18.304688-.425781 37.121094 4.847656 56.984376 15.3125 55.710937 95.730469 77.585937 138.519531 23.007812 14.429688-18.417969 28.550782-31.992188 50.984375-30.460938 23.617188 1.585938 38.816407-11.703124 38.023438-28.675781-.113281-2.636719-.679688-4.789062-4.648438-4.109375-15.738281 2.605469-28.300781-17.769531-12.507812-30.039062l-22.597657 11.5625c-3.347656 1.699218-7.570312.226562-9.386718-3.285156l-8.164063-15.953126c-1.816406-3.542968-.570312-7.824218 2.804688-9.550781l22.855469-11.703125c-5.671876-25.984375-36.523438-34.515625-58.269532-16.121094-17.554687 14.820313-34.425781 12.75-53.226562 6.96875zm0 0" fill="#f78411"/><path d="m380.832031 258.792969-36.863281 18.875-81.945312 41.992187-22.855469 11.703125c-3.375 1.730469-4.625 6.007813-2.808594 9.550781l8.167969 15.953126c1.8125 3.511718 6.039062 4.984374 9.382812 3.285156l22.601563-11.558594c40.605469-20.828125 78.261719-40.097656 119.09375-61.011719zm0 0" fill="#b5722f"/><path d="m204.347656 360.382812c-8.59375-12.980468-29.179687-14.539062-39.074218-7.992187-9.898438 6.515625-11.003907 11.390625-12.277344 18.84375-.511719-.058594-1.050782-.058594-1.617188-.058594h-3.375c17.15625 0 23.28125 18.335938 14.71875 29.699219.539063-.707031 1.019532-1.445312 1.472656-2.210938 9.21875 6.746094 22.035157 7.425782 32.15625.765626 12.984376-8.585938 16.558594-26.042969 7.996094-39.046876zm0 0" fill="#b5722f"/><path d="m61.292969 361.882812c-14.207031-4.136718-20.671875-5.667968-33.660157-.878906-3.003906 1.132813-5.726562 2.636719-8.109374 4.421875-16.503907 12.441407-17.550782 39.046875 7.089843 50.097657 7.089844 3.175781 21.945313 3.824218 39.527344 3.34375 15.226563-.394532 32.496094-1.613282 48.601563-2.746094 12.960937-.878906 39.101562-3.515625 47.980468-15.246094 8.5625-11.363281 2.4375-29.699219-14.71875-29.699219h-10.664062c-6.917969 0-11.992188-2.378906-8.050782-10.878906 5.644532-12.15625-11.882812-17.285156-22.089843-5.953125-8.050781 8.925781-5.8125 17.882812-17.863281 15.078125-12.304688-2.835937-21.097657-5.5-28.042969-7.539063zm0 0" fill="#ffdda6"/><path d="m109.015625 117.734375h-13.613281c-4.988282 0-9.101563 4.082031-9.101563 9.097656v9.011719c0 11.472656 12.734375 23.207031 24.101563 23.066406l17.328125-25.078125zm0 0" fill="#eda93b"/><path d="m311.699219 126.832031c0-5.015625-4.109375-9.097656-9.101563-9.097656h-13.582031l-20.585937 20.574219 19.167968 20.601562c11.371094.140625 24.101563-11.59375 24.101563-23.066406zm0 0" fill="#eda93b"/><path d="m289.015625 97.589844-85.605469-40.183594-94.394531 39.332031v49.503907c0 4.109374.480469 8.359374 1.386719 12.667968 4.511718 20.9375 19.425781 43.351563 39.1875 58.964844 8.28125 6.519531 17.410156 11.875 26.996094 15.417969 16.332031 6.0625 28.640624 6.035156 44.972656-.058594 8.195312-3.03125 16.078125-7.425781 23.363281-12.722656 21.496094-15.671875 37.914063-39.445313 42.675781-61.605469.9375-4.304688 1.417969-8.558594 1.417969-12.664062zm0 0" fill="#ffdda6"/><path d="m243.050781 14.875c-27.644531 14.707031-62.15625-6.714844-91.105469 6.007812-28.382812 12.464844-42.929687 39.101563-42.929687 75.855469 82.996094-30.746093 110.671875 39.074219 180 .851563 2.921875-1.617188 5.925781-3.429688 8.988281-5.441406 52.347656-38 1.050782-107.054688-54.953125-77.273438zm0 0" fill="#808080"/><path d="m337.957031 332.042969-20.015625 20.148437c-7.234375 13.996094-13.441406 67.527344 9.042969 72.597656 31.730469 7.167969 54.019531-15.667968 45.257813-50.464843l-8.792969-34.882813zm0 0" fill="#ffdda6"/><path d="m359.59375 306.03125c-3.542969-3.710938-9.273438-4.816406-13.980469-2.296875l-33.203125 17.625c-4.421875 2.355469-6.71875 7.226563-6.070312 11.933594.171875 1.332031.570312 2.632812 1.25 3.851562l4.253906 8.019531c1.53125 2.863282 3.628906 5.242188 6.09375 7.027344 6.238281 4.535156 14.773438 5.410156 22.003906 1.585938l17.128906-9.09375c2.523438-1.359375 4.679688-3.144532 6.378907-5.242188 5.078125-6.292968 6.238281-15.273437 2.242187-22.839844l-4.285156-8.019531c-.480469-.964843-1.101562-1.8125-1.8125-2.550781zm0 0" fill="#fcc368"/><path d="m372.242188 374.324219-8.792969-34.882813c-1.699219 2.097656-3.855469 3.882813-6.378907 5.242188l-1.359374.707031 3.855468 15.359375c8.648438 34.285156-12.902344 56.984375-43.894531 50.75-.457031-.085938-.90625-.171875-1.363281-.285156 0 0 0 0-.027344 0 .398438 1.105468.824219 2.183594 1.277344 3.175781 2.464844 5.382813 6.179687 9.207031 11.425781 10.398437 31.730469 7.171876 54.019531-15.667968 45.257813-50.464843zm0 0" fill="#fcc368"/><path d="m196.007812 424.109375c-35.839843 45.761719-98.195312 37.773437-126.40625 1.160156-.910156-1.160156-1.789062-2.378906-2.640624-3.625 1.164062 3.570313 2.554687 6.972657 4.199218 10.199219 23.222656 45.820312 94.226563 60.132812 133.5 10.03125 14.429688-18.417969 28.550782-31.992188 50.984375-30.460938 23.617188 1.585938 38.816407-11.703124 38.023438-28.675781-.113281-2.636719-.679688-4.789062-4.648438-4.109375-2.441406.394532-4.792969.253906-7.003906-.339844-5.503906 10.003907-18.09375 16.492188-35.019531 15.355469-22.433594-1.527343-36.554688 12.046875-50.988282 30.464844zm0 0" fill="#f74311"/><path d="m188.324219 386.707031c-6.519531 4.304688-14.148438 5.550781-21.238281 4.078125-.195313-.027344-.394532-.085937-.566407-.113281-.253906 3.570313-1.5 7.140625-3.796875 10.203125.535156-.710938 1.019532-1.445312 1.472656-2.210938 9.214844 6.742188 22.03125 7.421876 32.15625.765626 12.984376-8.585938 16.558594-26.042969 7.996094-39.050782-1.25-1.898437-2.75-3.539062-4.453125-4.957031 3.316407 11.535156-1.019531 24.339844-11.570312 31.285156zm0 0" fill="#733e08"/><path d="m158.636719 385.941406c-8.875 11.757813-34.992188 14.367188-47.976563 15.273438-15.257812 1.046875-31.5625 2.179687-46.164062 2.664062-.539063 0-1.050782.027344-1.558594.027344-.285156.027344-.570312.027344-.851562.027344-17.609376.480468-32.441407-.140625-39.558594-3.34375-6.972656-3.117188-11.878906-7.480469-14.96875-12.441406-.285156 10.542968 5.5 21.308593 19.054687 27.375 7.085938 3.171874 21.945313 3.824218 39.527344 3.34375.652344 0 1.273437-.027344 1.898437-.058594 14.746094-.453125 31.277344-1.613282 46.703126-2.691406 12.957031-.878907 39.101562-3.515626 47.976562-15.246094 2.296875-3.058594 3.546875-6.628906 3.800781-10.199219.3125-4.816406-1.164062-9.664063-4.253906-13.320313-.480469 3.035157-1.671875 5.980469-3.628906 8.589844zm0 0" fill="#fcc368"/><path d="m440.066406 259.871094-27.21875 13.941406-14.011718 7.167969c-2.863282 1.476562-6.433594.34375-7.910157-2.546875l4.679688 9.152344 2.582031 5.015624c1.472656 2.890626 5.046875 4.023438 7.9375 2.550782l13.980469-7.171875 27.25-13.941407 13.609375-6.96875c2.863281-1.472656 4.027344-5.046874 2.554687-7.933593l-7.261719-14.113281c1.445313 2.863281.285157 6.402343-2.578124 7.878906zm0 0" fill="#f74311"/><path d="m343.96875 277.667969c-10.292969-21.199219-26.058594-29.273438-52.542969-30.691407-.621093-.054687-4.5625-.167968-5.214843-.195312-9.019532-.285156-17.101563-3.65625-23.566407-8.050781-4.167969 6.972656-10.121093 12.753906-17.238281 17.34375.226562.171875.453125.3125.679688.453125 6.269531 4.023437 13.894531 7 22.375 7.28125.652343.027344 4.59375.144531 5.214843.171875 23.734375 1.273437 38.847657 7.90625 49.140625 24.511719zm0 0" fill="#4a83c9"/><path d="m176.585938 233.292969c-9.585938-3.542969-18.714844-8.898438-26.996094-15.417969-1.078125 1.25-8.789063 9.070312-10.148438 10.316406l-1.53125 1.417969c8.050782 8.8125 23.648438 15.273437 34.875 18.8125 19.253906 6.066406 33.714844 6.039063 52.96875-.027344 4.960938-1.585937 7.429688.964844 11.9375 3.710938 2.894532 1.757812 2.523438 1.476562 7.574219 4.054687.054687-.027344.082031-.058594.140625-.085937 7.117188-4.589844 13.070312-10.371094 17.238281-17.34375-2.324219-1.585938-4.421875-3.285157-6.320312-5.042969-1.675781-1.558594-3.148438-3.144531-4.453125-4.703125l-6.949219-8.472656c-7.285156 5.296875-15.167969 9.691406-23.363281 12.722656-16.332032 6.09375-28.640625 6.121094-44.972656.058594zm0 0" fill="#eda93b"/><path d="m289.015625 97.589844c-6.578125 3.625-12.757813 6.261718-18.683594 8.132812v32.953125c0 .566407 0 1.105469-.027343 1.671875-.113282 3.601563-.570313 7.253906-1.390626 10.996094-4.453124 20.742188-19.082031 42.871094-38.5625 58.488281-1.335937 1.074219-2.722656 2.09375-4.113281 3.117188-7.289062 5.296875-15.140625 9.6875-23.367187 12.75-13.863282 5.15625-24.808594 5.949219-37.824219 2.351562 3.742187 2.011719 7.597656 3.796875 11.539063 5.242188 16.335937 6.0625 28.640624 6.035156 44.972656-.058594 8.195312-3.03125 16.078125-7.421875 23.367187-12.722656 21.492188-15.667969 37.910157-39.445313 42.675781-61.601563.933594-4.308594 1.417969-8.558594 1.417969-12.667968v-48.652344zm0 0" fill="#fcc368"/><path d="m298.003906 92.148438c49.253906-35.761719 6.75-99.007813-45.113281-81.554688 39.1875 3.542969 63.460937 51.515625 25.691406 82.089844-.9375.765625-1.902343 1.503906-2.921875 2.242187-3.089844 2.011719-6.097656 3.824219-9.015625 5.441407-7.601562 4.191406-14.71875 7.082031-21.464843 8.953124 7.910156.226563 16.1875-.792968 25.148437-3.601562 5.925781-1.867188 12.109375-4.503906 18.6875-8.132812 2.921875-1.613282 5.925781-3.425782 8.988281-5.4375zm0 0" fill="#666"/><path d="m306.796875 335.273438c.195313.652343.453125 1.277343.792969 1.871093l4.253906 8.019531c1.53125 2.859376 3.628906 5.242188 6.09375 7.027344 6.238281 4.53125 14.773438 5.410156 22.003906 1.585938l17.128906-9.097656c2.523438-1.359376 4.679688-3.144532 6.378907-5.242188 5.078125-6.289062 6.238281-15.269531 2.242187-22.835938l-3.941406-7.425781c7.824219 20.96875-45.371094 44.175781-54.953125 26.097657zm0 0" fill="#eda93b"/><path d="m348.28125 293.847656-107.839844 55.027344.085938.171875 4 7.820313c1.8125 3.515624 6.039062 4.988281 9.382812 3.285156l22.601563-11.558594 29.828125-15.300781c-.652344-4.707031 1.644531-9.578125 6.070312-11.933594l33.203125-17.625c.113281-.054687.226563-.109375.339844-.167969 1.277344-.625 2.609375-.992187 3.941406-1.132812 3.574219-.339844 7.175781.960937 9.699219 3.597656l36.011719-18.445312-4.679688-9.152344-2.578125-5.046875zm0 0" fill="#733e08"/><path d="m381.9375 146.867188c-5.046875-2.496094-12.164062-3.117188-20.105469-1.277344-15.226562 3.542968-27.558593 14.761718-27.558593 25.105468s12.332031 15.867188 27.558593 12.355469c15.230469-3.542969 27.5625-14.761719 27.5625-25.105469 0-4.960937-2.835937-8.8125-7.457031-11.078124zm0 0" fill="#a2d6f2"/><path d="m464.253906 115.949219c-4.875-1.839844-11.3125-2.152344-18.375-.507813-15.226562 3.511719-27.558594 14.761719-27.558594 25.105469s12.332032 15.867187 27.558594 12.324219c15.230469-3.511719 27.5625-14.761719 27.5625-25.105469 0-5.523437-3.542968-9.691406-9.1875-11.816406zm0 0" fill="#a2d6f2"/><path d="m381.9375 146.867188c-5.046875-2.496094-12.164062-3.117188-20.105469-1.277344-.421875.113281-.847656.199218-1.246093.3125.792968.28125 1.558593.59375 2.269531.964844 4.621093 2.265624 7.457031 6.117187 7.457031 11.078124 0 10.03125-11.65625 20.941407-26.285156 24.792969 4.789062 1.644531 11.027344 1.871094 17.804687.3125 15.226563-3.542969 27.5625-14.761719 27.5625-25.105469 0-4.960937-2.835937-8.8125-7.457031-11.078124zm0 0" fill="#64b0d9"/><path d="m473.441406 127.765625c0-5.523437-3.542968-9.691406-9.1875-11.816406-4.875-1.839844-11.3125-2.152344-18.375-.507813-.421875.082032-.847656.195313-1.273437.3125.199219.054688.394531.140625.59375.195313 5.613281 2.125 9.160156 6.292969 9.160156 11.816406 0 10.058594-11.65625 20.96875-26.285156 24.792969 4.789062 1.671875 11 1.902344 17.804687.3125 15.226563-3.511719 27.5625-14.761719 27.5625-25.105469zm0 0" fill="#64b0d9"/></g><path d="m450.308594 216.835938c-.003906-.003907-.003906-.007813-.007813-.007813-3.382812-6.570313-11.496093-9.183594-18.101562-5.816406l-8.320313 4.261719-3.832031-7.597657c-1.878906-3.726562-6.421875-5.222656-10.148437-3.347656-3.730469 1.878906-5.226563 6.425781-3.347657 10.148437l3.878907 7.6875-13.792969 7.066407-3.804688-7.578125c-1.875-3.726563-6.417969-5.234375-10.144531-3.359375-3.730469 1.875-5.234375 6.414062-3.363281 10.144531l3.859375 7.683594-5.835938 2.988281c-6.007812 3.121094-8.691406 10.152344-6.554687 16.339844l-23.734375 12.15625c-11.210938-18.167969-28.140625-26.703125-55.132813-28.167969-.550781-.039062-1.539062-.078125-4.144531-.164062-.585938-.019532-1.058594-.03125-1.332031-.042969-12.382813-.394531-22.96875-8.03125-28.734375-15.035157l-2.070313-2.523437c18.109375-15.109375 32.183594-35.574219 38-55.886719 5.707031-1.308594 11.332031-4.472656 16.050781-9.132812 6.078126-6 9.5625-13.585938 9.5625-20.808594v-9.011719c0-9.183593-7.472656-16.652343-16.660156-16.652343h-6.027344v-8.253907c1.835938-1.089843 3.683594-2.222656 5.570313-3.453125.101563-.066406.203125-.136718.304687-.210937 29.273438-21.25 29.621094-51.183594 16.976563-71.421875-14.246094-22.804688-46.273437-36.53125-79.917969-18.636719-12.085937 6.429687-26.539062 4.648437-41.84375 2.765625-16.105468-1.984375-32.761718-4.035156-48.753906 2.992188-15.578125 6.84375-27.578125 17.625-35.664062 32.046874-7.820313 13.945313-11.785157 31.015626-11.785157 50.730469v13.441407h-6.054687c-9.183594 0-16.65625 7.46875-16.65625 16.652343v9.011719c0 7.222656 3.484375 14.808594 9.5625 20.808594 4.722656 4.664062 10.355468 7.832031 16.070312 9.140625 5.40625 18.875 17.933594 37.871093 34.207032 52.585937-1.933594 1.953125-3.78125 3.800782-4.371094 4.351563-4.472656 4.277343-13.757813 11.507812-25.691406 11.878906-.148438.003906-.226563.007813-.375.019531-.523438.035156-2.195313.089844-3.421876.128906-.726562.023438-1.316406.042969-1.585937.054688-35.238281 1.867188-56.042969 18.722656-67.453125 54.648438l-22.714844 71.535156c-7.796875 6.707031-12.609375 16.273437-12.9531248 26.714844-.4921872 14.921874 8.2968748 27.894531 23.4960938 34.703124 6.710937 3.015626 17.882813 4.140626 32.726563 4.140626 1.429687 0 2.90625-.015626 4.40625-.035157.867187 2.421875 1.859374 4.789063 2.957031 7.09375v56.039063c0 12.324218 9.800781 22.347656 21.847656 22.347656h215.84375c12.03125 0 21.816406-10.023438 21.816406-22.347656v-58.117188c.765625.257813 1.507813.46875 2.207031.625 4.429688 1 8.769532 1.492188 12.960938 1.492188 12.347656 0 23.351562-4.277344 31.292969-12.414063 11.253906-11.527343 14.898437-29.300781 9.996093-48.761719l-7.953124-31.5625c1.160156-1.949218 2.097656-4.050781 2.785156-6.28125 2.226562-7.25 1.503906-14.914062-2.035156-21.578124-.003907-.003907-.007813-.007813-.007813-.011719l-2.121094-3.972657 22.21875-11.382812c2.558594 3.617188 6.707031 5.664062 10.992188 5.664062 2.0625 0 4.160156-.476562 6.121093-1.476562l7.214844-3.695312 3.832032 7.597656c1.328124 2.636718 3.992187 4.15625 6.753906 4.15625 1.144531 0 2.304687-.261719 3.398437-.808594 3.726563-1.878906 5.222657-6.425781 3.34375-10.152344l-3.875-7.679687 13.792969-7.0625 3.835938 7.605469c1.332031 2.636718 3.992187 4.15625 6.753906 4.15625 1.144531 0 2.304687-.261719 3.398437-.8125 3.726563-1.878907 5.222657-6.421876 3.34375-10.148438l-3.878906-7.691406 6.9375-3.550782c6.578125-3.382812 9.191406-11.496093 5.820313-18.105468zm-351.378906-70.9375c-3.175782-3.132813-5.070313-6.894532-5.070313-10.054688v-9.011719c0-.835937.707031-1.539062 1.546875-1.539062h6.050781v20.949219c0 .609374.035157 1.226562.050781 1.839843-.894531-.648437-1.761718-1.375-2.578124-2.183593zm203.667968-20.605469c.839844 0 1.546875.703125 1.546875 1.539062v9.011719c0 3.164062-1.894531 6.921875-5.070312 10.058594-.804688.796875-1.667969 1.515625-2.550781 2.15625.015624-.605469.050781-1.214844.050781-1.816406v-20.949219zm-147.613281-97.496094c12.191406-5.355469 26.101563-3.644531 40.832031-1.828125 16.953125 2.085938 34.488282 4.246094 50.785156-4.421875 25.472657-13.546875 49.46875-3.5625 60.003907 13.300781 8.253906 13.210938 9.8125 34.496094-12.894531 51.078125-36.828126 24.007813-60.558594 15.929688-88.039063 6.574219-16.0625-5.46875-33.441406-11.382812-54.566406-11.382812-10.359375 0-21.621094 1.421874-34.070313 5.019531 1.960938-21.75 10.75-46.390625 37.949219-58.339844zm-37.183594 129.574219c-.003906-.03125-.011719-.0625-.015625-.09375-.789062-3.742188-1.214844-7.441406-1.214844-11.035156v-44.128907c35.796876-11.777343 60.40625-3.414062 84.234376 4.695313 14.644531 4.984375 29.542968 10.058594 46.367187 10.058594 10.535156 0 21.832031-2.011719 34.285156-7.253907v36.628907c0 3.484374-.40625 7.066406-1.148437 10.695312-.089844.335938-.164063.679688-.207032 1.03125-6.105468 27.472656-32.082031 57.335938-61.183593 68.1875-14.675781 5.472656-25.0625 5.488281-39.703125.050781-29.367188-10.902343-55.550782-41.148437-61.414063-68.835937zm-88.097656 251.257812c-9.550781-4.28125-14.867187-11.722656-14.578125-20.417968.292969-8.921876 6.230469-16.816407 15.128906-20.121094 11.203125-4.140625 15.757813-2.804688 30.84375 1.621094 6.742188 1.972656 15.132813 4.433593 26.523438 7.070312 13.734375 3.195312 18.117187-5.324219 20.734375-10.414062 1.183593-2.304688 2.40625-4.691407 4.460937-6.964844 3.003906-3.335938 6.285156-3.773438 7.554688-3.804688 1.292968-.035156 2.082031.257813 2.421875.449219-.035157.222656-.136719.585937-.359375 1.070313-3.414063 7.363281-1.96875 12.292968-.15625 15.128906 2.746094 4.304687 7.816406 6.488281 15.0625 6.488281h10.664062c5.847656 0 8.574219 3.007813 9.832032 5.527344 1.921874 3.851562 1.46875 8.589843-1.140626 12.054687-2.796874 3.695313-12.03125 10.203125-42.476562 12.265625l-2.351562.164063c-29.9375 2.078125-70.941407 4.925781-82.164063-.117188zm48.09375 19.601563c-.363281-.730469-.71875-1.464844-1.054687-2.210938 10.875-.496093 22.988281-1.285156 36.171874-2.199219l2.339844-.164062c25.316406-1.714844 42.007813-6.707031 50.824219-15.230469 4.660156 2.101563 9.6875 3.183594 14.734375 3.183594 6.859375 0 13.738281-1.953125 19.703125-5.878906 16.417969-10.851563 20.96875-33.058594 10.132813-49.519531-10.941407-16.523438-36.046876-19.046876-49.535157-10.132813-9.042969 5.957031-12.421875 11.386719-14.195312 17.542969h-9.578125c-.472656 0-.886719-.015625-1.246094-.039063.019531-.039062.035156-.078125.054688-.117187 3.597656-7.785156 1.65625-15.628906-4.941407-19.980469-7.523437-4.957031-20.664062-4.144531-29.617187 5.800781-3.371094 3.734375-5.285156 7.457032-6.679688 10.175782-.511718 1-1.183594 2.304687-1.625 2.925781-.367187 0-1.070312-.054688-2.246094-.328125-8.578124-1.984375-15.429687-3.875-21.140624-5.527344 3.308593-15.558594 10.5-27.65625 21.011718-35.210938 3.386719-2.4375 4.160156-7.15625 1.726563-10.546874-2.441407-3.386719-7.160157-4.160157-10.546875-1.726563-13.410156 9.636719-22.566406 24.519531-26.769532 43.359375-8.160156-2.042969-14.921874-2.71875-23.582031-.574219l18.351563-57.792969c9.472656-29.820312 25.074218-42.609374 53.800781-44.128906.183594-.011718.699219-.027344 1.332031-.046875 2.242188-.074219 3.324219-.113281 3.933594-.152343 5.871094-.203126 11.207031-1.527344 15.945312-3.382813 11.273438 14.636719 29.957032 24.980469 52.351563 28.757813.425781.074218.851563.105468 1.269531.105468 3.617188 0 6.820313-2.609375 7.441406-6.296875.695313-4.117187-2.078124-8.015625-6.195312-8.710937-17.695312-2.984375-32.382812-10.628906-41.472656-21.339844 2.46875-1.832031 4.53125-3.628906 6.109375-5.136719.734375-.691406 3.363281-3.3125 5.855469-5.84375 7.40625 5.191407 15.316406 9.476563 23.496093 12.511719 9.003907 3.34375 17.019531 5.015625 25.039063 5.015625 8.0625 0 16.128906-1.691406 25.199218-5.074219 6.632813-2.472656 13.082032-5.773437 19.238282-9.703125l2.601562 3.175781c1.15625 1.402344 3.269532 3.777344 6.246094 6.421876-8.339844 9.804687-22.035156 16.921874-38.679688 19.871093-4.109374.726563-6.851562 4.648438-6.121093 8.757813.648437 3.664062 3.835937 6.238281 7.433593 6.238281.4375 0 .878907-.035156 1.328126-.117187 21.054687-3.730469 38.003906-12.914063 48.574218-26.148438 5.867188 2.988281 12.933594 5.257812 21.0625 5.515625.210938.011719.746094.027344 1.40625.050781 1 .03125 3.082032.101563 3.457032.125.09375.007813.1875.015625.28125.019532 21.691406 1.160156 33.976562 6.742187 42.542968 19.992187l-67.242187 34.445313c-4.566407-9.734376-12.644531-17.035157-23.136719-20.589844-14.839844-5.035156-31.40625-1.519532-44.3125 9.394531-14.277344 12.054687-27.695312 11.175781-46.011719 5.554687-14.042969-4.808593-27.316406-6.6875-39.460937-5.578124-4.15625.378906-7.21875 4.054687-6.839844 8.210937.382812 4.15625 4.078125 7.210937 8.214844 6.839844 10.039062-.917969 21.238281.71875 33.292968 4.863281.078126.027344.15625.050781.234376.074219 19.167968 5.894531 39.746093 8.957031 60.324218-8.421875 8.824219-7.464844 19.929688-9.941406 29.703125-6.625 6.613281 2.242187 11.695313 6.921875 14.515625 13.183594l-17.128906 8.773437c-7.070312 3.621094-9.800781 12.46875-6.085938 19.714844l8.179688 15.980469c2.640625 5.113281 7.824219 8.078124 13.140625 8.078124 2.167969 0 4.355469-.492187 6.40625-1.535156l4.480469-2.292968c.246094 2.3125.835937 4.625 1.824218 6.882812 3.976563 9.085938 12.773438 14.820312 22.320313 14.9375-.511719 3.886719-2.273437 7.378906-5.195313 10.238281-5.472656 5.363281-14.222656 7.9375-24.632812 7.234375-27.453125-1.878906-44.039062 16.226563-57.445312 33.335938-17.644532 22.503906-44.484376 32.660156-71.8125 27.171875-22.011719-4.421875-39.914063-17.835938-49.074219-36.097657-.007813-.023437-.015625-.039062-.027344-.058593zm93.566406-50.710938c-2.222656-4.453125-5.597656-7.980469-9.738281-10.371093 1.011719-2.957032 2.878906-5.203126 7.816406-8.457032 6.632813-4.386718 22.414063-3.484375 28.59375 5.84375 6.25 9.5 3.625 22.324219-5.839844 28.582032-5.621093 3.695312-12.636718 4.347656-18.734374 2.039062 1.304687-5.875.644531-12.136719-2.097657-17.636719zm136.636719 38.414063v73.71875c0 3.988281-3.007812 7.234375-6.707031 7.234375h-215.84375c-3.648438 0-6.734375-3.3125-6.734375-7.234375v-34.503906c11.757812 11.949218 27.382812 20.472656 45.207031 24.054687 5.929687 1.1875 11.839844 1.773437 17.667969 1.773437 26.644531 0 51.589844-12.210937 69.019531-34.441406 14.421875-18.40625 26.324219-28.820312 44.527344-27.582031 14.773437.988281 27.640625-3.097656 36.234375-11.515625 6.792968-6.65625 10.289062-15.554688 9.84375-25.023438-.070313-1.683593-.261719-6.15625-4.011719-9.179687-2.492187-2.011719-5.671875-2.703125-9.421875-2.0625-4.75.792969-8.753906-2.304687-10.269531-5.765625-.953125-2.175781-1.746094-6.386719 3.234375-10.511719l21.785156-11.160156 2.636719 4.972656c1.070312 2.011719 2.355469 3.828125 3.804687 5.464844-5.101562 15.0625-8.210937 43.949219-.972656 61.761719zm6.25-82.355469c-.855469-.894531-1.144531-3.984375 1.703125-5.542969l33.199219-17.621094c2.597656-1.738281 4.894531.40625 5.589844 1.726563l4.273437 8.003906c1.644531 3.09375 1.976563 6.664063.933594 10.054688-1.039063 3.390625-3.320313 6.160156-6.425781 7.808593l-17.121094 9.09375c-4.132813 2.195313-8.914063 1.957032-12.714844-.191406-2.753906-1.832031-4.464844-3.964844-5.167969-5.285156zm44.503906 77.105469c-6.980468 7.152344-17.671875 9.542968-30.105468 6.734375-.9375-.210938-3.785157-.851563-6.25-6.234375-5.558594-12.128906-3.773438-35.457032-.242188-48.621094 2.617188.777344 5.34375 1.191406 8.09375 1.191406 4.480469 0 9.019531-1.0625 13.238281-3.300781l15.402344-8.179687 6.019531 23.894531c3.589844 14.25 1.347656 26.832031-6.15625 34.515625zm1.558594-113.511719c-1.117188-.605469-2.304688-1.105469-3.546875-1.488281-4.933594-1.519532-10.148437-1.03125-14.695313 1.378906l-33.195312 17.621094c-4.539062 2.402344-7.863281 6.441406-9.371094 11.371094-.253906.839843-.429687 1.691406-.570312 2.542968l-47.839844 24.511719-7.851562-15.339844 134.316406-68.804687 7.871094 15.34375zm56.539062-16.003906c-.050781.023437-.101562.042969-.148437.066406-.0625.03125-.121094.070313-.183594.105469l-12.367187 6.332031-18.410156-35.878906 10.761718-5.515625c.066406-.027344.132813-.050782.199219-.082032.101563-.050781.195313-.113281.292969-.167968l26.878906-13.769532c.027344-.015624.058594-.023437.085938-.039062.042968-.019531.082031-.046875.125-.070312l13.535156-6.933594 18.414062 35.890625zm0 0"/><path d="m147.484375 143.957031c1.441406 1.285157 3.238281 1.914063 5.023437 1.914063 2.078126 0 4.148438-.855469 5.640626-2.53125.585937-.59375 3.347656-1.695313 7.386718-1.695313h.050782c4.015624.007813 6.746093 1.109375 7.308593 1.6875 2.777344 3.117188 7.554688 3.394531 10.671875.621094 3.117188-2.773437 3.394532-7.550781.621094-10.667969-5.421875-6.09375-14.847656-6.753906-18.652344-6.753906h-.003906c-3.804688 0-13.246094.660156-18.667969 6.753906-2.773437 3.117188-2.496093 7.898438.621094 10.671875zm0 0"/><path d="m213.484375 143.972656c1.441406 1.273438 3.226563 1.898438 5.007813 1.898438 2.085937 0 4.164062-.859375 5.65625-2.546875.582031-.589844 3.332031-1.679688 7.347656-1.679688h.085937c3.992188.015625 6.707031 1.109375 7.269531 1.6875 2.777344 3.117188 7.554688 3.394531 10.671876.621094 3.117187-2.773437 3.394531-7.550781.621093-10.667969-5.414062-6.085937-14.808593-6.753906-18.65625-6.753906-.015625 0-.03125 0-.050781 0-3.796875.007812-13.214844.679688-18.601562 6.769531-2.765626 3.128907-2.476563 7.910157.648437 10.671875zm0 0"/><path d="m334.125 185.875c4.808594 3.824219 11.351562 5.804688 18.757812 5.804688 3.402344 0 6.984376-.417969 10.664063-1.269532 19.042969-4.429687 33.40625-18.386718 33.40625-32.464844 0-5.988281-2.632813-11.378906-7.410156-15.179687-.015625-.011719-.03125-.019531-.046875-.035156v-63.203125c.027344-.003906.054687-.011719.082031-.015625l67.121094-13.996094v41.324219c-3.945313-.175782-8.164063.226562-12.519531 1.238281-18.738282 4.324219-33.417969 18.585937-33.417969 32.46875 0 5.992187 2.636719 11.386719 7.421875 15.1875 4.800781 3.808594 11.328125 5.78125 18.703125 5.78125 3.410156 0 7.003906-.421875 10.691406-1.28125 18.742187-4.324219 33.421875-18.585937 33.421875-32.46875 0-5.992187-2.636719-11.386719-7.425781-15.1875-.558594-.445313-1.15625-.855469-1.761719-1.25v-47.742187c0-4.222657-1.9375-8.320313-5.183594-10.960938-2.863281-2.332031-6.507812-3.253906-10.011718-2.53125l-70.113282 14.621094c-7.25 1.5-12.121094 6.921875-12.121094 13.492187v58.921875c-4.433593-.40625-9.25-.054687-14.246093 1.097656-.007813.003907-.011719.003907-.015625.003907-19.042969 4.429687-33.40625 18.390625-33.40625 32.46875 0 5.984375 2.632812 11.375 7.410156 15.175781zm130.050781-61.460938c1.515625 1.203126 1.710938 2.421876 1.710938 3.351563 0 6.011719-9.28125 14.878906-21.71875 17.746094-8.308594 1.933593-14.125.339843-16.582031-1.613281-1.515626-1.203126-1.710938-2.421876-1.710938-3.351563 0-6.011719 9.28125-14.878906 21.703125-17.746094h.015625c2.65625-.621093 5.058594-.875 7.179688-.875 4.503906 0 7.730468 1.160157 9.402343 2.488281zm-100.640625 28.539063c8.316406-1.917969 14.136719-.316406 16.59375 1.640625 1.515625 1.203125 1.710938 2.421875 1.710938 3.351562 0 5.992188-9.289063 14.855469-21.707032 17.742188-8.316406 1.917969-14.136718.316406-16.597656-1.640625-1.511718-1.203125-1.707031-2.421875-1.707031-3.351563 0-5.988281 9.285156-14.847656 21.707031-17.742187zm0 0"/></svg>