<svg width="77" height="77" viewBox="0 0 77 77" fill="none" xmlns="http://www.w3.org/2000/svg">
<rect width="77" height="77" rx="38.5" fill="#7F68DE"/>
<rect x="17.6111" y="21.2778" width="37.8889" height="38.5" rx="10" fill="#FEF0F9"/>
<rect x="20.0555" y="20.0555" width="37.8889" height="38.5" rx="10" fill="white"/>
<path d="M46.3165 51.7393C46.9476 51.3172 47.1167 50.4633 46.6946 49.8322C43.5101 45.0747 38.5958 45.0747 31.7937 45.0747C31.0347 45.0747 30.4187 45.6907 30.4187 46.4497C30.4187 47.2087 31.0347 47.8247 31.7937 47.8247C38.7141 47.8247 42.142 47.9746 44.4093 51.3626C44.8342 51.9951 45.6881 52.1587 46.3165 51.7393Z" fill="#6048C5"/>
<path d="M46.975 38.8941C45.0264 38.8941 43.4468 37.3145 43.4468 35.3659C43.4468 33.4173 45.0264 31.8376 46.975 31.8376C48.9236 31.8376 50.5033 33.4173 50.5033 35.3659C50.5033 37.3145 48.9236 38.8941 46.975 38.8941Z" fill="#6048C5"/>
<path d="M44.9799 34.7526C45.2246 34.9836 45.6866 34.8998 45.9822 34.5711C46.2875 34.2439 46.3397 33.7791 46.0826 33.555C45.8282 33.3212 45.3772 33.3982 45.072 33.7269C44.7654 34.0638 44.7255 34.5203 44.9799 34.7526Z" fill="#E4F9FF"/>
<path d="M31.0196 38.8941C29.071 38.8941 27.4914 37.3145 27.4914 35.3659C27.4914 33.4173 29.071 31.8376 31.0196 31.8376C32.9682 31.8376 34.5479 33.4173 34.5479 35.3659C34.5479 37.3145 32.9682 38.8941 31.0196 38.8941Z" fill="#6048C5"/>
<path d="M29.0244 34.7526C29.2692 34.9836 29.7312 34.8998 30.0268 34.5711C30.3321 34.2439 30.3843 33.7791 30.1272 33.555C29.8728 33.3212 29.4218 33.3982 29.1166 33.7269C28.8099 34.0638 28.7701 34.5203 29.0244 34.7526Z" fill="#E4F9FF"/>
</svg>
