<svg id="Capa_1" enable-background="new 0 0 512 512" height="512" viewBox="0 0 512 512" width="512" xmlns="http://www.w3.org/2000/svg"><g><g><g><g><path d="m68.605 497.713h315.706c14.31 0 25.911-11.622 25.911-25.957v-237.88c0-14.336-11.601-25.958-25.911-25.958h-315.706" fill="#b8ecff"/><path d="m68.605 392.161v-184.242h-32.694c-14.31 0-25.911 11.621-25.911 25.957v237.879c0 14.336 11.601 25.957 25.911 25.957h32.694" fill="#6eb4c7"/><g><path d="" fill="#6eb4c7"/><path d="m68.609 443.92c-6.895.205-12.074-7.532-9.239-13.83 3.295-8.154 15.175-8.155 18.469 0 2.841 6.291-2.342 14.03-9.23 13.83z"/></g></g></g><path d="m502 471.407-91.777-41.816v-153.55l91.777-41.816z" fill="#6eb4c7"/><g><g><path d="m163.309 387.725h193.974v63.731h-193.974z" fill="#fff"/></g><g><path d="m357.283 461.456h-193.973c-5.523 0-10-4.478-10-10v-63.73c0-5.522 4.477-10 10-10h193.974c5.522 0 10 4.478 10 10v63.73c-.001 5.522-4.478 10-10.001 10zm-183.973-20h173.974v-43.73h-173.974z"/></g></g><g><g><g><ellipse cx="265.64" cy="329.591" fill="#ff5d5d" rx="21.375" ry="21.413"/></g><g><path d="m265.64 361.004c-17.3 0-31.375-14.092-31.375-31.413s14.075-31.413 31.375-31.413 31.375 14.092 31.375 31.413-14.075 31.413-31.375 31.413zm0-42.826c-6.272 0-11.375 5.12-11.375 11.413s5.103 11.413 11.375 11.413c6.273 0 11.375-5.12 11.375-11.413s-5.103-11.413-11.375-11.413z"/></g></g><g><g><ellipse cx="335.908" cy="329.591" fill="#fee77b" rx="21.375" ry="21.413"/></g><g><path d="m335.907 361.004c-17.3 0-31.375-14.092-31.375-31.413s14.075-31.413 31.375-31.413c17.301 0 31.376 14.092 31.376 31.413s-14.075 31.413-31.376 31.413zm0-42.826c-6.272 0-11.375 5.12-11.375 11.413s5.103 11.413 11.375 11.413 11.376-5.12 11.376-11.413-5.103-11.413-11.376-11.413z"/></g></g></g></g><g><g><ellipse cx="300.774" cy="111.103" fill="#00dba8" rx="96.644" ry="96.816"/></g><g><path d="m300.774 166.128c-30.287 0-54.927-24.684-54.927-55.025s24.64-55.025 54.927-55.025c30.286 0 54.926 24.684 54.926 55.025s-24.639 55.025-54.926 55.025z" fill="#fff"/><path d="m300.774 176.128c-35.802 0-64.928-29.17-64.928-65.024 0-35.855 29.126-65.025 64.928-65.025 35.8 0 64.926 29.17 64.926 65.025 0 35.854-29.126 65.024-64.926 65.024zm0-110.05c-24.773 0-44.928 20.198-44.928 45.025 0 24.826 20.154 45.024 44.928 45.024 24.772 0 44.926-20.198 44.926-45.024 0-24.827-20.153-45.025-44.926-45.025z"/></g><g><g><ellipse cx="107.486" cy="111.103" fill="#00dba8" rx="96.644" ry="96.816"/></g><path d="m507.41 225.814c-2.86-1.841-6.461-2.101-9.557-.689l-77.631 35.371v-26.62c0-19.827-16.109-35.957-35.911-35.957h-21.471c26.975-19.402 44.578-51.088 44.578-86.815 0-58.898-47.841-106.816-106.645-106.816-42.705 0-79.628 25.273-96.644 61.67-17.016-36.397-53.938-61.67-96.644-61.67-58.802-.001-106.643 47.917-106.643 106.816 0 35.727 17.603 67.413 44.578 86.815h-9.509c-19.802 0-35.911 16.13-35.911 35.957v237.879c0 19.827 16.109 35.958 35.911 35.958h348.4c19.802 0 35.911-16.131 35.911-35.958v-26.619l77.631 35.371c1.322.603 2.736.9 4.146.9 1.891 0 3.773-.535 5.411-1.59 2.86-1.84 4.59-5.009 4.59-8.41v-237.182c0-3.402-1.729-6.571-4.59-8.411zm-206.637-201.527c47.776 0 86.645 38.945 86.645 86.816 0 47.87-38.868 86.815-86.645 86.815-47.775 0-86.644-38.945-86.644-86.815.001-47.871 38.869-86.816 86.644-86.816zm-62.065 173.632h-69.156c14.801-10.645 26.78-24.989 34.578-41.669 7.798 16.68 19.777 31.023 34.578 41.669zm-217.866-86.815c0-47.871 38.868-86.816 86.645-86.816 47.775 0 86.644 38.945 86.644 86.816 0 47.87-38.868 86.815-86.644 86.815-47.777 0-86.645-38.945-86.645-86.815zm379.381 360.651c0 8.799-7.138 15.958-15.911 15.958h-348.4c-8.773 0-15.911-7.159-15.911-15.958v-237.879c0-8.799 7.138-15.957 15.911-15.957h22.694v174.242c0 5.522 4.478 10 10 10s10-4.478 10-10v-174.242h305.706c8.773 0 15.911 7.158 15.911 15.957zm91.777-15.893-71.777-32.704v-140.684l71.777-32.704z"/></g><g><path d="m107.486 166.128c-30.286 0-54.926-24.684-54.926-55.025s24.64-55.025 54.926-55.025c30.287 0 54.927 24.684 54.927 55.025s-24.64 55.025-54.927 55.025z" fill="#fff"/><path d="m107.485 176.128c-35.8 0-64.926-29.17-64.926-65.024 0-35.855 29.126-65.025 64.926-65.025 35.802 0 64.928 29.17 64.928 65.025 0 35.854-29.126 65.024-64.928 65.024zm0-110.05c-24.772 0-44.926 20.198-44.926 45.025 0 24.826 20.153 45.024 44.926 45.024s44.928-20.198 44.928-45.024c0-24.827-20.154-45.025-44.928-45.025z"/></g></g></g></svg>