<svg height="512pt" viewBox="0 -109 512 512" width="512pt" xmlns="http://www.w3.org/2000/svg"><g fill-rule="evenodd"><path d="m402.5625 39.964844v51.566406c4.164062-3.261719 9.378906-5.222656 15.046875-5.222656 5.753906 0 11.023437 1.988281 15.21875 5.335937v-51.679687zm0 0" fill="#f78411"/><path d="m417.695312 7.554688c-47.925781 0-86.75 9.253906-86.75 20.691406s38.824219 20.714844 86.75 20.714844c32.222657 0 60.363282-4.199219 75.328126-10.441407 7.253906-3.007812 11.417968-6.527343 11.417968-10.273437s-4.164062-7.238282-11.417968-10.273438c-14.964844-6.214844-43.105469-10.417968-75.328126-10.417968zm0 0" fill="#e6e6e6"/><path d="m493.023438 17.972656c-14.964844-6.214844-43.105469-10.414062-75.328126-10.414062-8.390624 0-16.496093.28125-24.148437.792968 28.511719.679688 52.96875 4.683594 66.542969 10.332032 7.28125 3.035156 11.421875 6.527344 11.421875 10.269531 0 3.746094-4.140625 7.265625-11.421875 10.273437-6.6875 2.8125-16.070313 5.195313-27.261719 6.984376-7.285156 1.160156-15.304687 2.042968-23.890625 2.636718 2.605469.058594 5.242188.113282 7.933594.113282h.820312c5.160156 0 10.203125-.113282 15.136719-.3125 25.761719-1.078126 47.609375-4.878907 60.191406-10.128907 7.257813-3.007812 11.421875-6.527343 11.421875-10.273437s-4.164062-7.238282-11.417968-10.273438zm0 0" fill="#c2c7cc"/><path d="m79.171875 39.964844v51.566406c4.167969-3.261719 9.382813-5.222656 15.050781-5.222656 5.722656 0 11.023438 1.988281 15.21875 5.335937v-51.679687zm0 0" fill="#f78411"/><path d="m94.304688 7.554688c-47.921876 0-86.746094 9.253906-86.746094 20.691406s38.824218 20.714844 86.746094 20.714844c32.222656 0 60.367187-4.199219 75.300781-10.441407 7.285156-3.007812 11.449219-6.527343 11.449219-10.273437s-4.164063-7.238282-11.449219-10.273438c-14.933594-6.214844-43.078125-10.417968-75.300781-10.417968zm0 0" fill="#e6e6e6"/><path d="m94.222656 77.3125c-5.667968 0-10.882812 1.957031-15.050781 5.222656-5.753906 4.511719-9.464844 11.492188-9.464844 19.324219v10.078125l24.9375 15.804688 24.117188-15.578126v-10.304687c0-7.746094-3.65625-14.726563-9.324219-19.210937-4.191406-3.347657-9.492188-5.335938-15.214844-5.335938zm0 0" fill="#64b0d9"/><path d="m169.605469 17.972656c-14.933594-6.214844-43.078125-10.414062-75.300781-10.414062-8.390626 0-16.492188.28125-24.171876.792968 28.535157.679688 52.996094 4.683594 66.570313 10.332032 7.28125 3.035156 11.417969 6.527344 11.417969 10.269531 0 3.746094-4.136719 7.265625-11.417969 10.273437-6.71875 2.8125-16.070313 5.195313-27.265625 6.984376-7.28125 1.160156-15.300781 2.042968-23.890625 2.636718 2.609375.058594 5.242187.113282 7.90625.113282h.851563c5.160156 0 10.203124-.113282 15.132812-.3125 25.761719-1.078126 47.613281-4.878907 60.167969-10.128907 7.28125-3.007812 11.449219-6.527343 11.449219-10.273437s-4.164063-7.238282-11.449219-10.273438zm0 0" fill="#c2c7cc"/><path d="m121.824219 177.066406-24.9375 85.792969c-2.835938 9.734375 2.804687 20.007813 12.523437 22.84375 9.722656 2.835937 19.980469-2.808594 22.816406-12.542969l26.695313-91.835937-14.085937-22.507813zm0 0" fill="#64b0d9"/><path d="m93.457031 77.3125c3.597657 1.730469 9.324219 9.027344 9.324219 24.546875v10.304687h15.984375v-10.304687c0-7.746094-3.65625-14.726563-9.324219-19.210937-4.195312-3.347657-9.496094-5.335938-15.21875-5.335938zm0 0" fill="#4a83c9"/><path d="m140.640625 177.804688-26.015625 89.453124c-1.953125 6.726563-7.480469 11.492188-13.914062 12.855469 2.238281 2.582031 5.214843 4.570313 8.699218 5.589844 9.722656 2.839844 19.980469-2.808594 22.816406-12.542969l26.695313-91.835937c-5.472656-1.730469-11.109375-2.867188-18.28125-3.519531zm0 0" fill="#4a83c9"/><path d="m390.148438 177.066406 24.9375 85.792969c2.835937 9.734375-2.804688 20.007813-12.523438 22.84375-9.722656 2.835937-19.980469-2.808594-22.816406-12.542969l-26.695313-91.835937 14.113281-22.507813zm0 0" fill="#4a83c9"/><path d="m371.359375 177.804688 25.988281 89.453124c1.953125 6.726563 7.480469 11.492188 13.914063 12.855469-2.210938 2.582031-5.1875 4.570313-8.699219 5.589844-9.722656 2.839844-19.980469-2.808594-22.816406-12.542969l-26.695313-91.835937c5.46875-1.730469 11.109375-2.867188 18.308594-3.519531zm0 0" fill="#64b0d9"/><path d="m417.609375 77.3125c-5.667969 0-10.882813 1.957031-15.050781 5.222656-5.75 4.511719-9.464844 11.492188-9.464844 19.324219v10.078125l24.9375 15.804688 24.117188-15.578126v-10.304687c0-7.746094-3.65625-14.726563-9.324219-19.210937-4.191407-3.347657-9.460938-5.335938-15.214844-5.335938zm0 0" fill="#64b0d9"/><path d="m416.871094 77.3125c3.601562 1.730469 9.296875 9.027344 9.296875 24.546875v10.304687h15.984375v-10.304687c0-7.746094-3.65625-14.726563-9.324219-19.210937-4.195313-3.347657-9.464844-5.335938-15.21875-5.335938zm0 0" fill="#4a83c9"/><path d="m158.921875 181.324219c8.867187 2.835937 17.316406 7.378906 31.285156 14.359375 3.402344 1.703125 6.945313 3.265625 10.65625 4.710937h110.242188c3.714843-1.445312 7.257812-3.007812 10.65625-4.710937 14-6.980469 22.417969-11.523438 31.289062-14.359375 5.46875-1.730469 11.109375-2.867188 18.308594-3.519531 7.507813-.679688 15.160156-.765626 22.699219-.765626h49.539062c48.800782 0 48.800782-64.875 0-64.875h-50.363281c-37.066406-.058593-41.742187-3.773437-71.472656-18.644531-39.394531-19.695312-92.132813-19.695312-131.554688 0-29.730469 14.871094-34.375 18.585938-71.445312 18.644531-16.238281.027344-32.476563 0-48.6875 0-52.089844 0-49.707031 64.875-1.699219 64.875h49.535156c7.539063 0 15.191406.085938 22.730469.765626 7.171875.652343 12.808594 1.789062 18.28125 3.519531zm0 0" fill="#e6e6e6"/><path d="m200.863281 200.394531c-1.953125 2.527344-3.117187 5.675781-3.117187 9.109375v50.546875c0 8.171875 6.6875 14.871094 14.851562 14.871094h86.777344c8.1875 0 14.878906-6.699219 14.878906-14.871094v-50.546875c0-3.6875-1.359375-7.066406-3.601562-9.675781-2.71875-3.179687-6.769532-5.191406-11.277344-5.191406h-86.777344c-4.761718-.003907-9.011718 2.265625-11.734375 5.757812zm0 0" fill="#808080"/><path d="m255.984375 217.566406c-9.492187 0-17.171875 7.691406-17.171875 17.195313 0 9.507812 7.679688 17.226562 17.171875 17.226562 9.496094 0 17.203125-7.71875 17.203125-17.226562 0-9.503907-7.707031-17.195313-17.203125-17.195313zm0 0" fill="#a2d6f2"/><path d="m430.644531 143.464844c.570313 16.601562-11.617187 33.574218-36.585937 33.574218h49.539062c48.800782 0 48.800782-64.875 0-64.875h-49.539062c13.519531 0 23.265625 4.964844 29.304687 12.144532 4.617188 5.507812 7.054688 12.316406 7.28125 19.15625zm0 0" fill="#c2c7cc"/></g><path d="m512 28.246094c0-27.453125-84.652344-28.246094-94.304688-28.246094-9.65625 0-94.308593.792969-94.308593 28.246094 0 19.679687 43.421875 25.671875 71.617187 27.488281v23.378906c-5.84375 5.816407-9.46875 13.867188-9.46875 22.746094v2.675781c-26.039062-.480468-32.300781-3.632812-54.59375-14.859375-1.828125-.921875-3.753906-1.890625-5.800781-2.914062-41.347656-20.675781-96.933594-20.675781-138.308594-.003907-2.09375 1.042969-4.0625 2.035157-5.925781 2.972657-22.273438 11.199219-28.511719 14.332031-54.585938 14.808593v-2.679687c0-8.804687-3.566406-16.789063-9.324218-22.597656v-23.53125c28.191406-1.816407 71.613281-7.804688 71.613281-27.488281 0-27.449219-84.652344-28.242188-94.304687-28.242188-9.652344 0-94.304688.792969-94.304688 28.246094 0 19.679687 43.421875 25.671875 71.613281 27.488281v23.378906c-5.839843 5.816407-9.464843 13.867188-9.464843 22.746094v3.085937c-24.925782 2.664063-37.933594 21.257813-37.933594 39.65625 0 19.875 15.167968 39.992188 44.160156 39.992188h43.390625l-22.136719 76.152344c-4.003906 13.75 3.921875 28.199218 17.664063 32.210937 2.394531.699219 4.835937 1.042969 7.261719 1.042969 4.3125 0 8.589843-1.089844 12.488281-3.234375 6.085937-3.347656 10.5-8.851563 12.4375-15.496094l24.414062-83.984375c4.851563 2.074219 10.175781 4.75 17.015625 8.1875 1.863282.9375 3.828125 1.925782 5.914063 2.96875 1.289062.644532 2.621093 1.273438 3.972656 1.890625-.394531 1.660157-.605469 3.394531-.605469 5.171875v50.546875c0 12.363281 10.050782 22.425781 22.40625 22.425781h27.121094c4.175781 0 7.558594-3.382812 7.558594-7.554687 0-4.175781-3.382813-7.558594-7.558594-7.558594h-27.121094c-4.023437 0-7.292968-3.28125-7.292968-7.3125v-50.542969c0-4.035156 3.269531-7.316406 7.292968-7.316406h86.777344c2.253906 0 4.269531 1.023438 5.613281 2.628906.105469.144532.210938.285157.324219.421876.867188 1.203124 1.382812 2.671874 1.382812 4.265624v50.542969c0 4.03125-3.28125 7.3125-7.320312 7.3125h-26.1875c-4.171875 0-7.554688 3.382813-7.554688 7.558594 0 4.171875 3.382813 7.554687 7.554688 7.554687h26.1875c12.371094 0 22.433594-10.0625 22.433594-22.425781v-50.546875c0-1.761718-.210938-3.476562-.597656-5.125 1.449218-.683594 2.816406-1.367187 3.929687-1.933594 2.089844-1.046874 4.058594-2.035156 5.921875-2.972656 6.835938-3.4375 12.160156-6.113281 17.011719-8.1875l24.414062 83.988282c1.9375 6.644531 6.351563 12.144531 12.441407 15.492187 3.898437 2.144531 8.171874 3.234375 12.484374 3.234375 2.429688 0 4.871094-.34375 7.261719-1.042969 13.746094-4.011719 21.667969-18.460937 17.667969-32.207031l-22.140625-76.15625h43.394531c28.988282 0 44.15625-20.117188 44.15625-39.992188 0-18.425781-13.042968-37.046874-38.046875-39.667968v-3.074219c0-8.804687-3.5625-16.789063-9.324219-22.597656v-23.527344c28.195313-1.816406 71.617188-7.808594 71.617188-27.488281zm-172.800781 0c2.246093-1.824219 8.683593-5.210938 22.941406-8.183594 15.300781-3.191406 35.03125-4.949219 55.554687-4.949219 20.511719 0 40.238282 1.757813 55.542969 4.949219 14.257813 2.972656 20.703125 6.359375 22.949219 8.183594-2.246094 1.828125-8.6875 5.21875-22.945312 8.199218-15.3125 3.199219-35.039063 4.960938-55.546876 4.960938-20.519531 0-40.25-1.761719-55.558593-4.960938-14.257813-2.980468-20.695313-6.371093-22.9375-8.199218zm88.730469 60.148437c.179687.15625.371093.300781.566406.441407 3.722656 3.117187 6.097656 7.796874 6.097656 13.023437v2.75h-33.941406v-2.75c0-5.238281 2.378906-9.925781 6.109375-13.042969.246093-.167968.480469-.347656.707031-.539062 2.832031-2.128906 6.335938-3.410156 10.140625-3.410156 3.882813 0 7.453125 1.324218 10.320313 3.527343zm-350.664063 13.464844c0-5.234375 2.378906-9.921875 6.105469-13.042969.25-.167968.484375-.347656.710937-.542968 2.832031-2.128907 6.335938-3.40625 10.140625-3.40625 3.882813 0 7.457032 1.328124 10.324219 3.53125.179687.152343.363281.296874.554687.429687 3.726563 3.121094 6.105469 7.804687 6.105469 13.03125v2.75h-33.941406zm-61.457031-73.613281c2.246094-1.824219 8.683594-5.210938 22.941406-8.183594 15.304688-3.191406 35.03125-4.949219 55.554688-4.949219 20.515624 0 40.242187 1.757813 55.546874 4.949219 14.253907 2.972656 20.699219 6.359375 22.949219 8.183594-2.25 1.828125-8.691406 5.21875-22.949219 8.199218-15.308593 3.199219-35.035156 4.960938-55.546874 4.960938-20.519532 0-40.25-1.761719-55.558594-4.960938-14.253906-2.980468-20.691406-6.371093-22.9375-8.199218zm70.921875 28.164062c3.617187.09375 6.277343.105469 7.574219.105469 1.296874 0 3.960937-.011719 7.578124-.105469v14.277344c-2.457031-.601562-5.023437-.929688-7.664062-.929688-2.578125 0-5.085938.316407-7.488281.894532zm38.238281 214.636719c-.808594 2.773437-2.660156 5.074219-5.210938 6.480469-2.546874 1.402344-5.46875 1.730468-8.230468.921875-5.75-1.675781-9.0625-7.722657-7.386719-13.480469l23.335937-80.28125c9.335938.207031 16.097657.777344 22.019532 1.980469zm275.472656 7.402344c-2.757812.808593-5.679687.476562-8.226562-.921875-2.554688-1.40625-4.402344-3.703125-5.210938-6.476563l-24.53125-84.382812c5.921875-1.207031 12.683594-1.777344 22.019532-1.980469l23.335937 80.28125c1.679687 5.757812-1.636719 11.804688-7.386719 13.480469zm72.199219-133.847657c0 12.382813-8.980469 24.882813-29.042969 24.882813h-49.539062c-20.875 0-32.390625 1.21875-42.988282 4.554687-.042968.011719-.085937.019532-.128906.03125-.1875.054688-.367187.121094-.550781.1875-7.929687 2.574219-15.445313 6.347657-26.117187 11.714844-1.851563.929688-3.808594 1.914063-5.953126 2.988282-.621093.316406-3.210937 1.527343-5.535156 2.574218-3.742187-2.796875-8.386718-4.457031-13.410156-4.457031h-86.777344c-5.019531 0-9.65625 1.660156-13.394531 4.457031-1.9375-.839844-3.820313-1.710937-5.617187-2.609375-2.078126-1.039062-4.03125-2.019531-5.882813-2.953125-10.679687-5.367187-18.199219-9.144531-26.132813-11.71875-.179687-.066406-.355468-.132812-.539062-.183594-.042969-.011718-.085938-.019531-.125-.03125-10.597656-3.335937-22.117188-4.554687-42.992188-4.554687h-49.539062c-20.0625 0-29.042969-12.5-29.042969-24.882813 0-12.382812 8.980469-24.882812 29.042969-24.882812h49.539062c.269532 0 .527344 0 .796876-.003906.015624 0 .03125.003906.050781.003906s.039062-.003906.0625-.003906c36.195312-.0625 43.894531-3.925782 68.871093-16.484375 1.855469-.929688 3.8125-1.914063 5.890626-2.953125 37.335937-18.652344 87.488281-18.65625 124.796874-.003906 2.03125 1.019531 3.945313 1.984374 5.761719 2.898437 25.238281 12.710937 32.859375 16.546875 69.914063 16.546875h49.539062c20.0625 0 29.042969 12.496094 29.042969 24.882812zm-47.371094-73.914062c-2.457031-.601562-5.019531-.929688-7.660156-.929688-2.578125 0-5.085937.316407-7.492187.894532v-14.242188c3.621093.09375 6.28125.105469 7.578124.105469 1.296876 0 3.957032-.011719 7.574219-.105469zm0 0"/><path d="m393.746094 135.910156c-4.171875 0-7.554688 3.382813-7.554688 7.554688s3.382813 7.554687 7.554688 7.554687h44.835937c4.171875 0 7.554688-3.382812 7.554688-7.554687s-3.382813-7.554688-7.554688-7.554688zm0 0"/><path d="m118.226562 135.910156h-44.835937c-4.175781 0-7.558594 3.382813-7.558594 7.554688s3.382813 7.554687 7.558594 7.554687h44.832031c4.175782 0 7.558594-3.382812 7.558594-7.554687s-3.382812-7.554688-7.554688-7.554688zm0 0"/><path d="m222.035156 121.804688c-4.175781 0-7.558594 3.382812-7.558594 7.554687v23.246094c0 4.171875 3.382813 7.554687 7.558594 7.554687 4.171875 0 7.554688-3.382812 7.554688-7.554687v-23.246094c0-4.171875-3.382813-7.554687-7.554688-7.554687zm0 0"/><path d="m255.984375 114.371094c-4.171875 0-7.554687 3.382812-7.554687 7.554687v38.113281c0 4.171876 3.382812 7.554688 7.554687 7.554688 4.175781 0 7.558594-3.382812 7.558594-7.554688v-38.113281c0-4.171875-3.382813-7.554687-7.558594-7.554687zm0 0"/><path d="m280.746094 234.761719c0-13.648438-11.109375-24.75-24.761719-24.75-13.636719 0-24.730469 11.101562-24.730469 24.75 0 13.667969 11.09375 24.78125 24.730469 24.78125 13.652344 0 24.761719-11.113281 24.761719-24.78125zm-24.761719 9.671875c-5.300781 0-9.617187-4.339844-9.617187-9.671875 0-5.316407 4.316406-9.640625 9.617187-9.640625 5.320313 0 9.648437 4.324218 9.648437 9.640625 0 5.332031-4.328124 9.671875-9.648437 9.671875zm0 0"/><path d="m289.964844 121.804688c-4.171875 0-7.554688 3.382812-7.554688 7.554687v23.246094c0 4.171875 3.382813 7.554687 7.554688 7.554687 4.175781 0 7.558594-3.382812 7.558594-7.554687v-23.246094c0-4.171875-3.382813-7.554687-7.558594-7.554687zm0 0"/></svg>