<svg width="29" height="26" viewBox="0 0 29 26" fill="none" xmlns="http://www.w3.org/2000/svg">
<path fill-rule="evenodd" clip-rule="evenodd" d="M9.63136 0C7.85827 0 6.4209 1.43738 6.4209 3.21047V9.84543H15.8383C17.6114 9.84543 19.0487 11.2828 19.0487 13.0559V14.8752H23.8712C27.0749 16.9085 27.2286 16.9456 28.2521 17.6576C28.2521 16.3734 28.2521 14.8671 28.2521 14.0785V3.21047C28.2521 1.43737 26.8147 0 25.0416 0H9.63136Z" fill="#898989"/>
<path fill-rule="evenodd" clip-rule="evenodd" d="M18.1926 13.3867C18.1926 11.9037 16.9948 10.7015 15.5173 10.7015H14.9822H3.21047H2.67539C1.19781 10.7015 0 11.9037 0 13.3867V22.4763V25.4697C0.484284 25.1316 0.734884 24.9754 1.34985 24.5922C1.81517 24.3023 2.48911 23.8824 3.63076 23.1553C3.6379 23.1552 3.64504 23.1552 3.65219 23.1552H14.9822C16.7553 23.1552 18.1926 21.7178 18.1926 19.9447V18.9359V13.912V13.3867Z" fill="#C2C2C2"/>
<rect x="6" y="14" width="10" height="1" rx="0.5" fill="white"/>
<rect x="10" y="16" width="6" height="1" rx="0.5" fill="white"/>
</svg>
