<svg width="29" height="26" viewBox="0 0 29 26" fill="none" xmlns="http://www.w3.org/2000/svg">
<path d="M24.1401 14.453L24.0174 14.3752H23.8721H19.5497V13.0559C19.5497 11.0067 17.8885 9.34543 15.8392 9.34543H6.92188V3.21047C6.92188 1.71352 8.13539 0.5 9.63234 0.5H25.0426C26.5395 0.5 27.753 1.71351 27.753 3.21047V14.0785V14.0831V14.0878V14.0924V14.0971V14.1018V14.1065V14.1112V14.116V14.1207V14.1255V14.1303V14.1351V14.1399V14.1448V14.1496V14.1545V14.1594V14.1643V14.1692V14.1741V14.1791V14.184V14.189V14.194V14.199V14.2041V14.2091V14.2141V14.2192V14.2243V14.2294V14.2345V14.2397V14.2448V14.25V14.2551V14.2603V14.2655V14.2708V14.276V14.2813V14.2865V14.2918V14.2971V14.3024V14.3077V14.3131V14.3184V14.3238V14.3292V14.3346V14.34V14.3454V14.3508V14.3563V14.3618V14.3672V14.3727V14.3783V14.3838V14.3893V14.3949V14.4004V14.406V14.4116V14.4172V14.4228V14.4285V14.4341V14.4398V14.4454V14.4511V14.4568V14.4626V14.4683V14.474V14.4798V14.4855V14.4913V14.4971V14.5029V14.5087V14.5146V14.5204V14.5263V14.5322V14.538V14.5439V14.5498V14.5558V14.5617V14.5676V14.5736V14.5796V14.5856V14.5916V14.5976V14.6036V14.6096V14.6157V14.6217V14.6278V14.6339V14.64V14.6461V14.6522V14.6583V14.6645V14.6706V14.6768V14.683V14.6892V14.6954V14.7016V14.7078V14.7141V14.7203V14.7266V14.7329V14.7391V14.7454V14.7517V14.7581V14.7644V14.7707V14.7771V14.7834V14.7898V14.7962V14.8026V14.809V14.8154V14.8218V14.8283V14.8347V14.8412V14.8477V14.8541V14.8606V14.8671V14.8737V14.8802V14.8867V14.8933V14.8998V14.9064V14.913V14.9195V14.9261V14.9327V14.9394V14.946V14.9526V14.9593V14.9659V14.9726V14.9793V14.986V14.9927V14.9994V15.0061V15.0128V15.0195V15.0263V15.033V15.0398V15.0466V15.0534V15.0602V15.067V15.0738V15.0806V15.0874V15.0943V15.1011V15.108V15.1148V15.1217V15.1286V15.1355V15.1424V15.1493V15.1562V15.1631V15.1701V15.177V15.184V15.1909V15.1979V15.2049V15.2119V15.2189V15.2259V15.2329V15.2399V15.2469V15.254V15.261V15.2681V15.2751V15.2822V15.2893V15.2964V15.3035V15.3106V15.3177V15.3248V15.3319V15.339V15.3462V15.3533V15.3605V15.3677V15.3748V15.382V15.3892V15.3964V15.4036V15.4108V15.418V15.4252V15.4324V15.4397V15.4469V15.4542V15.4614V15.4687V15.476V15.4832V15.4905V15.4978V15.5051V15.5124V15.5197V15.5271V15.5344V15.5417V15.549V15.5564V15.5637V15.5711V15.5785V15.5858V15.5932V15.6006V15.608V15.6154V15.6228V15.6302V15.6376V15.645V15.6524V15.6598V15.6673V15.6747V15.6822V15.6896V15.6971V15.7045V15.712V15.7195V15.727V15.7345V15.7419V15.7494V15.7569V15.7644V15.772V15.7795V15.787V15.7945V15.8021V15.8096V15.8171V15.8247V15.8322V15.8398V15.8474V15.8549V15.8625V15.8701V15.8776V15.8852V15.8928V15.9004V15.908V15.9156V15.9232V15.9308V15.9385V15.9461V15.9537V15.9613V15.969V15.9766V15.9842V15.9919V15.9995V16.0072V16.0148V16.0225V16.0302V16.0378V16.0455V16.0532V16.0609V16.0685V16.0762V16.0839V16.0916V16.0993V16.107V16.1147V16.1224V16.1301V16.1378V16.1455V16.1533V16.161V16.1687V16.1764V16.1842V16.1919V16.1996V16.2074V16.2151V16.2229V16.2306V16.2384V16.2461V16.2539V16.2616V16.2694V16.2771V16.2849V16.2927V16.3004V16.3082V16.316V16.3238V16.3316V16.3393V16.3471V16.3549V16.3627V16.3705V16.3783V16.3861V16.3939V16.4016V16.4094V16.4172V16.425V16.4328V16.4407V16.4485V16.4563V16.4641V16.4719V16.4797V16.4875V16.4953V16.5031V16.511V16.5188V16.5266V16.5344V16.5422V16.55V16.5579V16.5657V16.5735V16.5813V16.5892V16.597V16.6048V16.6127V16.6205V16.6283V16.6361V16.644V16.6518V16.6596V16.6675V16.6753V16.6831V16.691V16.6988V16.7066V16.7144V16.7203C27.5119 16.5655 27.2493 16.4024 26.8823 16.1745C26.3171 15.8236 25.5042 15.3188 24.1401 14.453Z" fill="#D8D8D8" stroke="#546A7B"/>
<rect x="6.25" y="14.25" width="9.5" height="0.5" rx="0.25" fill="white" stroke="#546A7B" stroke-width="0.5"/>
<rect x="10.25" y="16.25" width="5.5" height="0.5" rx="0.25" fill="white" stroke="#546A7B" stroke-width="0.5"/>
<path d="M1.08241 24.4682C0.847461 24.6146 0.664338 24.7287 0.5 24.8332V13.6851C0.5 12.4766 1.47566 11.5 2.67539 11.5H15.5173C16.717 11.5 17.6926 12.4766 17.6926 13.6851V20.2432C17.6926 21.7401 16.4791 22.9536 14.9822 22.9536H3.65219L3.62375 22.9538L3.48186 22.9558L3.36217 23.032C2.22267 23.7578 1.5503 24.1767 1.08569 24.4662L1.08544 24.4663L1.08241 24.4682Z" stroke="#546A7B"/>
</svg>
