<svg width="27" height="26" viewBox="0 0 27 26" fill="none" xmlns="http://www.w3.org/2000/svg">
<path fill-rule="evenodd" clip-rule="evenodd" d="M15 25.9885V10.6943L25.3476 12.5204C26.3033 12.689 27 13.5195 27 14.4899V23.9885C27 25.093 26.1046 25.9885 25 25.9885H15ZM18.5 15.6943C18.2239 15.6943 18 15.9182 18 16.1943C18 16.4705 18.2239 16.6943 18.5 16.6943H23.5C23.7761 16.6943 24 16.4705 24 16.1943C24 15.9182 23.7761 15.6943 23.5 15.6943H18.5ZM18 19.1943C18 18.9182 18.2239 18.6943 18.5 18.6943H23.5C23.7761 18.6943 24 18.9182 24 19.1943C24 19.4705 23.7761 19.6943 23.5 19.6943H18.5C18.2239 19.6943 18 19.4705 18 19.1943ZM18.5 21.6943C18.2239 21.6943 18 21.9182 18 22.1943C18 22.4705 18.2239 22.6943 18.5 22.6943H23.5C23.7761 22.6943 24 22.4705 24 22.1943C24 21.9182 23.7761 21.6943 23.5 21.6943H18.5Z" fill="#898989"/>
<path fill-rule="evenodd" clip-rule="evenodd" d="M2.28284 0.0204768C1.07798 -0.151647 0 0.783276 0 2.00038V23.6944C0 24.7989 0.89543 25.6944 2 25.6944H4L4 19.6944C4 19.1421 4.44772 18.6944 5 18.6944H9C9.55229 18.6944 10 19.1421 10 19.6944V25.6944H12C12.1727 25.6944 12.3402 25.6725 12.5 25.6313C12.6598 25.6725 12.8274 25.6943 13 25.6943H14V3.42895C14 2.43365 13.2681 1.58981 12.2828 1.44905L2.28284 0.0204768ZM2 6.19434C2 5.91819 2.22386 5.69434 2.5 5.69434H5.5C5.77614 5.69434 6 5.91819 6 6.19434C6 6.47048 5.77614 6.69434 5.5 6.69434H2.5C2.22386 6.69434 2 6.47048 2 6.19434ZM2.5 8.69434C2.22386 8.69434 2 8.91819 2 9.19434C2 9.47048 2.22386 9.69434 2.5 9.69434H5.5C5.77614 9.69434 6 9.47048 6 9.19434C6 8.91819 5.77614 8.69434 5.5 8.69434H2.5ZM2 12.1943C2 11.9182 2.22386 11.6943 2.5 11.6943H5.5C5.77614 11.6943 6 11.9182 6 12.1943C6 12.4705 5.77614 12.6943 5.5 12.6943H2.5C2.22386 12.6943 2 12.4705 2 12.1943ZM2.5 14.6943C2.22386 14.6943 2 14.9182 2 15.1943C2 15.4705 2.22386 15.6943 2.5 15.6943H5.5C5.77614 15.6943 6 15.4705 6 15.1943C6 14.9182 5.77614 14.6943 5.5 14.6943H2.5ZM8 6.19434C8 5.91819 8.22386 5.69434 8.5 5.69434H11.5C11.7761 5.69434 12 5.91819 12 6.19434C12 6.47048 11.7761 6.69434 11.5 6.69434H8.5C8.22386 6.69434 8 6.47048 8 6.19434ZM8.5 8.69434C8.22386 8.69434 8 8.91819 8 9.19434C8 9.47048 8.22386 9.69434 8.5 9.69434H11.5C11.7761 9.69434 12 9.47048 12 9.19434C12 8.91819 11.7761 8.69434 11.5 8.69434H8.5ZM8 12.1943C8 11.9182 8.22386 11.6943 8.5 11.6943H11.5C11.7761 11.6943 12 11.9182 12 12.1943C12 12.4705 11.7761 12.6943 11.5 12.6943H8.5C8.22386 12.6943 8 12.4705 8 12.1943ZM8.5 14.6943C8.22386 14.6943 8 14.9182 8 15.1943C8 15.4705 8.22386 15.6943 8.5 15.6943H11.5C11.7761 15.6943 12 15.4705 12 15.1943C12 14.9182 11.7761 14.6943 11.5 14.6943H8.5Z" fill="#C2C2C2"/>
</svg>
