<svg width="29" height="27" viewBox="0 0 29 27" fill="none" xmlns="http://www.w3.org/2000/svg">
<mask id="path-1-outside-1" maskUnits="userSpaceOnUse" x="15" y="9" width="14" height="18" fill="black">
<rect fill="white" x="15" y="9" width="14" height="18"/>
<path fill-rule="evenodd" clip-rule="evenodd" d="M16 26V11L26.3476 12.7909C27.3033 12.9563 28 13.7708 28 14.7226V24.0385C28 25.1218 27.1046 26 26 26H16ZM19.4904 15.9038C19.2196 15.9038 19 16.1234 19 16.3942C19 16.6651 19.2196 16.8846 19.4904 16.8846H24.5096C24.7804 16.8846 25 16.6651 25 16.3942C25 16.1234 24.7804 15.9038 24.5096 15.9038H19.4904ZM19 19.3366C19 19.0657 19.2196 18.8462 19.4904 18.8462H24.5096C24.7804 18.8462 25 19.0657 25 19.3366C25 19.6074 24.7804 19.827 24.5096 19.827H19.4904C19.2196 19.827 19 19.6074 19 19.3366ZM19.4904 21.7885C19.2196 21.7885 19 22.0081 19 22.2789C19 22.5497 19.2196 22.7693 19.4904 22.7693H24.5096C24.7804 22.7693 25 22.5497 25 22.2789C25 22.0081 24.7804 21.7885 24.5096 21.7885H19.4904Z"/>
</mask>
<path fill-rule="evenodd" clip-rule="evenodd" d="M16 26V11L26.3476 12.7909C27.3033 12.9563 28 13.7708 28 14.7226V24.0385C28 25.1218 27.1046 26 26 26H16ZM19.4904 15.9038C19.2196 15.9038 19 16.1234 19 16.3942C19 16.6651 19.2196 16.8846 19.4904 16.8846H24.5096C24.7804 16.8846 25 16.6651 25 16.3942C25 16.1234 24.7804 15.9038 24.5096 15.9038H19.4904ZM19 19.3366C19 19.0657 19.2196 18.8462 19.4904 18.8462H24.5096C24.7804 18.8462 25 19.0657 25 19.3366C25 19.6074 24.7804 19.827 24.5096 19.827H19.4904C19.2196 19.827 19 19.6074 19 19.3366ZM19.4904 21.7885C19.2196 21.7885 19 22.0081 19 22.2789C19 22.5497 19.2196 22.7693 19.4904 22.7693H24.5096C24.7804 22.7693 25 22.5497 25 22.2789C25 22.0081 24.7804 21.7885 24.5096 21.7885H19.4904Z" fill="#D8D8D8"/>
<path d="M16 11L16.1705 10.0146L15 9.81206V11H16ZM16 26H15V27H16V26ZM26.3476 12.7909L26.5181 11.8056L26.5181 11.8056L26.3476 12.7909ZM15 11V26H17V11H15ZM26.5181 11.8056L16.1705 10.0146L15.8295 11.9854L26.177 13.7763L26.5181 11.8056ZM29 14.7226C29 13.2706 27.9395 12.0516 26.5181 11.8056L26.177 13.7763C26.6671 13.8611 27 14.271 27 14.7226H29ZM29 24.0385V14.7226H27V24.0385H29ZM26 27C27.6385 27 29 25.6923 29 24.0385H27C27 24.5513 26.5707 25 26 25V27ZM16 27H26V25H16V27ZM20 16.3942C20 16.6757 19.7718 16.9038 19.4904 16.9038V14.9038C18.6673 14.9038 18 15.5711 18 16.3942H20ZM19.4904 15.8846C19.7718 15.8846 20 16.1128 20 16.3942H18C18 17.2173 18.6673 17.8846 19.4904 17.8846V15.8846ZM24.5096 15.8846H19.4904V17.8846H24.5096V15.8846ZM24 16.3942C24 16.1128 24.2282 15.8846 24.5096 15.8846V17.8846C25.3327 17.8846 26 17.2173 26 16.3942H24ZM24.5096 16.9038C24.2282 16.9038 24 16.6757 24 16.3942H26C26 15.5711 25.3327 14.9038 24.5096 14.9038V16.9038ZM19.4904 16.9038H24.5096V14.9038H19.4904V16.9038ZM19.4904 17.8462C18.6673 17.8462 18 18.5135 18 19.3366H20C20 19.618 19.7718 19.8462 19.4904 19.8462V17.8462ZM24.5096 17.8462H19.4904V19.8462H24.5096V17.8462ZM26 19.3366C26 18.5135 25.3327 17.8462 24.5096 17.8462V19.8462C24.2282 19.8462 24 19.618 24 19.3366H26ZM24.5096 20.827C25.3327 20.827 26 20.1597 26 19.3366H24C24 19.0551 24.2282 18.827 24.5096 18.827V20.827ZM19.4904 20.827H24.5096V18.827H19.4904V20.827ZM18 19.3366C18 20.1597 18.6673 20.827 19.4904 20.827V18.827C19.7718 18.827 20 19.0551 20 19.3366H18ZM20 22.2789C20 22.5603 19.7718 22.7885 19.4904 22.7885V20.7885C18.6673 20.7885 18 21.4558 18 22.2789H20ZM19.4904 21.7693C19.7718 21.7693 20 21.9974 20 22.2789H18C18 23.102 18.6673 23.7693 19.4904 23.7693V21.7693ZM24.5096 21.7693H19.4904V23.7693H24.5096V21.7693ZM24 22.2789C24 21.9974 24.2282 21.7693 24.5096 21.7693V23.7693C25.3327 23.7693 26 23.102 26 22.2789H24ZM24.5096 22.7885C24.2282 22.7885 24 22.5603 24 22.2789H26C26 21.4558 25.3327 20.7885 24.5096 20.7885V22.7885ZM19.4904 22.7885H24.5096V20.7885H19.4904V22.7885Z" fill="#546A7B" mask="url(#path-1-outside-1)"/>
<mask id="path-3-outside-2" maskUnits="userSpaceOnUse" x="0" y="0" width="16" height="27" fill="black">
<rect fill="white" width="16" height="27"/>
<path fill-rule="evenodd" clip-rule="evenodd" d="M3.28284 1.01992C2.07798 0.852451 1 1.76211 1 2.94632V24.054C1 25.1288 1.89543 26 3 26H5L5 20.1621C5 19.6248 5.44772 19.1892 6 19.1892H10C10.5523 19.1892 11 19.6248 11 20.1621V26H13C13.1727 26 13.3402 25.9787 13.5 25.9387C13.6598 25.9787 13.8274 26 14 26H15V4.33628C15 3.36788 14.2681 2.54684 13.2828 2.40989L3.28284 1.01992ZM3 7.02691C3 6.75823 3.21781 6.54042 3.48649 6.54042H6.51351C6.78219 6.54042 7 6.75823 7 7.02691C7 7.29559 6.78219 7.5134 6.51351 7.5134H3.48649C3.21781 7.5134 3 7.29559 3 7.02691ZM3.48649 9.45928C3.21781 9.45928 3 9.67708 3 9.94576C3 10.2144 3.21781 10.4323 3.48649 10.4323H6.51351C6.78219 10.4323 7 10.2144 7 9.94576C7 9.67708 6.78219 9.45928 6.51351 9.45928H3.48649ZM3 12.8647C3 12.596 3.21781 12.3782 3.48649 12.3782H6.51351C6.78219 12.3782 7 12.596 7 12.8647C7 13.1334 6.78219 13.3512 6.51351 13.3512H3.48649C3.21781 13.3512 3 13.1334 3 12.8647ZM3.48649 15.2971C3.21781 15.2971 3 15.5149 3 15.7836C3 16.0523 3.21781 16.2701 3.48649 16.2701H6.51351C6.78219 16.2701 7 16.0523 7 15.7836C7 15.5149 6.78219 15.2971 6.51351 15.2971H3.48649ZM9 7.02691C9 6.75823 9.21781 6.54042 9.48649 6.54042H12.5135C12.7822 6.54042 13 6.75823 13 7.02691C13 7.29559 12.7822 7.5134 12.5135 7.5134H9.48649C9.21781 7.5134 9 7.29559 9 7.02691ZM9.48649 9.45928C9.21781 9.45928 9 9.67708 9 9.94576C9 10.2144 9.21781 10.4323 9.48649 10.4323H12.5135C12.7822 10.4323 13 10.2144 13 9.94576C13 9.67708 12.7822 9.45928 12.5135 9.45928H9.48649ZM9 12.8647C9 12.596 9.21781 12.3782 9.48649 12.3782H12.5135C12.7822 12.3782 13 12.596 13 12.8647C13 13.1334 12.7822 13.3512 12.5135 13.3512H9.48649C9.21781 13.3512 9 13.1334 9 12.8647ZM9.48649 15.2971C9.21781 15.2971 9 15.5149 9 15.7836C9 16.0523 9.21781 16.2701 9.48649 16.2701H12.5135C12.7822 16.2701 13 16.0523 13 15.7836C13 15.5149 12.7822 15.2971 12.5135 15.2971H9.48649Z"/>
</mask>
<path d="M3.28284 1.01992L3.14517 2.0104L3.28284 1.01992ZM5 26V27H6L6 26L5 26ZM5 20.1621L6 20.1621V20.1621H5ZM11 26H10V27H11V26ZM13.5 25.9387L13.7429 24.9686L13.5 24.9078L13.2571 24.9686L13.5 25.9387ZM15 26V27H16V26H15ZM13.2828 2.40989L13.1452 3.40037L13.1452 3.40037L13.2828 2.40989ZM2 2.94632C2 2.40024 2.51032 1.92216 3.14517 2.0104L3.42052 0.0294457C1.64564 -0.217257 0 1.12397 0 2.94632H2ZM2 24.054V2.94632H0V24.054H2ZM3 25C2.42171 25 2 24.5508 2 24.054H0C0 25.7067 1.36915 27 3 27V25ZM5 25H3V27H5V25ZM4 20.1621L4 26L6 26L6 20.1621L4 20.1621ZM6 18.1892C4.92143 18.1892 4 19.0468 4 20.1621H6C6 20.1646 5.99972 20.168 5.99891 20.1719C5.99811 20.1757 5.99696 20.1791 5.99568 20.1821C5.99316 20.1879 5.99071 20.1904 5.99025 20.1909C5.9898 20.1913 5.99015 20.1909 5.99132 20.1904C5.9919 20.1901 5.99428 20.1892 6 20.1892V18.1892ZM10 18.1892H6V20.1892H10V18.1892ZM12 20.1621C12 19.0468 11.0786 18.1892 10 18.1892V20.1892C10.0057 20.1892 10.0081 20.1901 10.0087 20.1904C10.0099 20.1909 10.0102 20.1913 10.0098 20.1909C10.0093 20.1904 10.0068 20.1879 10.0043 20.1821C10.003 20.1791 10.0019 20.1757 10.0011 20.1719C10.0003 20.168 10 20.1646 10 20.1621H12ZM12 26V20.1621H10V26H12ZM13 25H11V27H13V25ZM13.2571 24.9686C13.1762 24.9889 13.0902 25 13 25V27C13.2551 27 13.5042 26.9685 13.743 26.9087L13.2571 24.9686ZM14 25C13.9098 25 13.8238 24.9889 13.7429 24.9686L13.2571 26.9087C13.4958 26.9685 13.7449 27 14 27V25ZM15 25H14V27H15V25ZM14 4.33628V26H16V4.33628H14ZM13.1452 3.40037C13.6567 3.47147 14 3.8875 14 4.33628H16C16 2.84826 14.8795 1.62221 13.4205 1.41941L13.1452 3.40037ZM3.14517 2.0104L13.1452 3.40037L13.4205 1.41941L3.42052 0.0294457L3.14517 2.0104ZM3.48649 5.54042C2.66552 5.54042 2 6.20595 2 7.02691H4C4 7.31052 3.77009 7.54042 3.48649 7.54042V5.54042ZM6.51351 5.54042H3.48649V7.54042H6.51351V5.54042ZM8 7.02691C8 6.20595 7.33448 5.54042 6.51351 5.54042V7.54042C6.22991 7.54042 6 7.31052 6 7.02691H8ZM6.51351 8.5134C7.33448 8.5134 8 7.84788 8 7.02691H6C6 6.74331 6.22991 6.5134 6.51351 6.5134V8.5134ZM3.48649 8.5134H6.51351V6.5134H3.48649V8.5134ZM2 7.02691C2 7.84788 2.66552 8.5134 3.48649 8.5134V6.5134C3.77009 6.5134 4 6.74331 4 7.02691H2ZM4 9.94576C4 10.2294 3.77009 10.4593 3.48649 10.4593V8.45928C2.66552 8.45928 2 9.1248 2 9.94576H4ZM3.48649 9.43225C3.77009 9.43225 4 9.66216 4 9.94576H2C2 10.7667 2.66553 11.4323 3.48649 11.4323V9.43225ZM6.51351 9.43225H3.48649V11.4323H6.51351V9.43225ZM6 9.94576C6 9.66216 6.22991 9.43225 6.51351 9.43225V11.4323C7.33447 11.4323 8 10.7667 8 9.94576H6ZM6.51351 10.4593C6.22991 10.4593 6 10.2294 6 9.94576H8C8 9.1248 7.33448 8.45928 6.51351 8.45928V10.4593ZM3.48649 10.4593H6.51351V8.45928H3.48649V10.4593ZM3.48649 11.3782C2.66552 11.3782 2 12.0437 2 12.8647H4C4 13.1483 3.77009 13.3782 3.48649 13.3782V11.3782ZM6.51351 11.3782H3.48649V13.3782H6.51351V11.3782ZM8 12.8647C8 12.0437 7.33448 11.3782 6.51351 11.3782V13.3782C6.22991 13.3782 6 13.1483 6 12.8647H8ZM6.51351 14.3512C7.33447 14.3512 8 13.6857 8 12.8647H6C6 12.5811 6.22991 12.3512 6.51351 12.3512V14.3512ZM3.48649 14.3512H6.51351V12.3512H3.48649V14.3512ZM2 12.8647C2 13.6857 2.66553 14.3512 3.48649 14.3512V12.3512C3.77009 12.3512 4 12.5811 4 12.8647H2ZM4 15.7836C4 16.0672 3.77009 16.2971 3.48649 16.2971V14.2971C2.66552 14.2971 2 14.9627 2 15.7836H4ZM3.48649 15.2701C3.77009 15.2701 4 15.5 4 15.7836H2C2 16.6046 2.66553 17.2701 3.48649 17.2701V15.2701ZM6.51351 15.2701H3.48649V17.2701H6.51351V15.2701ZM6 15.7836C6 15.5 6.22991 15.2701 6.51351 15.2701V17.2701C7.33447 17.2701 8 16.6046 8 15.7836H6ZM6.51351 16.2971C6.22991 16.2971 6 16.0672 6 15.7836H8C8 14.9627 7.33448 14.2971 6.51351 14.2971V16.2971ZM3.48649 16.2971H6.51351V14.2971H3.48649V16.2971ZM9.48649 5.54042C8.66552 5.54042 8 6.20595 8 7.02691H10C10 7.31052 9.77009 7.54042 9.48649 7.54042V5.54042ZM12.5135 5.54042H9.48649V7.54042H12.5135V5.54042ZM14 7.02691C14 6.20595 13.3345 5.54042 12.5135 5.54042V7.54042C12.2299 7.54042 12 7.31052 12 7.02691H14ZM12.5135 8.5134C13.3345 8.5134 14 7.84788 14 7.02691H12C12 6.74331 12.2299 6.5134 12.5135 6.5134V8.5134ZM9.48649 8.5134H12.5135V6.5134H9.48649V8.5134ZM8 7.02691C8 7.84788 8.66552 8.5134 9.48649 8.5134V6.5134C9.77009 6.5134 10 6.74331 10 7.02691H8ZM10 9.94576C10 10.2294 9.77009 10.4593 9.48649 10.4593V8.45928C8.66552 8.45928 8 9.1248 8 9.94576H10ZM9.48649 9.43225C9.77009 9.43225 10 9.66216 10 9.94576H8C8 10.7667 8.66552 11.4323 9.48649 11.4323V9.43225ZM12.5135 9.43225H9.48649V11.4323H12.5135V9.43225ZM12 9.94576C12 9.66216 12.2299 9.43225 12.5135 9.43225V11.4323C13.3345 11.4323 14 10.7667 14 9.94576H12ZM12.5135 10.4593C12.2299 10.4593 12 10.2294 12 9.94576H14C14 9.1248 13.3345 8.45928 12.5135 8.45928V10.4593ZM9.48649 10.4593H12.5135V8.45928H9.48649V10.4593ZM9.48649 11.3782C8.66552 11.3782 8 12.0437 8 12.8647H10C10 13.1483 9.77009 13.3782 9.48649 13.3782V11.3782ZM12.5135 11.3782H9.48649V13.3782H12.5135V11.3782ZM14 12.8647C14 12.0437 13.3345 11.3782 12.5135 11.3782V13.3782C12.2299 13.3782 12 13.1483 12 12.8647H14ZM12.5135 14.3512C13.3345 14.3512 14 13.6857 14 12.8647H12C12 12.5811 12.2299 12.3512 12.5135 12.3512V14.3512ZM9.48649 14.3512H12.5135V12.3512H9.48649V14.3512ZM8 12.8647C8 13.6857 8.66552 14.3512 9.48649 14.3512V12.3512C9.77009 12.3512 10 12.5811 10 12.8647H8ZM10 15.7836C10 16.0672 9.77009 16.2971 9.48649 16.2971V14.2971C8.66552 14.2971 8 14.9627 8 15.7836H10ZM9.48649 15.2701C9.77009 15.2701 10 15.5 10 15.7836H8C8 16.6046 8.66552 17.2701 9.48649 17.2701V15.2701ZM12.5135 15.2701H9.48649V17.2701H12.5135V15.2701ZM12 15.7836C12 15.5 12.2299 15.2701 12.5135 15.2701V17.2701C13.3345 17.2701 14 16.6046 14 15.7836H12ZM12.5135 16.2971C12.2299 16.2971 12 16.0672 12 15.7836H14C14 14.9627 13.3345 14.2971 12.5135 14.2971V16.2971ZM9.48649 16.2971H12.5135V14.2971H9.48649V16.2971Z" fill="#546A7B" mask="url(#path-3-outside-2)"/>
</svg>
