<svg width="512" height="512" viewBox="0 0 512 512" fill="none" xmlns="http://www.w3.org/2000/svg">
<g clip-path="url(#clip0)">
<path fill-rule="evenodd" clip-rule="evenodd" d="M158.297 435.672L105.137 417.407L52.0078 435.672C52.0078 506.036 158.297 506.036 158.297 435.672Z" fill="#DDB4B4"/>
<path fill-rule="evenodd" clip-rule="evenodd" d="M256 417.407L202.84 435.672C202.84 506.032 309.16 506.032 309.16 435.672L256 417.407Z" fill="#DDB4B4"/>
<path fill-rule="evenodd" clip-rule="evenodd" d="M409.949 418.063L353.703 435.672C353.703 506.032 459.992 506.032 459.992 435.672L409.949 418.063Z" fill="#DDB4B4"/>
<path fill-rule="evenodd" clip-rule="evenodd" d="M499.803 398.653L255.999 379.7L12.1951 398.653C1.51152 415.696 9.95681 435.102 31.7732 435.676H480.225C502.042 435.102 510.487 415.696 499.803 398.653Z" fill="#808080"/>
<path fill-rule="evenodd" clip-rule="evenodd" d="M251.238 324.184L52.8593 360.778L19.7031 389.95C16.5898 392.688 14.0937 395.629 12.1953 398.653H499.803C497.905 395.629 495.413 392.688 492.296 389.95L461.268 361.778L251.238 324.184Z" fill="#E6E6E6"/>
<path fill-rule="evenodd" clip-rule="evenodd" d="M267.476 361.777H468.831C483.85 361.574 493.882 351.527 493.882 325.668C493.882 323.899 493.796 322.156 493.628 320.359C490.62 288.477 461.663 251.629 437.464 245.289C395.585 234.301 362.968 225.594 310.378 212.18C290.484 205.903 274.245 199.278 269.601 191.602L261.015 155.321L195.472 155.122C156.851 154.977 139.621 170.508 138.574 205.786C142.429 300.465 21.5742 272.035 21.5742 213.434V322.984C21.5742 335.914 28.5742 350.957 40.6992 356.465C44.5273 358.719 48.6054 360.035 52.8554 360.777C58.4687 361.746 64.4179 361.773 70.453 361.773H267.476V361.777Z" fill="#2ED2E3"/>
<path fill-rule="evenodd" clip-rule="evenodd" d="M315.277 320.36C286.742 320.36 267.477 339.055 267.477 361.774H468.832C483.852 361.575 493.883 351.528 493.883 325.668C493.883 323.899 493.797 322.157 493.629 320.36H315.277Z" fill="#808080"/>
<path fill-rule="evenodd" clip-rule="evenodd" d="M343.051 220.516L337.75 238.895C336.137 244.434 339.336 250.286 344.805 251.883L353.024 254.309C358.52 255.907 364.329 252.711 365.915 247.172L371.469 227.965L371.528 227.821L372.266 225.251C373.852 219.715 370.676 213.864 365.18 212.266L356.965 209.84C351.465 208.243 345.684 211.438 344.071 216.973L343.333 219.544L343.051 220.516Z" fill="#DDB4B4"/>
<path fill-rule="evenodd" clip-rule="evenodd" d="M396.633 229.079L395.98 231.676L395.328 234.215L390.992 251.2C389.578 256.794 392.922 262.532 398.476 263.958L406.75 266.098C412.305 267.524 417.996 264.157 419.414 258.563L423.723 241.696L424.402 239.04L425.055 236.442C426.473 230.876 423.129 225.137 417.574 223.711L409.301 221.544C403.746 220.114 398.051 223.512 396.633 229.079V229.079Z" fill="#DDB4B4"/>
<path fill-rule="evenodd" clip-rule="evenodd" d="M198.535 24.7349L50.25 24.9068C33.1367 24.9068 21.5742 34.4107 21.5742 54.9615V75.0591L132.258 104.516L253.703 75.0591C254.414 51.8248 251.496 21.9966 198.535 24.7349Z" fill="#2ED2E3"/>
<path fill-rule="evenodd" clip-rule="evenodd" d="M144.27 75.0591H21.5742V223.598C21.5742 282.168 142.43 310.625 138.574 215.95C139.621 180.641 156.852 165.454 195.473 165.286L263.312 164.942L253.703 124.438C260.391 124.438 265.859 117.875 265.859 109.852V89.6411C265.859 81.6216 260.391 75.0552 253.703 75.0552H144.27V75.0591Z" fill="#E6E6E6"/>
<path fill-rule="evenodd" clip-rule="evenodd" d="M245.176 75.0591H144.27C137.641 75.1138 132.258 81.6802 132.258 89.645L132.227 109.852C132.227 117.875 137.695 124.438 144.383 124.438H253.707C260.395 124.438 265.863 117.875 265.863 109.852V89.6411C265.863 81.6216 260.395 75.0552 253.707 75.0552H245.176V75.0591Z" fill="#DDB4B4"/>
<path fill-rule="evenodd" clip-rule="evenodd" d="M269.602 191.598H236.449C228.488 191.598 221.969 198.165 221.969 206.184V218.204C221.969 226.223 228.484 232.79 236.449 232.79H295.898C303.859 232.79 310.379 226.223 310.379 218.204V206.184C310.379 198.165 303.863 191.598 295.898 191.598H269.602Z" fill="#DDB4B4"/>
<path fill-rule="evenodd" clip-rule="evenodd" d="M158.297 435.671H123.812C123.812 463.132 107.633 479.859 87.9102 485.91C118.77 495.328 158.297 478.574 158.297 435.671Z" fill="#FAE1DF"/>
<path fill-rule="evenodd" clip-rule="evenodd" d="M309.16 435.671H274.676C274.676 463.132 258.492 479.859 238.773 485.91C269.602 495.328 309.16 478.574 309.16 435.671Z" fill="#FAE1DF"/>
<path fill-rule="evenodd" clip-rule="evenodd" d="M425.506 435.671C425.506 463.132 409.354 479.859 389.604 485.91C420.463 495.328 459.99 478.574 459.99 435.671H425.506Z" fill="#FAE1DF"/>
<path fill-rule="evenodd" clip-rule="evenodd" d="M461.27 361.778H403.148L434.207 389.95C435.652 391.204 436.953 392.516 438.117 393.856C439.477 395.426 440.664 397.028 441.688 398.653H499.805C497.906 395.625 495.41 392.688 492.297 389.946L461.27 361.778Z" fill="#C2C7CC"/>
<path fill-rule="evenodd" clip-rule="evenodd" d="M499.803 398.652H441.686C448.541 409.558 447.553 421.429 440.213 428.711C436.104 432.82 429.982 435.472 422.104 435.675H480.221C502.041 435.101 510.486 415.695 499.803 398.652V398.652Z" fill="#666666"/>
<path fill-rule="evenodd" clip-rule="evenodd" d="M493.627 320.359H472.771C472.912 322.156 472.998 323.898 472.998 325.668C472.998 342.738 468.635 352.926 461.354 357.922C457.584 360.492 453.049 361.687 447.947 361.773H468.834C483.85 361.574 493.881 351.527 493.881 325.668C493.881 323.898 493.795 322.156 493.627 320.359V320.359Z" fill="#666666"/>
<path fill-rule="evenodd" clip-rule="evenodd" d="M245.176 75.0591H197.996C203.492 75.1138 208.168 79.6528 209.586 85.7622C209.867 86.9888 210.039 88.3013 210.039 89.645V109.852C210.039 117.875 204.57 124.438 197.883 124.438H253.707C260.395 124.438 265.863 117.875 265.863 109.852V89.6411C265.863 81.6216 260.395 75.0552 253.707 75.0552H245.176V75.0591Z" fill="#FAE1DF"/>
<path fill-rule="evenodd" clip-rule="evenodd" d="M253.703 75.0591C254.414 51.8248 251.496 21.9966 198.535 24.7349L178.812 24.7662C219.672 27.106 222.082 53.8209 221.43 75.0591H253.703Z" fill="#00B6C8"/>
<path fill-rule="evenodd" clip-rule="evenodd" d="M250.617 124.438H222.281C221.996 124.465 221.715 124.465 221.43 124.465L228.711 155.239L228.77 155.379L231.035 164.969L231.062 165.114L263.312 164.942L261.016 155.325L253.703 124.438H250.617Z" fill="#C2C7CC"/>
<path fill-rule="evenodd" clip-rule="evenodd" d="M263.312 164.942L231.062 165.114L237.355 191.598H269.602L263.312 164.942Z" fill="#00B6C8"/>
<path fill-rule="evenodd" clip-rule="evenodd" d="M292.215 191.598H269.688H269.715C276.203 191.657 281.699 196.051 283.484 202.016C283.883 203.36 284.109 204.758 284.109 206.184V218.204C284.109 226.223 277.594 232.79 269.602 232.79H295.898C303.859 232.79 310.379 226.223 310.379 218.204V206.184C310.379 198.165 303.859 191.598 295.898 191.598H292.215Z" fill="#FAE1DF"/>
<path fill-rule="evenodd" clip-rule="evenodd" d="M395.328 234.215C394.449 237.669 393.035 241.637 392.551 245.032L420.719 253.137C421.938 250.001 422.844 245.09 423.723 241.692L425.055 236.442C426.473 230.876 423.129 225.137 417.574 223.711L409.301 221.544C403.746 220.114 398.051 223.512 396.633 229.079L395.328 234.215Z" fill="#FAE1DF"/>
<path fill-rule="evenodd" clip-rule="evenodd" d="M395.328 234.215L371.469 227.965L366.285 245.918C374.531 248.059 382.605 250.2 390.766 252.34C390.824 251.969 390.879 251.598 390.992 251.2L395.328 234.215Z" fill="#00B6C8"/>
<path fill-rule="evenodd" clip-rule="evenodd" d="M356.961 209.84C351.465 208.243 345.684 211.438 344.07 216.973L343.051 220.512L340.215 230.305L368.352 238.723L371.469 227.961L372.262 225.251C373.852 219.715 370.676 213.864 365.18 212.262L356.961 209.84Z" fill="#FAE1DF"/>
<path fill-rule="evenodd" clip-rule="evenodd" d="M343.051 220.571C332.934 217.973 322.164 215.208 310.379 212.18V218.204C310.379 222.028 308.875 225.54 306.438 228.165L338.262 237.098L339.934 231.305L343.051 220.571Z" fill="#00B6C8"/>
<path fill-rule="evenodd" clip-rule="evenodd" d="M493.627 320.359C490.623 288.477 461.662 251.625 437.463 245.289C437.408 245.262 437.35 245.262 437.295 245.23L435.65 244.805L423.721 241.695C423.721 241.723 423.721 241.75 423.693 241.781C422.9 244.949 422.049 249.344 420.975 252.453L419.416 258.562C419.303 258.992 419.189 259.391 419.018 259.789C419.217 259.82 419.416 259.875 419.643 259.934C440.186 265.328 464.158 292.699 472.771 320.359H493.627Z" fill="#00B6C8"/>
<path d="M506.116 394.5C506.089 394.465 506.066 394.425 506.042 394.386C503.757 390.816 500.843 387.414 497.331 384.312L479.085 367.746C489.948 364.273 501.437 353.922 501.437 325.668C501.437 323.844 501.339 321.98 501.171 320.094C501.159 319.863 501.144 319.629 501.116 319.402C499.585 303.957 492.589 286.738 481.386 271.203C468.843 253.801 453.531 241.695 439.378 237.981L432.765 236.25C433.968 227.32 428.347 218.676 419.488 216.402L411.175 214.223C406.542 213.031 401.71 213.727 397.578 216.176C394.109 218.234 391.503 221.324 390.039 225.02L380.214 222.445C380.257 214.578 375.16 207.297 367.316 205.02L359.07 202.582C350.773 200.172 342.105 204.074 338.191 211.477L317.933 206.309V206.188C317.933 193.977 308.047 184.043 295.898 184.043H275.578L270.742 163.621C270.687 163.293 270.613 162.969 270.515 162.66L262.683 129.555C269.051 125.879 273.418 118.43 273.418 109.852V89.645C273.418 80.4692 268.426 72.5825 261.332 69.227C261.215 55.688 258.898 41.3521 248.129 30.8092C237.578 20.4811 221.293 16.0241 198.336 17.1803L144.406 17.2389C140.231 17.2428 136.852 20.6295 136.856 24.8014C136.859 28.9732 140.242 32.3521 144.41 32.3521H144.422L198.543 32.2935C198.672 32.2935 198.797 32.2896 198.926 32.2818C217.273 31.3287 230.269 34.4732 237.558 41.6099C244.152 48.0669 245.945 57.5357 246.195 67.5005H29.1332V54.9615C29.1332 39.8248 36.0394 32.4654 50.2582 32.4654L106.731 32.4068C110.906 32.4029 114.285 29.0162 114.281 24.8404C114.278 20.6686 110.895 17.2936 106.727 17.2936C106.723 17.2936 106.719 17.2936 106.719 17.2936L50.2503 17.3522C27.5629 17.3522 14.02 31.4107 14.02 54.9615V322.984C14.02 337.16 21.2778 355.707 37.2074 363.176C37.5121 363.351 37.8207 363.504 38.1293 363.672L14.7075 384.281C11.1762 387.394 8.24654 390.808 5.95358 394.394C5.93404 394.425 5.91451 394.457 5.89498 394.488C-0.0385975 403.82 -1.65188 414.324 1.78171 423.785C6.05904 435.578 17.1957 442.843 31.5746 443.23H31.7777H44.848C48.473 477.91 76.969 495.999 105.153 495.999C133.336 495.999 161.836 477.91 165.461 443.23H195.68C199.305 477.91 227.812 495.999 256.004 495.999C284.191 495.999 312.695 477.91 316.324 443.23H346.543C350.168 477.91 378.668 495.999 406.851 495.999C435.035 495.999 463.531 477.91 467.156 443.23H480.226H480.429C494.808 442.843 505.945 435.578 510.222 423.785C513.648 414.328 512.038 403.832 506.116 394.5V394.5ZM468.781 354.219H275.926C279.683 338.605 295.078 327.914 315.277 327.914H486.292C485.632 353.898 473.491 354.156 468.781 354.219ZM403.957 230.941C404.21 229.941 404.898 229.406 405.285 229.18C405.664 228.953 406.449 228.613 407.382 228.852L415.691 231.031C417.191 231.414 418.121 233.039 417.726 234.602L412.089 256.707C411.835 257.707 411.156 258.238 410.777 258.465C410.398 258.688 409.609 259.031 408.64 258.781L400.355 256.637C398.859 256.25 397.929 254.613 398.316 253.059L403.312 233.512L403.957 230.941ZM354.074 216.981C354.324 216.981 354.574 217.016 354.82 217.086L363.07 219.52C364.558 219.953 365.441 221.625 365 223.168L364.222 225.848C364.203 225.914 364.179 225.981 364.16 226.047C364.156 226.07 364.152 226.094 364.148 226.113L358.652 245.09C358.371 246.078 357.671 246.586 357.281 246.801C356.894 247.016 356.097 247.332 355.164 247.059L346.925 244.629C345.437 244.195 344.558 242.539 345.004 241.012C345.007 241.004 345.007 240.996 345.011 240.992L351.324 219.094C351.695 217.813 352.851 216.981 354.074 216.981V216.981ZM302.82 206.184V218.203C302.82 222.078 299.715 225.231 295.898 225.231H236.449C232.633 225.231 229.527 222.078 229.527 218.203V206.184C229.527 202.309 232.633 199.156 236.449 199.156H269.574C269.582 199.156 269.59 199.16 269.597 199.16C269.605 199.16 269.617 199.156 269.629 199.156H295.898C299.715 199.156 302.82 202.309 302.82 206.184V206.184ZM253.703 82.6137C255.875 82.6137 258.305 85.6215 258.305 89.645V109.852C258.305 113.875 255.875 116.879 253.703 116.879H144.383C142.215 116.879 139.785 113.875 139.785 109.864L139.813 89.645C139.813 85.6215 142.227 82.6137 144.383 82.6137H253.703ZM125.719 82.6137C125.063 84.8208 124.699 87.1801 124.699 89.6332L124.672 109.852C124.672 122.059 133.516 131.993 144.383 131.993H247.726L253.75 157.43L195.441 157.727C152.66 157.914 132.192 176.344 131.024 215.723C131.016 215.902 131.02 216.078 131.024 216.254C131.945 238.887 125.207 255.293 111.535 263.688C96.633 272.84 73.8636 271.852 54.8792 261.23C38.7582 252.215 29.1332 238.145 29.1332 223.598V82.6137H125.719ZM70.4534 369.332H156.824C160.996 369.332 164.379 365.949 164.379 361.773C164.379 357.601 160.996 354.219 156.824 354.219H70.4534C60.8402 354.219 51.7582 354.219 44.5433 349.957C44.309 349.82 44.0707 349.695 43.8246 349.586C34.2816 345.25 29.1332 332.644 29.1332 322.984V260.098C34.1605 265.559 40.3363 270.414 47.5003 274.422C60.1917 281.523 74.0745 285.102 87.2581 285.102C98.9846 285.102 110.16 282.269 119.445 276.566C132.391 268.617 147.512 251.641 146.137 215.914C147.125 185.074 160.988 172.992 195.512 172.84L257.32 172.528L260.047 184.043H236.449C224.297 184.043 214.414 193.977 214.414 206.184V218.203C214.414 230.41 224.301 240.344 236.449 240.344H295.898C306.82 240.344 315.906 232.32 317.632 221.828L333.629 225.91L330.492 236.793C327.718 246.34 333.183 256.359 342.664 259.133L350.914 261.566C352.566 262.047 354.253 262.285 355.929 262.285C358.921 262.285 361.886 261.527 364.586 260.035C368.804 257.707 371.855 253.879 373.175 249.281L376.691 237.145L386.148 239.621L383.671 249.328C383.671 249.332 383.671 249.34 383.667 249.344C381.23 258.98 387.027 268.82 396.582 271.273L404.867 273.418C406.355 273.801 407.859 273.988 409.355 273.988C412.539 273.988 415.675 273.133 418.488 271.461C422.628 269.008 425.558 265.082 426.738 260.434L429.163 250.93L435.55 252.598C454.242 257.504 478.386 285.758 484.73 312.801H315.281C286.636 312.801 264.39 330.14 260.519 354.219H191.449C187.277 354.219 183.895 357.601 183.895 361.773C183.895 365.949 187.277 369.332 191.449 369.332H458.347L482.32 391.097H29.8402L55.2581 368.73C60.4456 369.324 65.598 369.332 70.4534 369.332V369.332ZM105.153 480.886C85.0628 480.886 63.5706 469.039 60.0628 443.23H150.242C146.734 469.039 125.242 480.886 105.153 480.886ZM256 480.886C235.902 480.886 214.406 469.039 210.894 443.23H301.105C297.593 469.039 276.097 480.886 256 480.886V480.886ZM406.847 480.886C386.757 480.886 365.265 469.039 361.757 443.23H451.937C448.429 469.039 426.937 480.886 406.847 480.886ZM496.011 418.629C493.909 424.421 488.12 427.875 480.12 428.117H31.8793C23.8793 427.875 18.0903 424.421 15.9887 418.629C14.5942 414.789 14.9223 410.472 16.7426 406.211H495.257C497.077 410.472 497.405 414.789 496.011 418.629V418.629Z" fill="#546A7B"/>
</g>
<defs>
<clipPath id="clip0">
<rect width="512" height="512" fill="white"/>
</clipPath>
</defs>
</svg>
