<svg width="20" height="23" viewBox="0 0 20 23" fill="none" xmlns="http://www.w3.org/2000/svg">
<rect x="0.5" y="0.5" width="19" height="6" rx="1.5" fill="#D8D8D8" stroke="#546A7B"/>
<rect x="0.5" y="8.5" width="19" height="6" rx="1.5" fill="#F5F6F6" stroke="#546A7B"/>
<path d="M2 16.5H18C18.8284 16.5 19.5 17.1716 19.5 18V21C19.5 21.8284 18.8284 22.5 18 22.5H2C1.17157 22.5 0.5 21.8284 0.5 21V18C0.5 17.1716 1.17157 16.5 2 16.5Z" stroke="#546A7B"/>
<rect x="2.5" y="2.5" width="3" height="2" rx="0.5" fill="white" stroke="#546A7B"/>
<rect x="2.5" y="10.5" width="3" height="2" rx="0.5" fill="white" stroke="#546A7B"/>
<rect x="2.5" y="18.5" width="3" height="2" rx="0.5" fill="white" stroke="#546A7B"/>
<rect x="7.25" y="2.25" width="10.5" height="0.5" rx="0.25" fill="#F5F6F6" stroke="#546A7B" stroke-width="0.5"/>
<rect x="7.25" y="10.25" width="10.5" height="0.5" rx="0.25" fill="#F5F6F6" stroke="#546A7B" stroke-width="0.5"/>
<rect x="7.25" y="18.25" width="10.5" height="0.5" rx="0.25" fill="#F5F6F6" stroke="#546A7B" stroke-width="0.5"/>
<rect x="7.25" y="4.25" width="4.5" height="0.5" rx="0.25" fill="#F5F6F6" stroke="#546A7B" stroke-width="0.5"/>
<rect x="7.25" y="12.25" width="4.5" height="0.5" rx="0.25" fill="#F5F6F6" stroke="#546A7B" stroke-width="0.5"/>
<rect x="7.25" y="20.25" width="4.5" height="0.5" rx="0.25" fill="#F5F6F6" stroke="#546A7B" stroke-width="0.5"/>
</svg>
