<svg id="Capa_1" enable-background="new 0 0 509.524 509.524" height="512" viewBox="0 0 509.524 509.524" width="512" xmlns="http://www.w3.org/2000/svg"><g><g><g><path d="m334.046 177.755 14.726 8.934c47.773 28.983 76.329 81.364 74.807 137.22l-1.526 56.011c-.066 2.423.633 4.805 1.997 6.809l28.416 41.741c21.272 31.246-1.108 73.555-38.908 73.555h-317.593c-37.8 0-60.179-42.308-38.908-73.555l28.416-41.741c1.364-2.004 2.062-4.386 1.997-6.809l-1.526-56.011c-1.521-55.856 27.035-108.237 74.807-137.22l24.917-21.796 11.359-14.336-13.686-37.096-20.46-65.835c-6.487-20.873 11.698-41.094 33.14-36.851l30.273 5.991 7.217-3.836c13.6-7.228 29.901-7.228 43.501 0l7.217 3.836 30.273-5.991c21.442-4.244 39.627 15.978 33.14 36.851l-20.46 65.835-16.427 50.148z" fill="#f7cf8f"/></g><g><path d="m427.545 468.41s-209.573-.809-297.562-2.28c-17.339-.29-27.622-19.5-18.249-34.089 7.953-12.379 15.262-23.479 15.262-23.479 1.364-2.004 2.062-4.386 1.996-6.809l-1.526-56.011c-1.492-54.795 25.96-106.244 72.104-135.542 1.937-1.229 21.341-14.877 30.933-14.877h94.633c8.767 0 16.714-3.577 22.461-9.347l-13.552-8.222-23.291-14.147 16.427-50.148 4.453-14.328c-2.098-.439-4.271-.672-6.497-.672h-84.937c-15.628 0-29.497-10.012-34.418-24.845l-1.379-4.156c-.552-1.776-.574-4.051-.253-6.561 1.048-8.197 9.01-13.688 17.119-11.997 5.247 1.094 10.686.01 15.44-2.465 13.604-7.081 29.847-6.978 43.374.307 4.577 2.465 9.909 3.137 15.008 2.128l22.255-4.405c11.064-2.19 21.25 2.143 27.638 9.709l2.658-8.552c6.487-20.873-11.698-41.094-33.14-36.851l-30.273 5.991-7.217-3.836c-13.6-7.228-29.901-7.228-43.501 0l-7.217 3.836-30.273-5.991c-21.442-4.244-39.627 15.978-33.14 36.851l.474 1.524 19.987 64.31 13.686 37.096-11.359 14.336-24.917 21.796c-47.773 28.983-76.329 81.364-74.807 137.22l1.526 56.01c.066 2.423-.633 4.806-1.997 6.809l-28.416 41.741c-21.237 31.196 1.036 73.414 38.725 73.551.061 0 .122.003.183.003h317.593c27.725 0 47.153-22.762 47.146-47.225-8.269 8.282-19.741 13.617-33.16 13.617z" fill="#f5c374"/><path d="m325.138 146.891h-140.752c-9.232 0-16.716-7.484-16.716-16.716 0-9.232 7.484-16.716 16.716-16.716h140.752c9.232 0 16.716 7.484 16.716 16.716 0 9.233-7.484 16.716-16.716 16.716z" fill="#e5827f"/><path d="m325.138 180.324h-140.752c-9.232 0-16.716-7.484-16.716-16.716 0-9.232 7.484-16.716 16.716-16.716h140.752c9.232 0 16.716 7.484 16.716 16.716 0 9.232-7.484 16.716-16.716 16.716z" fill="#e5827f"/><path d="m328.329 131.512h-140.751c-7.603 0-14.005-5.092-16.033-12.04-2.415 2.898-3.875 6.635-3.875 10.703 0 9.232 7.484 16.716 16.716 16.716h140.752c9.232 0 16.716-7.484 16.716-16.716 0-1.629-.23-3.194-.665-4.683-3.066 3.681-7.695 6.02-12.86 6.02z" fill="#de6a66"/><path d="m328.329 164.945h-140.751c-7.603 0-14.009-5.081-16.037-12.029-2.415 2.898-3.87 6.624-3.87 10.691 0 9.232 7.484 16.716 16.716 16.716h140.752c9.232 0 16.716-7.484 16.716-16.716 0-1.629-.235-3.209-.669-4.698-3.068 3.681-7.692 6.036-12.857 6.036z" fill="#de6a66"/><circle cx="255.262" cy="339.889" fill="#fcf0b6" r="120.685"/><path d="m272.563 321.483c-13.275-4.896-25.57-10.158-30.24-12.193-.653-.285-.888-.484-.891-.486-1.92-1.719-2.705-4.376-2.097-7.109.476-2.139 2.202-6.006 8.423-7.881 10.701-3.224 20.932 1.145 26.428 4.305 2.532 1.456 5.74.874 7.62-1.362l11.643-13.85c2.355-2.802 1.707-7.033-1.383-8.995-4.802-3.049-12.414-7.098-21.804-9.412v-7.776c0-3.352-2.717-6.068-6.068-6.068h-17.864c-3.352 0-6.068 2.717-6.068 6.068v8.05c-.386.108-.769.199-1.157.316-15.01 4.521-25.872 15.773-29.055 30.097-2.949 13.27 1.41 27.054 11.375 35.972 2.528 2.264 5.528 4.16 8.915 5.635 4.908 2.138 17.834 7.67 31.84 12.836 3.762 1.387 15.92 6.546 14.468 14.683-1.084 6.067-8.552 12.342-19.175 12.342-9.323 0-18.346-3.145-25.022-8.577-2.232-1.816-5.467-1.689-7.6.243l-13.63 12.352c-2.594 2.351-2.563 6.424.043 8.761 8.131 7.29 18.116 12.466 28.997 15.137v13.113c0 2.49 2.019 4.509 4.509 4.509h20.982c2.49 0 4.509-2.019 4.509-4.509v-12.512c18.47-4.364 32.778-17.997 35.918-35.585 2.893-16.194-4.421-37.334-33.616-48.104z" fill="#fbe372"/></g></g><g><path d="m458.666 424.248-28.417-41.742c-.48-.705-.722-1.528-.698-2.383l1.525-56.01c.812-29.804-6.579-59.27-21.376-85.212-2.053-3.598-6.634-4.852-10.23-2.799-3.598 2.052-4.852 6.632-2.799 10.23 13.436 23.558 20.148 50.312 19.411 77.372l-1.525 56.009c-.11 4.024 1.028 7.909 3.293 11.235l28.416 41.741c8.398 12.336 9.246 27.576 2.269 40.768-6.978 13.191-20.053 21.066-34.976 21.066h-317.594c-14.923 0-27.998-7.875-34.976-21.066s-6.13-28.432 2.268-40.768l28.416-41.742c2.265-3.327 3.404-7.212 3.293-11.233l-1.525-56.01c-1.444-53.039 25.838-103.083 71.201-130.604l11.243-6.821c2.647.996 5.51 1.544 8.5 1.544h140.752c2.99 0 5.854-.548 8.5-1.544l11.244 6.821c12.743 7.731 24.213 17.314 34.09 28.483 1.482 1.676 3.547 2.531 5.621 2.531 1.766 0 3.539-.62 4.966-1.882 3.103-2.744 3.394-7.484.649-10.587-10.879-12.301-23.511-22.855-37.546-31.37l-6.813-4.133c2.223-3.659 3.504-7.951 3.504-12.536 0-6.479-2.562-12.366-6.72-16.716 4.158-4.35 6.72-10.238 6.72-16.716 0-9.254-5.22-17.308-12.867-21.383l18.318-58.942c3.839-12.352.966-25.468-7.683-35.085s-21.39-13.859-34.076-11.349l-27.652 5.475-4.859-2.583c-15.826-8.41-34.719-8.409-50.541 0l-4.86 2.583-27.654-5.473c-12.689-2.511-25.428 1.731-34.077 11.349-8.649 9.617-11.521 22.733-7.682 35.084l18.18 58.5c-8.116 3.915-13.73 12.227-13.73 21.826 0 6.478 2.562 12.366 6.72 16.716-4.158 4.35-6.72 10.238-6.72 16.716 0 4.585 1.281 8.877 3.504 12.536l-6.812 4.133c-49.959 30.309-80.006 85.424-78.415 143.836l1.525 56.012c.023.853-.218 1.677-.699 2.382l-28.416 41.741c-11.582 17.013-12.751 38.031-3.128 56.223s27.655 29.053 48.235 29.053h317.594c20.58 0 38.612-10.861 48.234-29.053 9.625-18.192 8.456-39.21-3.125-56.223zm-274.28-251.425c-5.082 0-9.216-4.134-9.216-9.216s4.134-9.216 9.216-9.216h140.752c5.082 0 9.216 4.134 9.216 9.216s-4.134 9.216-9.216 9.216zm-9.832-148.027c5.079-5.648 12.561-8.141 20.011-6.665l30.272 5.991c1.694.334 3.451.076 4.976-.734l7.218-3.836c11.415-6.066 25.046-6.066 36.462 0l7.217 3.835c1.524.811 3.284 1.069 4.976.735l30.272-5.991c7.454-1.475 14.932 1.017 20.011 6.664s6.766 13.35 4.512 20.603l-18.822 60.561h-86.319c-4.142 0-7.5 3.358-7.5 7.5s3.358 7.5 7.5 7.5h89.798c5.082 0 9.216 4.134 9.216 9.216s-4.134 9.216-9.216 9.216h-140.752c-5.082 0-9.216-4.134-9.216-9.216s4.134-9.216 9.216-9.216h18.991c4.142 0 7.5-3.358 7.5-7.5s-3.358-7.5-7.5-7.5h-14.513l-18.821-60.561c-2.254-7.252-.567-14.954 4.511-20.602z"/><path d="m166.936 410.659c-2.591-3.23-7.312-3.749-10.543-1.156-3.23 2.592-3.748 7.312-1.156 10.543 24.489 30.521 60.947 48.027 100.025 48.027 70.682 0 128.185-57.503 128.185-128.185s-57.503-128.185-128.185-128.185c-70.681 0-128.185 57.503-128.185 128.185 0 17.74 3.566 34.931 10.6 51.095 1.652 3.798 6.07 5.539 9.869 3.885 3.798-1.652 5.538-6.071 3.885-9.869-6.207-14.265-9.354-29.442-9.354-45.11 0-62.411 50.774-113.185 113.185-113.185s113.185 50.774 113.185 113.185c0 62.41-50.774 113.185-113.185 113.185-34.505 0-66.699-15.459-88.326-42.415z"/><path d="m264.194 243.156h-17.864c-7.481 0-13.568 6.087-13.568 13.568v2.627c-15.472 6.05-26.56 18.574-30.034 34.208-3.537 15.914 1.71 32.463 13.693 43.187 3.125 2.798 6.8 5.127 10.922 6.923 4.971 2.166 18.063 7.767 32.241 12.997 6.082 2.243 9.487 5.269 9.68 6.327-.396 2.211-4.674 6.162-11.792 6.162-7.509 0-14.904-2.513-20.287-6.894-5.051-4.111-12.519-3.895-17.371.502l-13.63 12.352c-2.801 2.539-4.402 6.164-4.392 9.945.01 3.793 1.638 7.423 4.466 9.958 7.541 6.76 16.614 11.951 26.503 15.2v7.465c0 6.622 5.387 12.009 12.009 12.009h20.982c6.622 0 12.009-5.387 12.009-12.009v-6.882c18.751-6.449 32.533-21.596 35.801-39.896 3.426-19.181-4.864-44.085-38.404-56.458-11.903-4.39-23.013-9.081-28.406-11.41.365-.805 1.494-1.537 3.168-2.042 8.12-2.447 16.345 1.221 20.525 3.625 5.682 3.266 12.872 1.991 17.101-3.037l11.643-13.85c2.516-2.993 3.617-6.924 3.021-10.787-.596-3.859-2.828-7.273-6.125-9.366-4.226-2.683-10.542-6.136-18.324-8.715v-2.142c.001-7.481-6.086-13.567-13.567-13.567zm22.432 36.211-9.787 11.643c-6.565-3.569-18.472-8.223-31.245-4.377-10.248 3.087-12.912 10.423-13.581 13.435-1.204 5.417.447 10.772 4.417 14.325.068.061.138.121.208.179.709.589 1.614 1.126 2.689 1.594 4.729 2.061 17.18 7.389 30.641 12.354 31.276 11.537 29.974 33.34 28.83 39.748-2.544 14.242-14.421 25.863-30.26 29.605-3.385.799-5.775 3.821-5.775 7.299v9.521h-15v-10.123c0-3.453-2.358-6.46-5.712-7.284-9.124-2.24-17.538-6.472-24.444-12.278l11.265-10.208c7.883 5.96 18.22 9.355 28.602 9.355 13.254 0 24.671-7.963 26.559-18.524 1.671-9.363-5.528-17.975-19.256-23.037-13.812-5.095-26.588-10.562-31.44-12.675-2.653-1.156-4.977-2.619-6.909-4.349-7.947-7.112-11.417-18.13-9.055-28.756 2.587-11.639 11.52-20.814 23.893-24.541.153-.046.304-.084.456-.124l.552-.148c3.245-.902 5.49-3.857 5.49-7.226v-6.619h15v6.344c0 3.451 2.354 6.457 5.706 7.282 7.561 1.864 13.856 5.002 18.156 7.585z"/></g></g></svg>