<svg width="512" height="512" viewBox="0 0 512 512" fill="none" xmlns="http://www.w3.org/2000/svg">
<g clip-path="url(#clip0)">
<path d="M335.67 178.618L350.467 187.596C398.473 216.72 427.167 269.355 425.638 325.483L424.105 381.766C424.038 384.201 424.741 386.594 426.111 388.608L454.665 430.552C476.041 461.95 453.552 504.464 415.568 504.464H96.4319C58.4482 504.464 35.9605 461.951 57.3348 430.552L85.8889 388.608C87.2595 386.594 87.9609 384.201 87.8956 381.766L86.3622 325.483C84.8338 269.355 113.529 216.72 161.533 187.596L186.571 165.694L197.985 151.288L184.233 114.012L163.673 47.8571C157.155 26.8827 175.428 6.56342 196.974 10.827L227.394 16.8472L234.646 12.9925C248.312 5.72938 264.693 5.72938 278.359 12.9925L285.611 16.8472L316.031 10.827C337.577 6.56241 355.85 26.8827 349.332 47.8571L328.773 114.012L312.266 164.404L335.67 178.618Z" fill="#FAE1DF"/>
<path d="M429.622 470.686C429.622 470.686 219.031 469.873 130.614 468.395C113.191 468.104 102.858 448.8 112.277 434.14C120.268 421.701 127.613 410.547 127.613 410.547C128.983 408.533 129.685 406.14 129.619 403.705L128.085 347.422C126.586 292.361 154.171 240.662 200.54 211.221C202.486 209.986 221.984 196.272 231.623 196.272H326.716C335.525 196.272 343.511 192.678 349.286 186.88L335.668 178.618L312.264 164.402L328.771 114.01L333.245 99.6125C331.137 99.1714 328.953 98.9372 326.717 98.9372H241.367C225.663 98.9372 211.727 88.8766 206.782 73.9715L205.396 69.7953C204.841 68.0107 204.819 65.7246 205.142 63.2024C206.195 54.9656 214.196 49.4479 222.344 51.1471C227.616 52.2465 233.082 51.1572 237.859 48.6702C251.529 41.5547 267.851 41.6582 281.444 48.9786C286.043 51.4556 291.401 52.1309 296.525 51.117L318.888 46.6906C330.006 44.4899 340.241 48.844 346.66 56.4468L349.331 47.8532C355.85 26.8788 337.576 6.55951 316.03 10.8231L285.61 16.8432L278.358 12.9886C264.692 5.72548 248.312 5.72548 234.645 12.9886L227.393 16.8432L196.973 10.8231C175.427 6.55851 157.154 26.8788 163.672 47.8532L164.148 49.3846L184.233 114.007L197.985 151.283L186.571 165.689L161.533 187.591C113.528 216.715 84.8329 269.35 86.3623 325.478L87.8958 381.76C87.9621 384.195 87.2597 386.589 85.889 388.602L57.335 430.546C35.9948 461.893 58.376 504.317 96.2481 504.454C96.3094 504.454 96.3707 504.457 96.432 504.457H415.568C443.428 504.457 462.95 481.585 462.943 457.003C454.634 465.325 443.107 470.686 429.622 470.686V470.686Z" fill="#F0BFBC"/>
<path d="M326.718 147.605H185.282C176.005 147.605 168.484 140.084 168.484 130.807C168.484 121.531 176.005 114.01 185.282 114.01H326.718C335.994 114.01 343.515 121.531 343.515 130.807C343.515 140.085 335.994 147.605 326.718 147.605Z" fill="#ADCAB5"/>
<path d="M326.718 181.2H185.282C176.005 181.2 168.484 173.68 168.484 164.403C168.484 155.126 176.005 147.605 185.282 147.605H326.718C335.994 147.605 343.515 155.126 343.515 164.403C343.515 173.68 335.994 181.2 326.718 181.2Z" fill="#ADCAB5"/>
<path d="M329.924 132.151H188.489C180.849 132.151 174.416 127.034 172.378 120.052C169.951 122.964 168.484 126.719 168.484 130.807C168.484 140.084 176.005 147.604 185.282 147.604H326.718C335.994 147.604 343.515 140.084 343.515 130.807C343.515 129.17 343.284 127.598 342.847 126.101C339.766 129.8 335.114 132.151 329.924 132.151V132.151Z" fill="#C4E1CC"/>
<path d="M329.925 165.746H188.49C180.85 165.746 174.413 160.641 172.375 153.659C169.948 156.571 168.486 160.315 168.486 164.402C168.486 173.679 176.007 181.199 185.284 181.199H326.72C335.996 181.199 343.517 173.679 343.517 164.402C343.517 162.765 343.281 161.177 342.845 159.681C339.762 163.38 335.115 165.746 329.925 165.746V165.746Z" fill="#C4E1CC"/>
<path d="M256.502 462.812C323.478 462.812 377.773 408.517 377.773 341.541C377.773 274.564 323.478 220.269 256.502 220.269C189.526 220.269 135.23 274.564 135.23 341.541C135.23 408.517 189.526 462.812 256.502 462.812Z" fill="#F3F3F3"/>
<path d="M273.886 323.045C260.547 318.125 248.192 312.838 243.499 310.793C242.843 310.506 242.607 310.306 242.604 310.304C240.675 308.577 239.886 305.907 240.497 303.161C240.975 301.011 242.71 297.126 248.961 295.241C259.714 292.002 269.995 296.392 275.517 299.567C278.062 301.03 281.285 300.446 283.174 298.199L294.874 284.282C297.24 281.466 296.589 277.214 293.484 275.243C288.659 272.179 281.01 268.11 271.574 265.785V257.971C271.574 254.603 268.844 251.874 265.477 251.874H247.526C244.158 251.874 241.428 254.604 241.428 257.971V266.06C241.041 266.169 240.656 266.26 240.266 266.378C225.183 270.921 214.268 282.228 211.07 296.621C208.106 309.956 212.486 323.807 222.5 332.768C225.04 335.043 228.055 336.948 231.458 338.43C236.39 340.579 249.379 346.138 263.453 351.329C267.233 352.722 279.45 357.907 277.991 366.083C276.902 372.18 269.398 378.485 258.723 378.485C249.355 378.485 240.288 375.325 233.579 369.866C231.337 368.042 228.086 368.169 225.943 370.111L212.246 382.523C209.64 384.885 209.671 388.978 212.29 391.326C220.46 398.652 230.494 403.853 241.427 406.537V419.713C241.427 422.216 243.456 424.244 245.958 424.244H267.042C269.544 424.244 271.573 422.216 271.573 419.713V407.141C290.133 402.755 304.51 389.056 307.666 371.383C310.573 355.11 303.223 333.867 273.886 323.045Z" fill="#FBE372"/>
<path d="M460.895 426.309L432.34 384.365C431.857 383.656 431.614 382.829 431.638 381.97L433.171 325.688C433.987 295.739 426.56 266.13 411.691 240.062C409.628 236.446 405.025 235.186 401.411 237.249C397.796 239.311 396.536 243.913 398.599 247.529C412.1 271.201 418.844 298.085 418.104 325.277L416.571 381.558C416.461 385.602 417.604 389.506 419.88 392.848L448.435 434.792C456.873 447.187 457.725 462.502 450.715 475.758C443.703 489.013 430.564 496.926 415.569 496.926H96.4313C81.4358 496.926 68.2972 489.013 61.2853 475.758C54.2734 462.503 55.1255 447.187 63.5643 434.792L92.1184 392.847C94.3944 389.503 95.539 385.6 95.4274 381.559L93.895 325.277C92.444 271.98 119.859 221.693 165.442 194.038L176.74 187.184C179.4 188.185 182.276 188.736 185.281 188.736H326.717C329.721 188.736 332.599 188.185 335.258 187.184L346.557 194.038C359.362 201.807 370.888 211.436 380.813 222.66C382.302 224.344 384.377 225.203 386.461 225.203C388.235 225.203 390.017 224.58 391.451 223.312C394.569 220.554 394.861 215.791 392.103 212.673C381.171 200.313 368.478 189.707 354.375 181.151L347.529 176.998C349.762 173.321 351.05 169.008 351.05 164.401C351.05 157.89 348.475 151.975 344.297 147.604C348.475 143.233 351.05 137.316 351.05 130.806C351.05 121.507 345.804 113.414 338.12 109.32L356.527 50.0911C360.385 37.6791 357.498 24.4994 348.807 14.8356C340.116 5.17189 327.313 0.909279 314.565 3.43148L286.779 8.93308L281.896 6.33753C265.993 -2.11334 247.008 -2.11233 231.11 6.33753L226.226 8.93308L198.438 3.43349C185.687 0.910284 172.886 5.1729 164.195 14.8376C155.504 24.5014 152.618 37.6811 156.476 50.0921L174.744 108.876C166.589 112.81 160.947 121.163 160.947 130.808C160.947 137.318 163.522 143.235 167.7 147.606C163.522 151.977 160.947 157.893 160.947 164.403C160.947 169.01 162.235 173.323 164.468 177L157.623 181.153C107.421 211.609 77.2284 266.992 78.8272 325.688L80.3596 381.972C80.3827 382.829 80.1405 383.657 79.6572 384.366L51.1031 426.309C39.4648 443.405 38.2901 464.525 47.9599 482.806C57.6296 501.086 75.7493 512 96.4293 512H415.567C436.247 512 454.366 501.086 464.035 482.806C473.707 464.525 472.532 443.405 460.895 426.309V426.309ZM185.282 173.663C180.175 173.663 176.021 169.509 176.021 164.402C176.021 159.295 180.175 155.141 185.282 155.141H326.718C331.825 155.141 335.979 159.295 335.979 164.402C335.979 169.509 331.825 173.663 326.718 173.663H185.282ZM175.402 24.9164C180.506 19.2409 188.024 16.7358 195.51 18.219L225.93 24.2391C227.632 24.5747 229.397 24.3155 230.93 23.5015L238.183 19.6469C249.653 13.5514 263.351 13.5514 274.822 19.6469L282.074 23.5005C283.605 24.3155 285.374 24.5747 287.074 24.2391L317.493 18.219C324.984 16.7368 332.498 19.2409 337.602 24.9154C342.705 30.5898 344.4 38.3302 342.135 45.6185L323.222 106.474H236.484C232.321 106.474 228.947 109.848 228.947 114.01C228.947 118.172 232.321 121.547 236.484 121.547H326.718C331.825 121.547 335.979 125.701 335.979 130.807C335.979 135.914 331.825 140.068 326.718 140.068H185.282C180.175 140.068 176.021 135.914 176.021 130.807C176.021 125.701 180.175 121.547 185.282 121.547H204.365C208.527 121.547 211.902 118.172 211.902 114.01C211.902 109.848 208.527 106.474 204.365 106.474H189.782L170.869 45.6185C168.604 38.3312 170.3 30.5918 175.402 24.9164V24.9164Z" fill="#546A7B"/>
<path d="M167.748 412.654C165.144 409.409 160.4 408.887 157.154 411.493C153.908 414.097 153.388 418.84 155.992 422.087C180.6 452.756 217.235 470.348 256.503 470.348C327.529 470.348 385.311 412.565 385.311 341.54C385.311 270.514 327.529 212.732 256.503 212.732C185.479 212.732 127.695 270.514 127.695 341.54C127.695 359.366 131.279 376.64 138.347 392.883C140.007 396.699 144.446 398.449 148.264 396.787C152.08 395.127 153.829 390.686 152.168 386.87C145.93 372.535 142.768 357.285 142.768 341.541C142.768 278.826 193.789 227.806 256.503 227.806C319.218 227.806 370.238 278.826 370.238 341.541C370.238 404.254 319.218 455.276 256.503 455.276C221.831 455.276 189.48 439.741 167.748 412.654V412.654Z" fill="#546A7B"/>
<path d="M265.479 244.337H247.528C240.01 244.337 233.894 250.454 233.894 257.971V260.611C218.347 266.691 207.205 279.275 203.714 294.985C200.16 310.977 205.432 327.606 217.473 338.382C220.614 341.194 224.306 343.534 228.448 345.339C233.444 347.515 246.599 353.144 260.846 358.399C266.958 360.653 270.379 363.694 270.573 364.757C270.175 366.978 265.876 370.949 258.724 370.949C251.178 370.949 243.747 368.423 238.338 364.021C233.263 359.89 225.758 360.107 220.883 364.526L207.187 376.938C204.372 379.489 202.763 383.132 202.773 386.931C202.783 390.742 204.419 394.39 207.261 396.937C214.839 403.73 223.956 408.946 233.893 412.211V419.713C233.893 426.367 239.306 431.78 245.96 431.78H267.044C273.698 431.78 279.111 426.367 279.111 419.713V412.797C297.954 406.317 311.803 391.096 315.086 372.707C318.529 353.433 310.199 328.408 276.496 315.975C264.535 311.563 253.371 306.85 247.952 304.509C248.319 303.7 249.453 302.965 251.135 302.457C259.295 299.999 267.56 303.684 271.76 306.1C277.47 309.382 284.694 308.101 288.944 303.048L300.644 289.131C303.172 286.123 304.278 282.173 303.679 278.292C303.08 274.414 300.837 270.983 297.524 268.88C293.278 266.184 286.931 262.714 279.111 260.123V257.97C279.112 250.453 272.996 244.337 265.479 244.337V244.337ZM288.02 280.724L278.185 292.424C271.588 288.838 259.623 284.161 246.788 288.026C236.49 291.128 233.813 298.499 233.141 301.526C231.931 306.969 233.59 312.35 237.58 315.921C237.648 315.982 237.718 316.042 237.789 316.1C238.501 316.692 239.41 317.232 240.491 317.702C245.243 319.773 257.754 325.127 271.281 330.116C302.709 341.709 301.4 363.618 300.251 370.057C297.694 384.369 285.76 396.046 269.844 399.806C266.442 400.609 264.041 403.646 264.041 407.141V416.708H248.968V406.536C248.968 403.066 246.598 400.044 243.228 399.216C234.06 396.966 225.605 392.713 218.665 386.879L229.985 376.621C237.906 382.61 248.293 386.022 258.726 386.022C272.044 386.022 283.517 378.02 285.414 367.408C287.093 357.999 279.859 349.345 266.064 344.259C252.185 339.139 239.347 333.645 234.472 331.522C231.806 330.36 229.47 328.89 227.529 327.152C219.543 320.005 216.057 308.934 218.43 298.256C221.03 286.561 230.006 277.341 242.439 273.596C242.593 273.55 242.745 273.511 242.897 273.471L243.452 273.323C246.713 272.416 248.969 269.447 248.969 266.061V259.41H264.042V265.785C264.042 269.253 266.407 272.274 269.775 273.103C277.373 274.976 283.699 278.129 288.02 280.724V280.724Z" fill="#546A7B"/>
</g>
<defs>
<clipPath id="clip0">
<rect width="512" height="512" fill="white"/>
</clipPath>
</defs>
</svg>
