<svg width="512" height="512" viewBox="0 0 512 512" fill="none" xmlns="http://www.w3.org/2000/svg">
<g clip-path="url(#clip0)">
<path fill-rule="evenodd" clip-rule="evenodd" d="M171.09 154.375L145.359 129.266H128.633C122.488 129.266 117.453 134.254 117.453 140.375V151.344C117.453 165.371 133.094 179.652 147.074 179.48L171.09 154.375Z" fill="#EDA93B"/>
<path fill-rule="evenodd" clip-rule="evenodd" d="M252.086 230.832L198.109 253.531C197.68 254.125 191.562 260.02 188.703 263.281C182.984 269.824 174.266 277.109 163.516 281.359C179.383 308.426 217.234 335.629 255.117 335.543C294.199 335.488 333.344 307.348 348.492 281.359C337.715 277.109 329.023 269.824 323.305 263.281C320.445 260.02 314.328 254.129 313.898 253.531C304.551 260.504 262.723 226.895 252.086 230.832Z" fill="#FCC368"/>
<path fill-rule="evenodd" clip-rule="evenodd" d="M394.555 151.339V140.375C394.555 134.253 389.52 129.265 383.375 129.265H366.648L342.805 152.558L364.934 179.48C378.914 179.652 394.555 165.367 394.555 151.339V151.339Z" fill="#EDA93B"/>
<path fill-rule="evenodd" clip-rule="evenodd" d="M348.491 281.358C318.643 332.51 195.706 336.28 163.515 281.358C158.312 283.428 152.593 284.788 146.503 284.987C145.703 285.014 140.871 285.155 140.07 285.214C99.9568 287.339 84.8045 309.299 65.5038 345.432L31.5977 408.967L258.663 436.373L480.408 408.967L446.502 345.432C427.202 309.299 412.049 287.339 371.909 285.214C371.139 285.155 366.307 285.014 365.506 284.987C359.413 284.788 353.698 283.456 348.491 281.358Z" fill="#00B6C8"/>
<path fill-rule="evenodd" clip-rule="evenodd" d="M136.524 411.69C84.606 396.866 56.8717 394.686 31.5982 408.967C5.98104 456.916 54.2428 469.299 113.594 469.299H137.18L151.848 443.909L136.524 411.69Z" fill="#FFDDA6"/>
<path fill-rule="evenodd" clip-rule="evenodd" d="M345.406 381.479C345.406 373.374 338.688 366.713 330.48 366.713H295.199L291.371 355.635C290.398 352.799 288.91 350.221 285.91 350.221L225.238 350.28C222.238 350.28 221.035 352.971 219.777 355.69L214.574 366.772H180.641C172.461 366.772 165.742 373.432 165.742 381.565V489.647C165.742 497.78 172.461 504.44 180.641 504.44L330.48 504.385C338.688 504.358 345.406 497.725 345.406 489.592C345.406 458.249 345.406 412.709 345.406 381.479V381.479Z" fill="#E6E6E6"/>
<path fill-rule="evenodd" clip-rule="evenodd" d="M398.414 469.303C457.766 469.303 506.027 456.916 480.41 408.967C455.137 394.686 427.402 396.866 375.484 411.69L357.672 440.084L374.824 469.303H398.414Z" fill="#FFDDA6"/>
<path fill-rule="evenodd" clip-rule="evenodd" d="M366.648 129.265V104.41C279.621 50.9647 262.723 31.6952 145.359 104.41V164.035C145.359 169.055 145.93 174.211 147.074 179.48C154.937 215.699 188.531 255.515 228.441 270.195C248.512 277.59 263.637 277.562 283.707 270.137C323.562 255.402 357.07 215.672 364.934 179.48C366.047 174.211 366.648 169.051 366.648 164.035V129.265Z" fill="#FFDDA6"/>
<path fill-rule="evenodd" clip-rule="evenodd" d="M366.648 104.41C366.648 17.2148 269.184 -10.1055 203.625 18.4336C170.375 32.914 145.359 61.7617 145.359 104.41C241.996 78.5976 234.133 154.375 366.648 104.41Z" fill="#808080"/>
<path fill-rule="evenodd" clip-rule="evenodd" d="M236.305 433.311C236.305 426.99 238.336 421.155 241.793 416.393H192.047L177.664 431.526L190.332 450.256H241.766C238.336 445.467 236.305 439.631 236.305 433.311Z" fill="#B9A693"/>
<path fill-rule="evenodd" clip-rule="evenodd" d="M321.648 450.256L331.91 431.584L319.961 416.393H269.355C272.816 421.155 274.844 426.99 274.844 433.311C274.844 439.631 272.816 445.467 269.355 450.256H321.648Z" fill="#B9A693"/>
<path fill-rule="evenodd" clip-rule="evenodd" d="M113.594 449.295C71.1099 449.295 34.313 442.975 26.1958 421.776C15.3013 459.182 59.9028 469.299 113.594 469.299H137.184C136.754 468.252 136.524 467.147 136.524 466.014V449.295H113.594Z" fill="#FCC368"/>
<path fill-rule="evenodd" clip-rule="evenodd" d="M398.414 449.323H375.484V466.014C375.484 467.147 375.254 468.252 374.824 469.303H398.41C452.074 469.303 496.707 459.186 485.785 421.776C477.695 442.975 440.898 449.323 398.414 449.323V449.323Z" fill="#FCC368"/>
<path fill-rule="evenodd" clip-rule="evenodd" d="M189.559 466.014L192.277 411.69C192.617 404.83 184.184 399.221 174.266 399.221H154.535C144.645 399.221 136.523 404.83 136.523 411.69V466.014C136.523 472.869 144.645 478.51 154.535 478.51H171.547C181.469 478.51 189.219 472.869 189.559 466.014Z" fill="#FCC368"/>
<path fill-rule="evenodd" clip-rule="evenodd" d="M170.805 461.791H157.652C146.043 461.791 136.523 456.182 136.523 449.295V466.014C136.523 467.147 136.754 468.252 137.184 469.303C139.27 474.6 146.273 478.51 154.535 478.51H171.547C181.469 478.51 189.215 472.873 189.559 466.014L189.871 459.385C186.441 460.885 182.211 461.791 177.609 461.791H170.805Z" fill="#EDA93B"/>
<path fill-rule="evenodd" clip-rule="evenodd" d="M375.485 466.014V411.69C375.485 404.83 367.363 399.221 357.473 399.221H337.742C327.824 399.221 319.391 404.83 319.731 411.69L322.449 466.014C322.789 472.869 330.539 478.51 340.461 478.51H357.473C367.363 478.51 375.485 472.869 375.485 466.014Z" fill="#FCC368"/>
<path fill-rule="evenodd" clip-rule="evenodd" d="M341.203 461.791H354.355C365.961 461.791 375.484 456.182 375.484 449.322V466.014C375.484 467.147 375.254 468.252 374.824 469.303C372.738 474.6 365.734 478.51 357.473 478.51H340.461C330.539 478.51 322.789 472.873 322.449 466.014L322.105 459.385C325.562 460.885 329.766 461.791 334.398 461.791H341.203Z" fill="#EDA93B"/>
<path fill-rule="evenodd" clip-rule="evenodd" d="M291.828 433.311C291.828 413.475 275.59 397.405 255.574 397.405C235.562 397.405 219.32 413.475 219.32 433.311C219.32 453.147 235.562 469.244 255.574 469.244C275.586 469.244 291.828 453.147 291.828 433.311Z" fill="#A2D6F2"/>
<path fill-rule="evenodd" clip-rule="evenodd" d="M287.539 450.256C290.285 445.213 291.828 439.432 291.828 433.311C291.828 429.854 291.312 426.51 290.398 423.362C287.625 432.885 280.992 440.791 272.273 445.268C267.27 447.85 261.578 449.323 255.574 449.323C249.57 449.323 243.879 447.846 238.879 445.268C230.156 440.791 223.523 432.885 220.75 423.362C219.836 426.51 219.32 429.854 219.32 433.311C219.32 439.432 220.867 445.213 223.609 450.256C229.699 461.565 241.738 469.244 255.574 469.244C269.414 469.244 281.449 461.565 287.539 450.256Z" fill="#64B0D9"/>
<path fill-rule="evenodd" clip-rule="evenodd" d="M366.648 104.41C366.648 27.1875 290.199 -3.07817 227.156 10.8359C271.27 12.8203 313.727 35.4921 326.277 79.6718C328.68 88.1757 329.996 97.4687 329.996 107.559V116.086C340.918 113.367 353.039 109.543 366.648 104.41V104.41Z" fill="#666666"/>
<path fill-rule="evenodd" clip-rule="evenodd" d="M366.648 164.035V104.41C353.039 109.543 340.918 113.367 329.996 116.09V167.184C329.996 172.199 329.395 177.355 328.25 182.598C320.391 218.816 286.883 258.547 247.055 273.281C245.855 273.707 244.711 274.133 243.566 274.504C256.891 277.055 268.953 275.578 283.707 270.137C294.344 266.199 304.551 260.504 313.898 253.531C339.629 234.43 359.16 206.008 364.934 179.48C366.047 174.211 366.648 169.055 366.648 164.035V164.035Z" fill="#FCC368"/>
<path fill-rule="evenodd" clip-rule="evenodd" d="M446.5 345.432C427.203 309.3 412.051 287.339 371.91 285.214C371.137 285.155 366.305 285.014 365.504 284.987C359.414 284.788 353.695 283.456 348.492 281.358C343.09 290.596 334.684 298.307 324.305 304.37C323.992 304.542 323.676 304.737 323.391 304.909C327.535 306.214 331.969 307.034 336.602 307.175C337.371 307.202 342.23 307.346 343.004 307.401C383.117 309.526 398.27 331.491 417.598 367.62L434.664 399.589C452.793 398.425 466.945 401.346 480.41 408.968L446.5 345.432Z" fill="#3F7D8E"/>
<path fill-rule="evenodd" clip-rule="evenodd" d="M198.109 253.53C197.734 254.011 187.758 264.128 184.668 267.39C221.523 298.19 257.031 306.409 294.742 288.331C305.836 283.003 308.695 290.85 318.215 299.948C322.648 304.171 319.875 301.425 324.305 304.37C334.684 298.304 343.09 290.597 348.492 281.358C339.746 277.929 332.398 272.46 326.852 267.018C325.563 265.772 324.363 264.499 323.305 263.28C320.445 260.018 314.328 254.128 313.898 253.53C307.41 257.694 302.578 261.382 295.457 264.979C291.656 266.932 287.711 268.663 283.707 270.136C263.637 277.561 248.512 277.589 228.441 270.194C217.75 266.253 207.516 260.53 198.109 253.53V253.53Z" fill="#EDA93B"/>
<path fill-rule="evenodd" clip-rule="evenodd" d="M323.332 381.479V404.092C326.648 401.147 331.941 399.221 337.742 399.221H345.406V381.479C345.406 373.374 338.688 366.713 330.48 366.713H308.41C316.617 366.713 323.332 373.374 323.332 381.479V381.479Z" fill="#C2C7CC"/>
<path fill-rule="evenodd" clip-rule="evenodd" d="M330.48 504.385C338.688 504.357 345.406 497.725 345.406 489.592V478.51H340.461C332.34 478.51 325.648 474.713 323.332 469.584V489.592C323.332 497.725 316.613 504.354 308.41 504.385L180.125 504.412H180.152C180.297 504.439 180.469 504.439 180.641 504.439L330.48 504.385Z" fill="#C2C7CC"/>
<path d="M270.242 366.78H241.766C237.594 366.78 234.207 370.163 234.207 374.338C234.207 378.51 237.594 381.893 241.766 381.893H270.242C274.414 381.893 277.797 378.51 277.797 374.338C277.797 370.163 274.414 366.78 270.242 366.78Z" fill="#546A7B"/>
<path d="M213.434 171.425C217.605 171.425 220.988 168.042 220.988 163.867V153.55C220.988 149.378 217.605 145.996 213.434 145.996C209.262 145.996 205.875 149.378 205.875 153.55V163.867C205.875 168.042 209.258 171.425 213.434 171.425Z" fill="#546A7B"/>
<path d="M299.805 171.425C303.977 171.425 307.359 168.042 307.359 163.867V153.55C307.359 149.378 303.977 145.996 299.805 145.996C295.629 145.996 292.246 149.378 292.246 153.55V163.867C292.246 168.042 295.629 171.425 299.805 171.425Z" fill="#546A7B"/>
<path d="M487.183 405.619C487.171 405.596 487.16 405.576 487.152 405.553C487.125 405.506 487.105 405.459 487.078 405.408L453.168 341.87C433.883 305.764 416.793 280.022 372.309 277.667C372.27 277.663 372.227 277.663 372.188 277.659L365.746 277.432C346.668 276.823 332.785 262.632 328.985 258.296C327.949 257.116 326.574 255.671 325.176 254.237C347.18 235.839 364.192 210.987 370.984 186.433C378.059 185.019 385.215 181.152 390.98 175.452C398.055 168.464 402.109 159.675 402.109 151.339V140.374C402.109 130.081 393.703 121.706 383.371 121.706H374.203V104.41C374.203 68.9098 358.469 39.0466 329.899 20.324C294.196 -3.0743 242.239 -6.61725 200.606 11.5038C160.692 28.8865 137.802 62.7497 137.802 104.41V121.706H128.634C118.302 121.706 109.896 130.081 109.896 140.374V151.339C109.896 159.675 113.954 168.464 121.025 175.452C126.79 181.148 133.942 185.019 141.017 186.433C147.802 210.999 164.817 235.847 186.821 254.245C185.427 255.675 184.052 257.116 183.016 258.296C179.22 262.632 165.337 276.823 146.231 277.432L139.798 277.659C139.755 277.659 139.712 277.663 139.669 277.667C103.466 279.569 85.6418 296.807 70.0247 322.108C67.8294 325.659 68.931 330.315 72.4817 332.506C73.72 333.272 75.0911 333.635 76.4466 333.635C78.9817 333.635 81.4544 332.362 82.884 330.045C96.7199 307.635 110.571 294.35 140.399 292.76L146.739 292.538C151.603 292.382 156.165 291.6 160.411 290.405C168.946 302.167 181.864 311.772 198.141 318.397C214.719 325.139 234.313 328.706 254.829 328.706H255.001C297.278 328.663 334.254 313.803 351.555 290.397C355.805 291.6 360.367 292.382 365.234 292.538L371.57 292.764C407.039 294.663 420.183 312.21 439.832 348.991L464.05 394.373C446.926 390.127 427.957 391.428 404.848 396.389L391.996 363.932C390.461 360.053 386.07 358.151 382.191 359.69C378.309 361.225 376.41 365.616 377.945 369.498L389.988 399.908C386.828 400.721 383.586 401.584 380.273 402.498C376.086 396.014 367.551 391.662 357.469 391.662H352.961V381.479C352.961 369.17 342.875 359.159 330.481 359.159H300.582L298.516 353.182C295.379 344.03 289.27 342.666 285.899 342.666L225.239 342.721C217.446 342.721 214.423 349.26 212.973 352.405L209.774 359.213H180.638C168.255 359.213 158.185 369.241 158.185 381.565V391.662H154.532C144.454 391.662 135.915 396.014 131.728 402.498C128.415 401.588 125.173 400.721 122.013 399.908L134.056 369.498C135.595 365.62 133.692 361.225 129.814 359.69C125.935 358.155 121.54 360.053 120.005 363.936L107.153 396.389C84.0481 391.428 65.0794 390.127 47.9545 394.373L66.0794 360.413C68.0443 356.733 66.6536 352.155 62.974 350.186C59.2904 348.225 54.7123 349.612 52.7474 353.295L24.9311 405.408C24.9038 405.455 24.8843 405.498 24.8608 405.545C24.8452 405.572 24.8335 405.6 24.8179 405.627C15.6226 422.944 14.5328 437.697 21.5913 449.471C32.6421 467.9 62.7357 476.861 113.595 476.861H132.915C137.411 482.435 145.329 486.068 154.532 486.068H158.185V489.65C158.185 501.974 168.255 512.002 180.638 512.002H240.735C244.907 512.002 248.29 508.615 248.29 504.443C248.29 500.267 244.907 496.885 240.735 496.885H180.638C176.657 496.885 173.298 493.572 173.298 489.65V486.017C186.266 485.318 196.575 476.955 197.106 466.393L197.536 457.814H219.403C227.305 469.271 240.567 476.803 255.575 476.803C270.583 476.803 283.848 469.271 291.746 457.814H314.473L314.899 466.393C315.418 476.721 325.285 484.951 337.848 485.963V489.592C337.848 493.568 334.531 496.814 330.481 496.83H273.958C269.786 496.83 266.403 500.213 266.403 504.385C266.403 508.56 269.786 511.943 273.958 511.943H330.508C342.891 511.9 352.965 501.873 352.965 489.592V486.068H357.473C366.676 486.068 374.598 482.435 379.09 476.861H398.414C449.269 476.861 479.363 467.9 490.414 449.471C497.472 437.693 496.382 422.94 487.183 405.619V405.619ZM374.207 164.034V136.824H383.375C385.336 136.824 386.996 138.449 386.996 140.374V151.339C386.996 155.601 384.516 160.597 380.359 164.702C378.418 166.616 376.238 168.214 374 169.421C374.133 167.616 374.207 165.82 374.207 164.034V164.034ZM131.649 164.702C127.493 160.597 125.013 155.601 125.013 151.339V140.374C125.013 138.449 126.669 136.824 128.634 136.824H137.802V164.034C137.802 165.823 137.876 167.628 138.009 169.437C135.771 168.23 133.595 166.62 131.649 164.702ZM206.641 25.3631C243.794 9.19128 289.996 12.246 321.617 32.9685C337.93 43.656 357.231 63.7106 358.965 99.1948C291.207 123.749 263.11 113.187 235.915 102.964C220.606 97.2144 204.962 91.3316 183.356 91.3316C174.497 91.3316 164.634 92.3198 153.388 94.7144C157.524 53.0153 187.973 33.492 206.641 25.3631V25.3631ZM154.47 177.913C154.466 177.898 154.462 177.882 154.458 177.866C153.458 173.175 152.919 168.542 152.919 164.034V110.316C189.567 101.71 209.536 109.199 230.598 117.113C246.969 123.265 263.629 129.531 287.446 129.527C305.938 129.527 328.774 125.722 359.094 115.179V164.034C359.094 201.425 322.645 247.694 281.086 263.05C262.598 269.889 249.508 269.901 231.051 263.1C194.45 249.64 161.813 212.218 154.47 177.913V177.913ZM254.989 313.592C254.934 313.592 254.879 313.592 254.825 313.592C219.712 313.592 190.04 302.546 174.825 284.303C184.266 278.901 190.977 272.147 194.384 268.261C195.524 266.964 197.317 265.116 199.005 263.409C207.505 269.128 216.524 273.862 225.829 277.284C236.68 281.284 246.337 283.284 255.997 283.284C265.704 283.284 275.411 281.264 286.329 277.225C295.575 273.807 304.543 269.093 312.996 263.405C314.688 265.112 316.485 266.964 317.621 268.261C321.02 272.139 327.711 278.87 337.113 284.268C321.782 302.026 290.188 313.557 254.989 313.592V313.592ZM128.97 461.744H113.595C58.2045 461.744 40.0405 450.842 34.56 441.697C30.6147 435.119 31.5288 425.971 37.2553 414.49C55.0951 405.092 74.6927 404.272 109.79 412.483C110.001 412.541 110.22 412.592 110.435 412.631C116.181 413.987 122.333 415.576 128.97 417.416V461.744ZM182.821 449.428C182.794 449.701 182.774 449.975 182.774 450.256C182.774 450.279 182.778 450.299 182.778 450.318L182.013 465.635C181.903 467.803 177.774 470.951 171.548 470.951H154.536C148.978 470.951 145.173 468.494 144.286 466.736C144.235 466.596 144.185 466.451 144.126 466.314C144.099 466.213 144.083 466.107 144.083 466.014V411.69C144.083 410.002 148.153 406.776 154.536 406.776H174.263C178.821 406.776 182.442 408.44 184.013 410.088C184.462 410.561 184.739 411.037 184.727 411.311L182.821 449.428ZM198.294 442.701L199.231 423.951H212.798C212.13 426.967 211.766 430.096 211.766 433.311C211.766 436.533 212.13 439.674 212.805 442.701H198.294ZM255.575 461.686C239.751 461.686 226.88 448.959 226.88 433.311C226.88 428.518 228.094 424.002 230.227 420.041C230.255 419.99 230.282 419.936 230.309 419.885C235.161 411.01 244.665 404.963 255.575 404.963C266.485 404.963 275.989 411.01 280.84 419.885C280.868 419.936 280.895 419.99 280.922 420.041C283.055 424.002 284.27 428.518 284.27 433.311C284.27 448.959 271.399 461.686 255.575 461.686V461.686ZM298.344 442.701C299.02 439.674 299.387 436.533 299.387 433.311C299.387 430.096 299.02 426.967 298.352 423.951H312.778L313.715 442.701H298.344ZM317.043 399.67C314.5 402.342 312.899 405.514 312.368 408.834H291.754C283.856 397.381 270.586 389.846 255.575 389.846C240.563 389.846 227.294 397.381 219.395 408.834H199.641C199.106 405.514 197.505 402.342 194.962 399.67C190.192 394.655 182.454 391.662 174.263 391.662H173.298V381.565C173.298 377.643 176.661 374.327 180.638 374.327H214.575C217.505 374.327 220.169 372.635 221.415 369.983L226.692 358.745C226.817 358.471 226.969 358.147 227.118 357.83L284.11 357.78C284.149 357.877 284.188 357.983 284.227 358.104L288.059 369.182C289.11 372.229 291.977 374.272 295.2 374.272H330.481C334.473 374.272 337.848 377.573 337.848 381.479V391.662H337.742C329.555 391.662 321.817 394.655 317.043 399.67V399.67ZM367.926 466.014C367.926 466.107 367.91 466.209 367.883 466.314C367.824 466.451 367.774 466.596 367.723 466.736C366.832 468.494 363.031 470.951 357.473 470.951H340.461C334.235 470.951 330.106 467.803 329.996 465.635L327.282 411.311C327.266 411.037 327.547 410.557 327.996 410.088C329.563 408.44 333.188 406.776 337.742 406.776H357.473C363.856 406.776 367.926 410.002 367.926 411.686V466.014ZM477.449 441.697C471.968 450.842 453.804 461.744 398.414 461.744H383.039V417.416C389.672 415.576 395.828 413.987 401.574 412.631C401.805 412.588 402.035 412.533 402.266 412.471C437.336 404.272 456.922 405.096 474.754 414.49C480.48 425.971 481.394 435.115 477.449 441.697V441.697Z" fill="#546A7B"/>
</g>
<defs>
<clipPath id="clip0">
<rect width="512" height="512" fill="white"/>
</clipPath>
</defs>
</svg>
