<svg width="512" height="512" viewBox="0 0 512 512" fill="none" xmlns="http://www.w3.org/2000/svg">
<g clip-path="url(#clip0)">
<path fill-rule="evenodd" clip-rule="evenodd" d="M431.988 353.781C424.969 323.93 401.598 309.934 372.277 304.77C365.539 303.582 358.52 302.848 351.305 302.512C345.977 302.344 341.551 301.242 337.801 299.461C316.738 339.391 220.465 336.57 204.395 299.461V299.18C200.504 301.129 195.879 302.34 190.297 302.512C183.277 302.852 176.457 303.527 169.914 304.656C141.414 309.539 118.465 322.688 110.457 350.48C122.836 362.363 223.313 452.969 224.102 457.938H435.062V407.145C435.062 401.727 437.516 396.844 441.379 393.57L431.988 353.781Z" fill="#00B6C8"/>
<path fill-rule="evenodd" clip-rule="evenodd" d="M190.297 302.512C183.277 302.848 176.457 303.527 169.914 304.656V350.48L185.223 364.223L204.395 350.48V299.18C200.504 301.129 195.879 302.34 190.297 302.512V302.512Z" fill="#E6E6E6"/>
<path fill-rule="evenodd" clip-rule="evenodd" d="M168.449 445.434H209.496C216.855 445.434 223 450.879 224.102 457.938H399.652L386.207 380.082C384.938 372.52 379.945 366.113 372.277 366.113V304.77C365.539 303.582 358.52 302.848 351.305 302.512C345.977 302.344 341.551 301.242 337.801 299.461V366.113H232.391C232.613 367.809 180.742 440.383 168.449 445.434V445.434Z" fill="#E6E6E6"/>
<path fill-rule="evenodd" clip-rule="evenodd" d="M321.309 281.684L273.297 266.531L220.438 281.402L220.297 281.656C216.77 289.137 211.781 295.457 204.395 299.18V299.461C220.465 336.57 316.742 339.391 337.801 299.461C330.074 295.793 325.168 289.191 321.309 281.684V281.684Z" fill="#FCC368"/>
<path fill-rule="evenodd" clip-rule="evenodd" d="M328.523 137.152C290.297 131.481 251.84 131.367 213.16 137.152C201.996 138.817 190.836 140.988 179.641 143.641V217.207C179.641 243.25 198.613 266.25 220.438 281.402C238.254 293.817 257.988 300.957 270.703 300.281C286.773 299.375 305.211 292.66 321.309 281.684C344.199 266.051 362.355 241.785 362.355 213.281V143.613C351.105 140.988 339.828 138.817 328.523 137.152V137.152Z" fill="#FFDDA6"/>
<path fill-rule="evenodd" clip-rule="evenodd" d="M273.379 21.5703C255.762 21.625 237.211 30.6562 227.992 48.6289H203.238C167.461 48.6289 146.148 87.9688 179.641 108.82V163.535C190.832 160.883 201.996 158.738 213.16 157.043C251.84 151.262 290.297 151.371 328.523 157.043C339.828 158.738 351.105 160.883 362.355 163.535V108.82C395.848 87.9688 375.465 48.6289 339.687 48.6289H313.074C307.859 30.6562 291.312 21.625 273.719 21.5703H273.379Z" fill="#E6E6E6"/>
<path fill-rule="evenodd" clip-rule="evenodd" d="M362.355 108.82C395.848 87.9688 375.465 48.6328 339.688 48.6328H318.801C350.883 48.6328 370.699 77.3281 350.234 98.918C343.664 105.828 341.578 102.246 341.578 111.926L341.492 159.191C348.457 160.461 355.422 161.898 362.355 163.535V108.82Z" fill="#C2C7CC"/>
<path fill-rule="evenodd" clip-rule="evenodd" d="M362.355 200.137C361.172 199.91 350.57 197.879 341.492 190.652V208.941C341.492 237.441 323.309 261.734 300.418 277.34C284.32 288.348 265.883 295.035 249.812 295.938C249.246 295.965 248.684 295.992 248.094 295.992C256.605 299.07 264.5 300.621 270.703 300.281C286.77 299.379 305.211 292.664 321.309 281.688C344.199 266.055 362.355 241.785 362.355 213.285V200.137Z" fill="#FCC368"/>
<path fill-rule="evenodd" clip-rule="evenodd" d="M337.801 299.461C330.074 295.793 325.168 289.191 321.309 281.688C311.836 288.148 301.516 293.145 291.395 296.332C296.047 305.332 299.883 309.453 313.328 315.828C314.934 316.594 316.684 317.242 318.543 317.723C327.004 313.176 333.77 307.082 337.801 299.461V299.461Z" fill="#EDA93B"/>
<path fill-rule="evenodd" clip-rule="evenodd" d="M431.988 353.781C424.969 323.93 401.598 309.934 372.277 304.77C365.539 303.582 358.52 302.848 351.305 302.512C345.977 302.344 341.551 301.242 337.801 299.461C333.77 307.082 327 313.176 318.543 317.719C321.055 318.398 323.789 318.793 326.832 318.875C330.555 319.074 334.191 319.328 337.801 319.723C341.211 320.09 344.535 320.543 347.809 321.137C356.574 322.687 364.836 325.027 372.277 328.332C389.672 336.117 402.613 349.242 407.547 370.18C414.648 400.344 417.355 426.98 417.355 457.938H435.062V407.145C435.062 401.727 437.516 396.844 441.379 393.57L431.988 353.781Z" fill="#3F7D8E"/>
<path fill-rule="evenodd" clip-rule="evenodd" d="M372.277 304.77C365.539 303.582 358.52 302.848 351.305 302.512C345.977 302.344 341.551 301.242 337.801 299.461V319.723C341.211 320.09 344.535 320.543 347.809 321.137C356.574 322.687 364.836 325.027 372.277 328.332V304.77Z" fill="#C2C7CC"/>
<path fill-rule="evenodd" clip-rule="evenodd" d="M498.215 420.969C498.215 403.586 484.004 389.367 466.637 389.367H452.824C448.48 389.367 444.48 390.945 441.379 393.57C437.516 396.844 435.062 401.727 435.062 407.145V464.285C435.062 474.078 443.07 482.094 452.824 482.094H466.637C484.004 482.094 498.215 467.871 498.215 450.488V420.969Z" fill="#FFDDA6"/>
<path fill-rule="evenodd" clip-rule="evenodd" d="M482.68 159.051H450.598C438.613 159.051 428.832 168.867 428.832 180.832V246.637C428.832 258.629 438.613 268.422 450.598 268.422H482.68C489.414 268.422 495.449 265.316 499.453 260.465C502.555 256.684 504.441 251.887 504.441 246.637V180.832C504.441 175.613 502.555 170.785 499.453 167.031C495.449 162.18 489.418 159.051 482.68 159.051V159.051Z" fill="#E6E6E6"/>
<path fill-rule="evenodd" clip-rule="evenodd" d="M386.203 380.082C384.938 372.52 379.945 366.113 372.277 366.113H352.203L368.641 457.938H399.652L386.203 380.082Z" fill="#C2C7CC"/>
<path fill-rule="evenodd" clip-rule="evenodd" d="M498.215 420.969C498.215 403.586 484.004 389.367 466.637 389.367H452.824C450.992 389.367 449.215 389.648 447.523 390.184C461.48 393.43 471.969 406.043 471.969 420.969V450.484C471.969 465.414 461.48 478 447.523 481.273C449.215 481.781 450.992 482.09 452.824 482.09H466.637C484.004 482.09 498.215 467.867 498.215 450.484V420.969Z" fill="#FCC368"/>
<path fill-rule="evenodd" clip-rule="evenodd" d="M288.071 366.113C286.915 357.336 279.329 350.48 270.223 350.48H239.946C229.317 350.48 227.513 360.496 225.231 370.797C224.075 375.934 247.274 381.719 245.442 386.516H270.223C280.149 386.516 288.239 378.418 288.239 368.512C288.239 367.695 288.181 366.902 288.071 366.113Z" fill="#FCC368"/>
<path fill-rule="evenodd" clip-rule="evenodd" d="M55.8203 350.48H25.543C15.6484 350.48 7.55469 358.609 7.55469 368.512C7.55469 378.418 15.6484 386.516 25.543 386.516H50.2656L73.75 364.223L55.8203 350.48Z" fill="#FCC368"/>
<path fill-rule="evenodd" clip-rule="evenodd" d="M204.395 350.48H55.8212C45.1962 350.48 43.5595 361.262 45.8447 371.586C46.997 376.781 48.4931 381.746 50.2705 386.516C60.7548 414.422 81.7314 435.023 108.231 445.434L142.54 466.879L188.352 445.434C214.544 434.625 235.208 413.184 245.442 386.516C247.274 381.719 248.798 376.723 249.927 371.586C252.212 361.262 250.602 350.48 239.946 350.48H204.395Z" fill="#9EA3B0"/>
<path fill-rule="evenodd" clip-rule="evenodd" d="M188.352 445.434H72.0039C63.8555 445.434 57.2305 452.094 57.2305 460.223V475.656C57.2305 483.781 63.8555 490.441 72.0039 490.441H229.402C237.52 490.441 244.176 483.781 244.176 475.656V460.223C244.176 459.457 244.117 458.668 243.977 457.934C242.879 450.879 236.73 445.434 229.402 445.434H188.352Z" fill="#808080"/>
<path fill-rule="evenodd" clip-rule="evenodd" d="M239.945 350.48H209.133C219.758 350.48 221.395 361.262 219.109 371.586C217.953 376.723 216.461 381.719 214.602 386.516C212.656 391.621 210.316 396.504 207.637 401.188C202.816 409.57 196.895 417.215 190.047 423.934C189.594 424.355 189.145 424.809 188.691 425.23C179.672 433.75 169.129 440.637 157.512 445.434H188.355C193.883 443.148 199.152 440.41 204.145 437.223C222.777 425.344 237.352 407.566 245.445 386.516C247.277 381.719 248.801 376.723 249.926 371.586C250.352 369.754 250.633 367.918 250.746 366.113C251.363 357.789 248.711 350.48 239.945 350.48V350.48Z" fill="#7D8495"/>
<path fill-rule="evenodd" clip-rule="evenodd" d="M243.977 457.938C242.879 450.879 236.73 445.434 229.402 445.434H198.559C205.918 445.434 212.035 450.879 213.164 457.938C213.277 458.668 213.332 459.461 213.332 460.223V475.656C213.332 483.785 206.68 490.441 198.559 490.441H229.402C237.52 490.441 244.176 483.781 244.176 475.656V460.223C244.172 459.461 244.117 458.668 243.977 457.938V457.938Z" fill="#666666"/>
<path fill-rule="evenodd" clip-rule="evenodd" d="M499.453 167.035C495.449 162.18 489.418 159.051 482.68 159.051H453.16C465.113 159.051 474.926 168.867 474.926 180.832V246.637C474.926 258.629 465.113 268.422 453.16 268.422H482.68C489.418 268.422 495.449 265.316 499.453 260.465C502.555 256.684 504.441 251.887 504.441 246.637V180.832C504.441 175.613 502.555 170.789 499.453 167.035Z" fill="#C2C7CC"/>
<path fill-rule="evenodd" clip-rule="evenodd" d="M362.356 163.535C351.106 160.883 339.829 158.738 328.524 157.047C324.552 192.883 360.099 199.738 362.356 200.137V163.535Z" fill="#808080"/>
<path fill-rule="evenodd" clip-rule="evenodd" d="M213.16 157.047C201.996 158.738 190.836 160.883 179.641 163.535V200.078C184.52 199.117 216.941 191.273 213.16 157.047Z" fill="#808080"/>
<path fill-rule="evenodd" clip-rule="evenodd" d="M362.355 163.535C355.422 161.898 348.457 160.461 341.492 159.191V190.652C350.57 197.875 361.172 199.91 362.355 200.133V163.535Z" fill="#666666"/>
<path d="M72.3396 288.18C69.3513 291.094 69.2888 295.879 72.2029 298.867C73.6833 300.387 75.6482 301.148 77.613 301.148C79.5154 301.148 81.4216 300.438 82.8904 299.004C97.9958 284.281 91.8083 272.164 87.7107 264.145C83.863 256.621 82.2732 253.504 90.3786 245.875C93.4138 243.016 93.5622 238.23 90.6989 235.195C87.8396 232.152 83.0544 232.012 80.0193 234.871C63.6482 250.277 70.0271 262.762 74.2497 271.023C77.9411 278.246 79.4685 281.234 72.3396 288.18V288.18Z" fill="#546A7B"/>
<path d="M114.177 247.66C111.188 250.574 111.126 255.359 114.04 258.348C115.52 259.867 117.485 260.629 119.454 260.629C121.352 260.629 123.259 259.918 124.727 258.484C139.841 243.754 133.638 231.637 129.532 223.621C125.681 216.098 124.087 212.98 132.188 205.355C135.227 202.496 135.372 197.711 132.513 194.676C129.649 191.633 124.864 191.492 121.829 194.352C105.458 209.762 111.849 222.246 116.079 230.508C119.774 237.727 121.302 240.715 114.177 247.66Z" fill="#546A7B"/>
<path d="M225.223 204.828C227.18 204.828 229.133 204.07 230.614 202.559C233.075 200.375 244.079 200.398 246.508 202.582C249.454 205.543 254.239 205.559 257.196 202.617C260.157 199.676 260.172 194.891 257.231 191.93C251.766 186.426 242.426 185.805 238.5 185.805C238.45 185.805 238.399 185.805 238.348 185.805C234.575 185.82 225.219 186.453 219.825 191.973C216.907 194.957 216.95 199.754 219.938 202.672C221.407 204.109 223.317 204.828 225.223 204.828V204.828Z" fill="#546A7B"/>
<path d="M286.431 204.828C288.388 204.828 290.341 204.07 291.817 202.559C294.278 200.375 305.286 200.398 307.716 202.582C310.657 205.543 315.442 205.559 318.403 202.617C321.364 199.676 321.38 194.891 318.438 191.93C312.97 186.426 303.634 185.805 299.708 185.805C299.653 185.805 299.602 185.805 299.556 185.805C295.782 185.82 286.427 186.453 281.032 191.973C278.114 194.957 278.157 199.754 281.141 202.668C282.614 204.109 284.52 204.828 286.431 204.828V204.828Z" fill="#546A7B"/>
<path d="M269.887 112.145C274.059 112.145 277.441 108.762 277.441 104.586V69.8789C277.441 65.707 274.059 62.3242 269.887 62.3242C265.711 62.3242 262.328 65.707 262.328 69.8789V104.586C262.328 108.762 265.711 112.145 269.887 112.145Z" fill="#546A7B"/>
<path d="M218.574 78.0117C214.402 78.0117 211.02 81.3945 211.02 85.5703V120.25C211.02 124.422 214.402 127.805 218.574 127.805C222.75 127.805 226.133 124.422 226.133 120.25V85.5703C226.133 81.3945 222.75 78.0117 218.574 78.0117Z" fill="#546A7B"/>
<path d="M321.195 127.805C325.367 127.805 328.75 124.422 328.75 120.246V85.5664C328.75 81.3945 325.367 78.0117 321.195 78.0117C317.02 78.0117 313.637 81.3945 313.637 85.5664V120.246C313.637 124.422 317.02 127.805 321.195 127.805Z" fill="#546A7B"/>
<path d="M482.68 275.98C498.848 275.98 512 262.816 512 246.637V180.832C512 164.656 498.848 151.492 482.68 151.492H450.598C434.43 151.492 421.277 164.656 421.277 180.832V246.637C421.277 262.816 434.43 275.98 450.598 275.98H459.082V381.809H452.824C450.66 381.809 448.559 382.082 446.555 382.594L439.344 352.047C430.965 316.527 401.465 297.32 351.66 294.961C351.625 294.957 351.59 294.957 351.555 294.957C347.543 294.824 344.117 294.102 341.09 292.664C340.973 292.609 340.859 292.547 340.738 292.496C337.133 290.707 334.09 287.863 331.289 283.75C332.898 282.512 334.492 281.246 336.035 279.926C357.883 261.273 369.91 237.609 369.91 213.285V164.633C370.023 163.887 370.02 163.148 369.91 162.434V112.828C384.062 102.453 389.902 87.6211 385.566 72.4609C380.281 53.9804 361.418 41.0742 339.688 41.0742H318.371C311.797 25.9062 297.5 16.0312 279.098 14.2695C256.785 12.1367 235.07 22.7851 223.602 41.0742H203.238C181.195 41.0742 162.055 54.1718 156.691 72.9258C152.406 87.9218 158.141 102.578 172.086 112.824V199.98V200.051V217.207C172.086 242.687 187.609 262.734 200.633 275.059C203.754 278.016 207.059 280.828 210.488 283.484C207.629 287.758 204.52 290.699 200.809 292.527C200.797 292.535 200.789 292.539 200.777 292.543C197.684 294.062 194.176 294.82 190.047 294.957C190.012 294.957 189.977 294.961 189.941 294.961C182.297 295.324 175.133 296.086 168.449 297.242C168.422 297.246 168.395 297.25 168.367 297.258C135.477 302.965 114.23 318.27 105.008 342.926H25.543C11.457 342.926 0 354.402 0 368.512C0 382.605 11.457 394.074 25.543 394.074H45.1836C52.7383 411.641 64.4258 426.602 79.3516 437.879H72.0039C59.6914 437.879 49.6758 447.902 49.6758 460.223V475.656C49.6758 487.977 59.6914 498 72.0039 498H116.266C120.438 498 123.82 494.617 123.82 490.445C123.82 486.27 120.438 482.887 116.266 482.887H72.0039C68.0234 482.887 64.7891 479.645 64.7891 475.656V460.223C64.7891 456.234 68.0273 452.992 72.0039 452.992H229.398C232.871 452.992 235.777 455.461 236.465 458.742C236.488 458.992 236.527 459.238 236.578 459.484C236.605 459.727 236.617 459.973 236.617 460.223V475.656C236.617 479.645 233.379 482.887 229.398 482.887H150.688C146.516 482.887 143.133 486.27 143.133 490.445C143.133 494.617 146.516 498 150.688 498H229.398C241.715 498 251.73 487.977 251.73 475.656V465.492H427.535C428.168 478.922 439.266 489.648 452.82 489.648H466.637C488.215 489.648 505.77 472.082 505.77 450.488V420.969C505.77 401.965 492.168 386.082 474.191 382.551V275.98H482.68ZM424.633 355.52L433.078 391.312C429.598 395.652 427.508 401.156 427.508 407.145V450.379H406.016L393.66 378.832C392.133 369.723 386.902 362.859 379.836 360.008V314.066C404.852 320.473 419.598 334.168 424.633 355.52V355.52ZM364.723 311.246V358.559H345.355V309.535C347.141 309.812 349.016 309.992 350.996 310.059C355.812 310.289 360.379 310.691 364.723 311.246ZM293.781 358.559C289.891 349.379 280.797 342.926 270.223 342.926H211.949V319.895C226.363 330.414 247.273 335.113 265.598 335.816C267.199 335.879 268.832 335.91 270.488 335.91C290.43 335.91 314.008 331.332 330.242 319.238V358.559H293.781ZM257.305 373.219C258.547 367.598 258.711 362.445 257.836 358.035H270.223C275.988 358.035 280.68 362.734 280.68 368.512C280.68 374.273 275.988 378.957 270.223 378.957H255.863C256.391 377.062 256.875 375.152 257.305 373.219V373.219ZM354.797 169.578V189.945C347.207 186.656 337.445 179.769 335.984 165.918C342.266 166.984 348.539 168.207 354.797 169.578ZM205.691 165.926C204.234 179.469 194.805 186.371 187.199 189.766V169.562C193.352 168.199 199.52 166.988 205.691 165.926ZM187.199 217.207V205.875C191.883 204.348 198.277 201.641 204.262 197.02C211.992 191.059 220.641 180.605 221.012 163.598C232.395 162.098 243.766 161.105 255.051 160.645C259.223 160.477 262.465 156.957 262.297 152.789C262.125 148.617 258.586 145.391 254.438 145.543C240.543 146.109 226.531 147.445 212.52 149.523C212.457 149.527 212.395 149.527 212.332 149.535C212.063 149.566 211.801 149.609 211.539 149.664C203.418 150.891 195.297 152.367 187.195 154.094V108.82C187.195 106.211 185.852 103.785 183.633 102.406C172.879 95.707 168.469 86.7148 171.227 77.0781C174.191 66.6992 186.141 56.1875 203.238 56.1875H227.988C230.824 56.1875 233.422 54.6015 234.715 52.0781C243.781 34.3867 262.809 27.8945 277.656 29.3164C291.781 30.6679 302.309 38.6758 305.816 50.7422C306.754 53.9687 309.711 56.1875 313.074 56.1875H339.688C357.211 56.1875 368.219 66.7812 371.031 76.6211C373.789 86.2734 369.172 95.6718 358.359 102.406C356.141 103.785 354.797 106.211 354.797 108.82V154.098C346.652 152.387 338.484 150.934 330.316 149.711C330.004 149.637 329.684 149.57 329.355 149.535C329.254 149.523 329.152 149.523 329.051 149.516C316.32 147.652 303.594 146.371 290.965 145.719C286.816 145.5 283.242 148.707 283.027 152.875C282.812 157.043 286.02 160.598 290.188 160.812C300.297 161.332 310.477 162.289 320.672 163.621C321.035 181.363 330.359 192.02 338.688 198.016C344.453 202.164 350.422 204.602 354.797 205.988V213.285C354.797 233.113 344.648 252.699 326.223 268.434C309.848 282.41 288.41 291.723 270.285 292.734C269.844 292.758 269.387 292.773 268.914 292.773C258.313 292.769 241.219 286.605 225.117 275.477C224.871 275.281 224.609 275.105 224.344 274.941C219.754 271.719 215.258 268.09 211.023 264.082C200.156 253.797 187.199 237.312 187.199 217.207V217.207ZM268.918 307.887C269.664 307.887 270.402 307.863 271.121 307.824C286.602 306.961 303.449 301.336 318.77 292.242C320.996 295.516 323.746 298.777 327.207 301.598C314.871 315.891 288.727 321.578 266.18 320.715C242.746 319.816 223.039 312.336 214.445 301.559C217.938 298.699 220.699 295.395 222.938 292.082C238.848 301.852 255.812 307.887 268.918 307.887V307.887ZM190.605 310.062C192.809 309.984 194.879 309.766 196.84 309.434V342.926H177.473V311.168C181.637 310.656 186.008 310.281 190.605 310.062ZM162.359 313.914V342.926H121.492C128.797 328.52 142.316 318.91 162.359 313.914ZM25.543 378.957C19.793 378.957 15.1133 374.273 15.1133 368.512C15.1133 362.734 19.793 358.035 25.543 358.035H37.9375C37.0586 362.445 37.2227 367.598 38.4648 373.219V373.23C38.8945 375.164 39.3828 377.07 39.8984 378.957H25.543ZM109.691 437.879C80.7539 426.031 60.2109 401.352 53.2227 369.957C51.9414 364.172 52.543 360.062 53.6406 358.691C53.8008 358.496 54.168 358.039 55.8203 358.039H110.434H110.461H110.484H239.945C241.609 358.039 241.98 358.496 242.137 358.691C243.23 360.055 243.824 364.16 242.547 369.953C235.797 400.445 215.02 425.734 186.824 437.879H109.691ZM249.441 450.379C245.797 442.98 238.184 437.879 229.402 437.879H216.367C231.168 426.469 242.934 411.398 250.504 394.07H270.223C282.559 394.07 292.879 385.301 295.273 373.668H372.277C377.32 373.668 378.621 380.547 378.758 381.367L390.68 450.379H249.441ZM490.656 420.969V450.488C490.656 463.746 479.883 474.535 466.637 474.535H452.824C447.195 474.535 442.617 469.937 442.617 464.285V407.145C442.617 404.023 444.023 401.23 446.23 399.355C446.301 399.301 446.367 399.246 446.434 399.187C448.184 397.773 450.406 396.922 452.82 396.922H466.637C479.883 396.922 490.656 407.711 490.656 420.969V420.969ZM436.387 246.637V180.832C436.387 172.988 442.762 166.605 450.598 166.605H482.68C490.512 166.605 496.887 172.988 496.887 180.832V246.637C496.887 254.484 490.512 260.867 482.68 260.867H450.598C442.762 260.867 436.387 254.484 436.387 246.637V246.637Z" fill="#546A7B"/>
</g>
<defs>
<clipPath id="clip0">
<rect width="512" height="512" fill="white"/>
</clipPath>
</defs>
</svg>
