<svg width="77" height="77" viewBox="0 0 77 77" fill="none" xmlns="http://www.w3.org/2000/svg">
<rect width="77" height="77" rx="38.5" fill="#7F68DE"/>
<rect x="17.6111" y="21.2778" width="37.8889" height="38.5" rx="10" fill="#FEF0F9"/>
<rect x="20" y="20.0555" width="37.8889" height="38.5" rx="10" fill="white"/>
<path d="M46.975 38.8941C45.0264 38.8941 43.4468 37.3145 43.4468 35.3659C43.4468 33.4173 45.0264 31.8376 46.975 31.8376C48.9236 31.8376 50.5033 33.4173 50.5033 35.3659C50.5033 37.3145 48.9236 38.8941 46.975 38.8941Z" fill="#6048C5"/>
<path d="M44.9799 34.7526C45.2246 34.9836 45.6866 34.8998 45.9822 34.5711C46.2875 34.2439 46.3397 33.7791 46.0826 33.555C45.8282 33.3212 45.3772 33.3982 45.072 33.7269C44.7654 34.0638 44.7255 34.5203 44.9799 34.7526Z" fill="#E4F9FF"/>
<path d="M31.0196 38.8941C29.071 38.8941 27.4914 37.3145 27.4914 35.3659C27.4914 33.4173 29.071 31.8376 31.0196 31.8376C32.9682 31.8376 34.5479 33.4173 34.5479 35.3659C34.5479 37.3145 32.9682 38.8941 31.0196 38.8941Z" fill="#6048C5"/>
<path d="M29.0244 34.7526C29.2692 34.9836 29.7312 34.8998 30.0268 34.5711C30.3321 34.2439 30.3843 33.7791 30.1272 33.555C29.8728 33.3212 29.4218 33.3982 29.1166 33.7269C28.8099 34.0638 28.7701 34.5203 29.0244 34.7526Z" fill="#E4F9FF"/>
<path fill-rule="evenodd" clip-rule="evenodd" d="M33.6885 52.7463C32.3193 51.7784 31.3298 50.3527 31.0685 48.4972C30.9915 47.9503 31.4478 47.5 32.0001 47.5V47.5C32.5524 47.5 32.9863 47.9527 33.0965 48.4938C33.329 49.6358 33.967 50.4939 34.8429 51.1131C35.9905 51.9243 37.5809 52.3411 39.2328 52.3127C40.8837 52.2842 42.4879 51.8125 43.651 50.9769C44.5249 50.3491 45.1471 49.5235 45.3888 48.4917C45.5147 47.954 45.9478 47.5 46.5001 47.5V47.5C47.0523 47.5 47.5092 47.9505 47.4244 48.4963C47.1505 50.2584 46.156 51.6399 44.8179 52.6012C43.2623 53.7188 41.2414 54.2783 39.2673 54.3124C37.2943 54.3464 35.2597 53.8569 33.6885 52.7463Z" fill="#6048C5"/>
</svg>
