<svg width="512" height="512" viewBox="0 0 512 512" fill="none" xmlns="http://www.w3.org/2000/svg">
<g clip-path="url(#clip0)">
<path fill-rule="evenodd" clip-rule="evenodd" d="M436.558 225.469L409.308 239.441L396.832 245.816C393.941 247.316 392.777 250.887 394.25 253.75L396.832 258.793L411.605 287.586L414.183 292.602C415.66 295.492 419.23 296.625 422.125 295.148L436.105 287.98L463.355 274.039L476.964 267.066C479.828 265.594 480.992 262.023 479.515 259.133L459.582 220.285C458.109 217.422 454.535 216.262 451.644 217.734L436.558 225.469Z" fill="#9EA3B0"/>
<path fill-rule="evenodd" clip-rule="evenodd" d="M215.016 186.82L165.59 217.875C164.516 219.125 156.801 226.914 155.441 228.191C152.207 231.281 148.266 234.34 143.73 236.805C156.348 302.375 272.523 293.676 278.645 238.73C274.25 235.727 270.594 232.27 267.871 228.984L260.922 220.512L215.016 186.82Z" fill="#FCC368"/>
<path fill-rule="evenodd" clip-rule="evenodd" d="M87.1602 431.844V489.652C87.1602 497.785 93.5977 504.441 101.449 504.441H317.293C325.148 504.441 331.559 497.785 331.559 489.652V414.391C350.98 392.004 382.457 348.934 359.969 277.668C349.676 256.469 333.91 248.395 307.426 246.977C306.805 246.922 302.863 246.809 302.211 246.781C293.191 246.496 285.109 243.125 278.645 238.73C254.402 279.395 169.418 279.734 143.73 236.805C138.199 239.809 131.793 241.934 124.758 242.16C124.137 242.219 120.164 242.332 119.543 242.359C86.9336 244.09 69.043 259.785 58.8906 291.75L35.5234 365.426L87.1602 392.457V431.844Z" fill="#2ED2E3"/>
<path fill-rule="evenodd" clip-rule="evenodd" d="M166.528 310.508C117.388 293.59 83.5009 316.941 77.2939 361.883C75.9892 380.187 76.8681 399.004 82.1415 418.867C97.454 474.578 177.872 496.453 220.661 441.875C235.091 423.457 249.212 409.883 271.645 411.414C295.263 413 310.462 399.711 309.669 382.738C309.556 380.102 308.989 377.949 305.02 378.629C289.282 381.234 276.72 360.859 292.513 348.59L269.915 360.152C266.567 361.852 262.345 360.379 260.528 356.867L252.364 340.914C250.548 337.371 251.794 333.09 255.169 331.363L278.024 319.66C272.352 293.676 241.501 285.145 219.755 303.539C202.2 318.359 185.329 316.289 166.528 310.508V310.508Z" fill="#FAE1DF"/>
<path fill-rule="evenodd" clip-rule="evenodd" d="M396.833 258.793L359.97 277.668L278.025 319.66L255.169 331.363C251.794 333.094 250.544 337.371 252.361 340.914L260.529 356.867C262.341 360.379 266.568 361.852 269.911 360.152L292.513 348.594C333.118 327.766 370.775 308.496 411.607 287.582L396.833 258.793Z" fill="#B5722F"/>
<path fill-rule="evenodd" clip-rule="evenodd" d="M220.348 360.383C211.754 347.402 191.168 345.844 181.273 352.391C171.375 358.906 170.27 363.781 168.996 371.234C168.484 371.176 167.945 371.176 167.379 371.176H164.004C181.16 371.176 187.285 389.512 178.723 400.875C179.262 400.168 179.742 399.43 180.195 398.664C189.414 405.41 202.23 406.09 212.352 399.43C225.336 390.844 228.91 373.387 220.348 360.383Z" fill="#B5722F"/>
<path fill-rule="evenodd" clip-rule="evenodd" d="M77.2942 361.883C63.0871 357.746 56.6223 356.215 43.634 361.004C40.6301 362.137 37.9075 363.641 35.5246 365.426C19.0207 377.867 17.9739 404.473 42.6145 415.523C49.7043 418.699 64.5598 419.348 82.1418 418.867C97.3684 418.473 114.638 417.254 130.743 416.121C143.704 415.242 169.845 412.605 178.724 400.875C187.286 389.512 181.161 371.176 164.005 371.176H153.341C146.423 371.176 141.349 368.797 145.29 360.297C150.935 348.141 133.407 343.012 123.2 354.344C115.15 363.27 117.388 372.227 105.337 369.422C93.0324 366.586 84.2395 363.922 77.2942 361.883Z" fill="#FFDDA6"/>
<path fill-rule="evenodd" clip-rule="evenodd" d="M125.016 117.734H111.402C106.414 117.734 102.301 121.816 102.301 126.832V135.844C102.301 147.316 115.035 159.051 126.402 158.91L143.73 133.832L125.016 117.734Z" fill="#EDA93B"/>
<path fill-rule="evenodd" clip-rule="evenodd" d="M327.699 126.832C327.699 121.816 323.59 117.734 318.598 117.734H305.016L284.43 138.309L303.598 158.91C314.969 159.051 327.699 147.316 327.699 135.844V126.832Z" fill="#EDA93B"/>
<path fill-rule="evenodd" clip-rule="evenodd" d="M305.016 97.5898L219.41 57.4062L125.016 96.7383V146.242C125.016 150.352 125.496 154.602 126.402 158.91C130.914 179.848 145.828 202.262 165.59 217.875C173.871 224.395 183 229.75 192.586 233.293C208.918 239.355 221.227 239.328 237.559 233.234C245.754 230.203 253.637 225.809 260.922 220.512C282.418 204.84 298.836 181.066 303.598 158.906C304.535 154.602 305.016 150.348 305.016 146.242V97.5898Z" fill="#FFDDA6"/>
<path fill-rule="evenodd" clip-rule="evenodd" d="M259.051 14.875C231.406 29.582 196.895 8.16015 167.945 20.8828C139.562 33.3476 125.016 59.9844 125.016 96.7383C208.012 65.9922 235.688 135.812 305.016 97.5898C307.938 95.9726 310.941 94.1601 314.004 92.1484C366.352 54.1484 315.055 -14.9063 259.051 14.875V14.875Z" fill="#808080"/>
<path fill-rule="evenodd" clip-rule="evenodd" d="M353.957 332.043L333.942 352.191C326.707 366.187 320.5 419.719 342.985 424.789C374.715 431.957 397.004 409.121 388.243 374.324L379.45 339.441L353.957 332.043Z" fill="#FFDDA6"/>
<path fill-rule="evenodd" clip-rule="evenodd" d="M375.595 306.031C372.052 302.32 366.321 301.215 361.614 303.734L328.411 321.359C323.989 323.715 321.692 328.586 322.341 333.293C322.512 334.625 322.911 335.926 323.591 337.145L327.845 345.164C329.376 348.027 331.473 350.406 333.938 352.191C340.177 356.727 348.712 357.602 355.942 353.777L373.071 344.684C375.595 343.324 377.751 341.539 379.45 339.441C384.528 333.148 385.688 324.168 381.692 316.602L377.407 308.582C376.927 307.617 376.305 306.77 375.595 306.031V306.031Z" fill="#FCC368"/>
<path fill-rule="evenodd" clip-rule="evenodd" d="M388.242 374.324L379.449 339.441C377.75 341.539 375.594 343.324 373.07 344.684L371.711 345.391L375.566 360.75C384.215 395.035 362.664 417.734 331.672 411.5C331.215 411.414 330.766 411.328 330.309 411.215C330.309 411.215 330.309 411.215 330.281 411.215C330.68 412.32 331.105 413.398 331.559 414.391C334.023 419.773 337.738 423.598 342.984 424.789C374.715 431.961 397.004 409.121 388.242 374.324V374.324Z" fill="#FCC368"/>
<path fill-rule="evenodd" clip-rule="evenodd" d="M212.008 424.109C176.168 469.871 113.812 461.883 85.6016 425.27C84.6914 424.109 83.8125 422.891 82.9609 421.645C84.125 425.215 85.5156 428.617 87.1602 431.844C110.383 477.664 181.387 491.977 220.66 441.875C235.09 423.457 249.211 409.883 271.645 411.414C295.262 413 310.461 399.711 309.668 382.738C309.555 380.102 308.988 377.949 305.02 378.629C302.578 379.023 300.227 378.883 298.016 378.289C292.512 388.293 279.922 394.781 262.996 393.645C240.562 392.117 226.441 405.691 212.008 424.109Z" fill="#DDB4B4"/>
<path fill-rule="evenodd" clip-rule="evenodd" d="M204.324 386.707C197.805 391.012 190.176 392.258 183.086 390.785C182.891 390.758 182.691 390.699 182.52 390.672C182.266 394.242 181.02 397.812 178.723 400.875C179.258 400.164 179.742 399.43 180.195 398.664C189.41 405.406 202.227 406.086 212.352 399.43C225.336 390.844 228.91 373.387 220.348 360.379C219.098 358.48 217.598 356.84 215.895 355.422C219.211 366.957 214.875 379.762 204.324 386.707V386.707Z" fill="#733E08"/>
<path fill-rule="evenodd" clip-rule="evenodd" d="M174.637 385.941C165.762 397.699 139.645 400.309 126.66 401.215C111.403 402.262 95.0979 403.395 80.4964 403.879C79.9573 403.879 79.4456 403.906 78.9378 403.906C78.6526 403.934 78.3674 403.934 78.0862 403.934C60.4768 404.414 45.6448 403.793 38.5276 400.59C31.5549 397.473 26.6487 393.109 23.5589 388.148C23.2737 398.691 29.0589 409.457 42.6135 415.523C49.6995 418.695 64.5589 419.348 82.1409 418.867C82.7932 418.867 83.4143 418.84 84.0393 418.809C98.7854 418.355 115.317 417.195 130.742 416.117C143.699 415.238 169.844 412.602 178.719 400.871C181.016 397.812 182.266 394.242 182.52 390.672C182.832 385.855 181.356 381.008 178.266 377.352C177.785 380.387 176.594 383.332 174.637 385.941V385.941Z" fill="#FCC368"/>
<path fill-rule="evenodd" clip-rule="evenodd" d="M456.066 259.871L428.848 273.812L414.836 280.98C411.973 282.457 408.402 281.324 406.926 278.434L411.605 287.586L414.188 292.602C415.66 295.492 419.234 296.625 422.125 295.152L436.105 287.98L463.355 274.039L476.965 267.07C479.828 265.598 480.992 262.023 479.52 259.137L472.258 245.023C473.703 247.887 472.543 251.426 469.68 252.902L456.066 259.871Z" fill="#7D8495"/>
<path fill-rule="evenodd" clip-rule="evenodd" d="M359.969 277.668C349.676 256.469 333.91 248.395 307.426 246.977C306.805 246.922 302.863 246.809 302.211 246.781C293.191 246.496 285.109 243.125 278.645 238.73C274.477 245.703 268.523 251.484 261.406 256.074C261.633 256.246 261.859 256.387 262.086 256.527C268.355 260.551 275.98 263.527 284.461 263.809C285.113 263.836 289.055 263.953 289.676 263.98C313.41 265.254 328.523 271.887 338.816 288.492L359.969 277.668Z" fill="#00B6C8"/>
<path fill-rule="evenodd" clip-rule="evenodd" d="M192.586 233.293C183 229.75 173.871 224.395 165.59 217.875C164.512 219.125 156.801 226.945 155.441 228.191L153.91 229.609C161.961 238.422 177.559 244.883 188.785 248.422C208.039 254.488 222.5 254.461 241.754 248.395C246.715 246.809 249.184 249.359 253.691 252.105C256.586 253.863 256.215 253.582 261.266 256.16C261.32 256.133 261.348 256.102 261.406 256.074C268.523 251.484 274.477 245.703 278.645 238.73C276.32 237.145 274.223 235.445 272.324 233.688C270.648 232.129 269.176 230.543 267.871 228.984L260.922 220.512C253.637 225.809 245.754 230.203 237.559 233.234C221.227 239.328 208.918 239.355 192.586 233.293V233.293Z" fill="#EDA93B"/>
<path fill-rule="evenodd" clip-rule="evenodd" d="M305.016 97.5898C298.438 101.215 292.258 103.852 286.332 105.723V138.676C286.332 139.242 286.332 139.781 286.305 140.348C286.191 143.949 285.734 147.602 284.914 151.344C280.461 172.086 265.832 194.215 246.352 209.832C245.016 210.906 243.629 211.926 242.238 212.949C234.949 218.246 227.098 222.637 218.871 225.699C205.008 230.855 194.062 231.648 181.047 228.051C184.789 230.063 188.645 231.848 192.586 233.293C208.922 239.355 221.227 239.328 237.559 233.234C245.754 230.203 253.637 225.812 260.926 220.512C282.418 204.844 298.836 181.066 303.602 158.91C304.535 154.602 305.02 150.352 305.02 146.242V97.5898H305.016Z" fill="#FCC368"/>
<path fill-rule="evenodd" clip-rule="evenodd" d="M314.004 92.1484C363.258 56.3867 320.754 -6.8594 268.891 10.5937C308.078 14.1367 332.352 62.1094 294.582 92.6836C293.645 93.4492 292.68 94.1875 291.66 94.9258C288.57 96.9375 285.563 98.75 282.645 100.367C275.043 104.559 267.926 107.449 261.18 109.32C269.09 109.547 277.367 108.527 286.328 105.719C292.254 103.852 298.438 101.215 305.016 97.5859C307.938 95.9726 310.941 94.1601 314.004 92.1484V92.1484Z" fill="#666666"/>
<path fill-rule="evenodd" clip-rule="evenodd" d="M322.797 335.273C322.992 335.926 323.25 336.551 323.59 337.145L327.844 345.164C329.375 348.023 331.473 350.406 333.938 352.191C340.176 356.723 348.711 357.602 355.941 353.777L373.07 344.68C375.594 343.32 377.75 341.535 379.449 339.437C384.527 333.148 385.688 324.168 381.691 316.602L377.75 309.176C385.574 330.145 332.379 353.352 322.797 335.273V335.273Z" fill="#EDA93B"/>
<path fill-rule="evenodd" clip-rule="evenodd" d="M364.281 293.848L256.441 348.875L256.527 349.047L260.527 356.867C262.34 360.383 266.566 361.855 269.91 360.152L292.512 348.594L322.34 333.293C321.687 328.586 323.984 323.715 328.41 321.359L361.613 303.734C361.727 303.68 361.84 303.625 361.953 303.566C363.23 302.941 364.563 302.574 365.895 302.434C369.469 302.094 373.07 303.395 375.594 306.031L411.605 287.586L406.926 278.434L404.348 273.387L364.281 293.848Z" fill="#733E08"/>
<path fill-rule="evenodd" clip-rule="evenodd" d="M397.938 146.867C392.891 144.371 385.773 143.75 377.832 145.59C362.605 149.133 350.273 160.352 350.273 170.695C350.273 181.039 362.605 186.562 377.832 183.051C393.062 179.508 405.395 168.289 405.395 157.945C405.395 152.984 402.559 149.133 397.938 146.867V146.867Z" fill="#A2D6F2"/>
<path fill-rule="evenodd" clip-rule="evenodd" d="M480.254 115.949C475.379 114.109 468.941 113.797 461.879 115.441C446.652 118.953 434.32 130.203 434.32 140.547C434.32 150.891 446.652 156.414 461.879 152.871C477.109 149.359 489.441 138.109 489.441 127.766C489.441 122.242 485.898 118.074 480.254 115.949V115.949Z" fill="#A2D6F2"/>
<path fill-rule="evenodd" clip-rule="evenodd" d="M397.938 146.867C392.891 144.371 385.773 143.75 377.832 145.59C377.41 145.703 376.984 145.789 376.586 145.902C377.379 146.184 378.145 146.496 378.855 146.867C383.477 149.133 386.312 152.984 386.312 157.945C386.312 167.977 374.656 178.887 360.027 182.738C364.816 184.383 371.055 184.609 377.832 183.051C393.059 179.508 405.395 168.289 405.395 157.945C405.395 152.984 402.559 149.133 397.938 146.867Z" fill="#2ED2E3"/>
<path fill-rule="evenodd" clip-rule="evenodd" d="M489.441 127.766C489.441 122.242 485.898 118.074 480.254 115.949C475.379 114.109 468.941 113.797 461.879 115.441C461.457 115.523 461.031 115.637 460.605 115.754C460.805 115.809 461 115.894 461.199 115.949C466.812 118.074 470.359 122.242 470.359 127.766C470.359 137.824 458.703 148.734 444.074 152.559C448.863 154.23 455.074 154.461 461.879 152.871C477.105 149.359 489.441 138.109 489.441 127.766Z" fill="#2ED2E3"/>
<path d="M466.309 216.836C466.305 216.832 466.305 216.828 466.301 216.828C462.918 210.258 454.805 207.645 448.199 211.012L439.879 215.273L436.047 207.676C434.168 203.949 429.625 202.453 425.899 204.328C422.168 206.207 420.672 210.754 422.551 214.477L426.43 222.164L412.637 229.23L408.832 221.652C406.957 217.926 402.414 216.418 398.688 218.293C394.957 220.168 393.453 224.707 395.324 228.437L399.184 236.121L393.348 239.109C387.34 242.23 384.656 249.262 386.793 255.449L363.059 267.605C351.848 249.437 334.918 240.902 307.926 239.437C307.375 239.398 306.387 239.359 303.781 239.273C303.195 239.254 302.723 239.242 302.449 239.23C290.066 238.836 279.481 231.199 273.715 224.195L271.645 221.672C289.754 206.562 303.828 186.098 309.645 165.785C315.352 164.477 320.977 161.312 325.695 156.652C331.774 150.652 335.258 143.066 335.258 135.844V126.832C335.258 117.648 327.785 110.18 318.598 110.18H312.57V101.926C314.406 100.836 316.254 99.7031 318.141 98.4726C318.242 98.4062 318.344 98.3359 318.445 98.2617C347.719 77.0117 348.066 47.0781 335.422 26.8398C321.176 4.03514 289.149 -9.69142 255.504 8.20311C243.418 14.6328 228.965 12.8515 213.66 10.9687C197.555 8.98436 180.899 6.93358 164.906 13.9609C149.328 20.8047 137.328 31.5859 129.242 46.0078C121.422 59.9531 117.457 77.0234 117.457 96.7383V110.18H111.402C102.219 110.18 94.7462 117.648 94.7462 126.832V135.844C94.7462 143.066 98.2306 150.652 104.309 156.652C109.031 161.316 114.664 164.484 120.379 165.793C125.785 184.668 138.313 203.664 154.586 218.379C152.652 220.332 150.805 222.18 150.215 222.73C145.742 227.008 136.457 234.238 124.524 234.609C124.375 234.613 124.297 234.617 124.149 234.629C123.625 234.664 121.953 234.719 120.727 234.758C120 234.781 119.41 234.801 119.141 234.812C83.9024 236.68 63.0978 253.535 51.6876 289.461L28.9728 360.996C21.1759 367.703 16.3634 377.269 16.0196 387.711C15.5274 402.633 24.3165 415.605 39.5157 422.414C46.2267 425.43 57.3985 426.555 72.2423 426.555C73.672 426.555 75.1485 426.539 76.6485 426.52C77.5157 428.941 78.5079 431.309 79.6056 433.613V489.652C79.6056 501.977 89.4063 512 101.453 512H317.297C329.328 512 339.113 501.977 339.113 489.652V431.535C339.879 431.793 340.621 432.004 341.32 432.16C345.75 433.16 350.09 433.652 354.281 433.652C366.629 433.652 377.633 429.375 385.574 421.238C396.828 409.711 400.473 391.937 395.57 372.477L387.617 340.914C388.777 338.965 389.715 336.863 390.402 334.633C392.629 327.383 391.906 319.719 388.367 313.055C388.363 313.051 388.359 313.047 388.359 313.043L386.238 309.07L408.457 297.687C411.016 301.305 415.164 303.352 419.449 303.352C421.512 303.352 423.609 302.875 425.57 301.875L432.785 298.18L436.617 305.777C437.945 308.414 440.609 309.934 443.371 309.934C444.516 309.934 445.676 309.672 446.77 309.125C450.496 307.246 451.992 302.699 450.113 298.973L446.238 291.293L460.031 284.23L463.867 291.836C465.199 294.473 467.859 295.992 470.621 295.992C471.766 295.992 472.926 295.73 474.02 295.18C477.746 293.301 479.242 288.758 477.363 285.031L473.484 277.34L480.422 273.789C487 270.406 489.613 262.293 486.242 255.684L466.309 216.836ZM114.93 145.898C111.754 142.766 109.859 139.004 109.859 135.844V126.832C109.859 125.996 110.567 125.293 111.406 125.293H117.457V146.242C117.457 146.852 117.492 147.469 117.508 148.082C116.613 147.434 115.746 146.707 114.93 145.898ZM318.598 125.293C319.438 125.293 320.145 125.996 320.145 126.832V135.844C320.145 139.008 318.25 142.766 315.074 145.902C314.27 146.699 313.406 147.418 312.524 148.059C312.539 147.453 312.574 146.844 312.574 146.242V125.293H318.598ZM170.984 27.7969C183.176 22.4414 197.086 24.1523 211.816 25.9687C228.77 28.0547 246.305 30.2148 262.602 21.5469C288.074 7.99998 312.07 17.9844 322.606 34.8476C330.859 48.0586 332.418 69.3437 309.711 85.9258C272.883 109.934 249.152 101.855 221.672 92.5C205.609 87.0312 188.231 81.1172 167.106 81.1172C156.746 81.1172 145.484 82.539 133.035 86.1367C134.996 64.3867 143.785 39.7461 170.984 27.7969V27.7969ZM133.801 157.371C133.797 157.34 133.789 157.309 133.785 157.277C132.996 153.535 132.57 149.836 132.57 146.242V102.113C168.367 90.3359 192.977 98.6992 216.805 106.809C231.449 111.793 246.348 116.867 263.172 116.867C273.707 116.867 285.004 114.855 297.457 109.613V146.242C297.457 149.727 297.051 153.309 296.309 156.937C296.219 157.273 296.145 157.617 296.102 157.969C289.996 185.441 264.02 215.305 234.918 226.156C220.242 231.629 209.856 231.645 195.215 226.207C165.848 215.305 139.664 185.059 133.801 157.371V157.371ZM45.7032 408.629C36.1524 404.348 30.836 396.906 31.1251 388.211C31.4181 379.289 37.3556 371.395 46.254 368.09C57.4571 363.949 62.0118 365.285 77.0978 369.711C83.8399 371.684 92.2306 374.145 103.621 376.781C117.356 379.977 121.738 371.457 124.356 366.367C125.539 364.062 126.762 361.676 128.817 359.402C131.82 356.066 135.102 355.629 136.371 355.598C137.664 355.562 138.453 355.855 138.793 356.047C138.758 356.27 138.656 356.633 138.434 357.117C135.02 364.48 136.465 369.41 138.277 372.246C141.024 376.551 146.094 378.734 153.34 378.734H164.004C169.852 378.734 172.578 381.742 173.836 384.262C175.758 388.113 175.305 392.852 172.695 396.316C169.899 400.012 160.664 406.52 130.219 408.582L127.867 408.746C97.9298 410.824 56.9259 413.672 45.7032 408.629V408.629ZM93.797 428.23C93.4337 427.5 93.0782 426.766 92.7423 426.02C103.617 425.523 115.731 424.734 128.914 423.82L131.254 423.656C156.57 421.941 173.262 416.949 182.078 408.426C186.738 410.527 191.766 411.609 196.813 411.609C203.672 411.609 210.551 409.656 216.516 405.73C232.934 394.879 237.484 372.672 226.649 356.211C215.707 339.687 190.602 337.164 177.113 346.078C168.07 352.035 164.691 357.465 162.918 363.621H153.34C152.867 363.621 152.453 363.605 152.094 363.582C152.113 363.543 152.129 363.504 152.149 363.465C155.746 355.68 153.805 347.836 147.207 343.484C139.684 338.527 126.543 339.34 117.59 349.285C114.219 353.02 112.305 356.742 110.91 359.461C110.399 360.461 109.727 361.766 109.285 362.387C108.918 362.387 108.215 362.332 107.039 362.059C98.461 360.074 91.6095 358.184 85.8985 356.531C89.2071 340.973 96.3985 328.875 106.91 321.32C110.297 318.883 111.07 314.164 108.637 310.773C106.195 307.387 101.477 306.613 98.0899 309.047C84.6798 318.684 75.5235 333.566 71.3204 352.406C63.1603 350.363 56.3985 349.687 47.7384 351.832L66.0899 294.039C75.5626 264.219 91.1642 251.43 119.891 249.91C120.074 249.898 120.59 249.883 121.223 249.863C123.465 249.789 124.547 249.75 125.156 249.711C131.027 249.508 136.363 248.184 141.102 246.328C152.375 260.965 171.059 271.309 193.453 275.086C193.879 275.16 194.305 275.191 194.723 275.191C198.34 275.191 201.543 272.582 202.164 268.895C202.859 264.777 200.086 260.879 195.969 260.184C178.274 257.199 163.586 249.555 154.496 238.844C156.965 237.012 159.027 235.215 160.606 233.707C161.34 233.016 163.969 230.395 166.461 227.863C173.867 233.055 181.777 237.34 189.957 240.375C198.961 243.719 206.977 245.391 214.996 245.391C223.059 245.391 231.125 243.699 240.195 240.316C246.828 237.844 253.277 234.543 259.434 230.613L262.035 233.789C263.191 235.191 265.305 237.566 268.281 240.211C259.941 250.016 246.246 257.133 229.602 260.082C225.492 260.809 222.75 264.73 223.481 268.84C224.129 272.504 227.316 275.078 230.914 275.078C231.352 275.078 231.793 275.043 232.242 274.961C253.297 271.23 270.246 262.047 280.816 248.812C286.684 251.801 293.75 254.07 301.879 254.328C302.09 254.34 302.625 254.355 303.285 254.379C304.285 254.41 306.367 254.48 306.742 254.504C306.836 254.512 306.93 254.52 307.024 254.523C328.715 255.684 341 261.266 349.566 274.516L282.324 308.961C277.758 299.227 269.68 291.926 259.188 288.371C244.348 283.336 227.781 286.852 214.875 297.766C200.598 309.82 187.18 308.941 168.863 303.32C154.82 298.512 141.547 296.633 129.402 297.742C125.246 298.121 122.184 301.797 122.563 305.953C122.945 310.109 126.641 313.164 130.777 312.793C140.817 311.875 152.016 313.512 164.07 317.656C164.149 317.684 164.227 317.707 164.305 317.73C183.473 323.625 204.051 326.687 224.629 309.309C233.453 301.844 244.559 299.367 254.332 302.684C260.945 304.926 266.027 309.605 268.848 315.867L251.719 324.641C244.649 328.262 241.918 337.109 245.633 344.355L253.813 360.336C256.453 365.449 261.637 368.414 266.953 368.414C269.121 368.414 271.309 367.922 273.359 366.879L277.84 364.586C278.086 366.898 278.676 369.211 279.664 371.469C283.641 380.555 292.438 386.289 301.984 386.406C301.473 390.293 299.711 393.785 296.789 396.645C291.316 402.008 282.566 404.582 272.156 403.879C244.703 402 228.117 420.105 214.711 437.215C197.066 459.719 170.227 469.875 142.899 464.387C120.887 459.965 102.984 446.551 93.8243 428.289C93.8165 428.266 93.8087 428.25 93.797 428.23V428.23ZM187.363 377.52C185.141 373.066 181.766 369.539 177.625 367.148C178.637 364.191 180.504 361.945 185.441 358.691C192.074 354.305 207.856 355.207 214.035 364.535C220.285 374.035 217.66 386.859 208.195 393.117C202.574 396.812 195.559 397.465 189.461 395.156C190.766 389.281 190.106 383.02 187.363 377.52ZM324 415.934V489.652C324 493.641 320.992 496.887 317.293 496.887H101.449C97.8009 496.887 94.7149 493.574 94.7149 489.652V455.148C106.473 467.098 122.098 475.621 139.922 479.203C145.852 480.391 151.762 480.977 157.59 480.977C184.234 480.977 209.18 468.766 226.609 446.535C241.031 428.129 252.934 417.715 271.137 418.953C285.91 419.941 298.777 415.855 307.371 407.437C314.164 400.781 317.66 391.883 317.215 382.414C317.145 380.73 316.953 376.258 313.203 373.234C310.711 371.223 307.531 370.531 303.781 371.172C299.031 371.965 295.027 368.867 293.512 365.406C292.559 363.23 291.766 359.02 296.746 354.895L318.531 343.734L321.168 348.707C322.238 350.719 323.524 352.535 324.973 354.172C319.871 369.234 316.762 398.121 324 415.934V415.934ZM330.25 333.578C329.395 332.684 329.106 329.594 331.953 328.035L365.152 310.414C367.75 308.676 370.047 310.82 370.742 312.141L375.016 320.145C376.66 323.238 376.992 326.809 375.949 330.199C374.91 333.59 372.629 336.359 369.524 338.008L352.402 347.102C348.27 349.297 343.488 349.059 339.688 346.91C336.934 345.078 335.223 342.945 334.52 341.625L330.25 333.578ZM374.754 410.684C367.774 417.836 357.082 420.227 344.649 417.418C343.711 417.207 340.863 416.566 338.399 411.184C332.84 399.055 334.625 375.727 338.156 362.562C340.774 363.34 343.5 363.754 346.25 363.754C350.731 363.754 355.27 362.691 359.488 360.453L374.891 352.273L380.91 376.168C384.5 390.418 382.258 403 374.754 410.684V410.684ZM376.313 297.172C375.195 296.566 374.008 296.066 372.766 295.684C367.832 294.164 362.617 294.652 358.07 297.062L324.875 314.684C320.336 317.086 317.012 321.125 315.504 326.055C315.25 326.894 315.074 327.746 314.934 328.598L267.094 353.109L259.242 337.77L393.559 268.965L401.43 284.309L376.313 297.172ZM432.852 281.168C432.801 281.191 432.75 281.211 432.703 281.234C432.641 281.266 432.582 281.305 432.52 281.34L420.152 287.672L401.742 251.793L412.504 246.277C412.57 246.25 412.637 246.227 412.703 246.195C412.805 246.145 412.899 246.082 412.996 246.027L439.875 232.258C439.902 232.242 439.934 232.234 439.961 232.219C440.004 232.199 440.043 232.172 440.086 232.148L453.621 225.215L472.035 261.105L432.852 281.168Z" fill="#546A7B"/>
<path d="M163.484 143.957C164.925 145.242 166.722 145.871 168.507 145.871C170.585 145.871 172.655 145.016 174.148 143.34C174.734 142.746 177.495 141.644 181.534 141.644H181.585C185.601 141.652 188.331 142.754 188.894 143.332C191.671 146.449 196.448 146.727 199.566 143.953C202.683 141.18 202.96 136.402 200.187 133.285C194.765 127.191 185.339 126.531 181.534 126.531H181.53C177.726 126.531 168.284 127.191 162.862 133.285C160.089 136.402 160.366 141.184 163.484 143.957Z" fill="#546A7B"/>
<path d="M229.485 143.973C230.926 145.246 232.711 145.871 234.492 145.871C236.578 145.871 238.657 145.012 240.149 143.324C240.731 142.734 243.481 141.644 247.496 141.644H247.582C251.575 141.66 254.289 142.754 254.852 143.332C257.629 146.449 262.407 146.727 265.524 143.953C268.641 141.18 268.918 136.402 266.145 133.285C260.731 127.199 251.336 126.531 247.489 126.531C247.473 126.531 247.457 126.531 247.438 126.531C243.641 126.539 234.223 127.211 228.836 133.301C226.071 136.43 226.36 141.211 229.485 143.973Z" fill="#546A7B"/>
<path d="M350.125 185.875C354.934 189.699 361.477 191.68 368.883 191.68C372.285 191.68 375.867 191.262 379.547 190.41C398.59 185.98 412.953 172.023 412.953 157.945C412.953 151.957 410.32 146.566 405.543 142.766C405.527 142.754 405.512 142.746 405.496 142.73V79.5273C405.523 79.5234 405.551 79.5156 405.578 79.5117L472.699 65.5156V106.84C468.754 106.664 464.535 107.066 460.18 108.078C441.441 112.402 426.762 126.664 426.762 140.547C426.762 146.539 429.398 151.934 434.184 155.734C438.984 159.543 445.512 161.516 452.887 161.516C456.297 161.516 459.891 161.094 463.578 160.234C482.32 155.91 497 141.648 497 127.766C497 121.773 494.363 116.379 489.574 112.578C489.016 112.133 488.418 111.723 487.812 111.328V63.5859C487.812 59.3633 485.875 55.2656 482.629 52.625C479.766 50.293 476.121 49.3711 472.617 50.0937L402.504 64.7148C395.254 66.2148 390.383 71.6367 390.383 78.207V137.129C385.949 136.723 381.133 137.074 376.137 138.227C376.129 138.23 376.125 138.23 376.121 138.23C357.078 142.66 342.715 156.621 342.715 170.699C342.715 176.684 345.348 182.074 350.125 185.875V185.875ZM480.176 124.414C481.691 125.617 481.887 126.836 481.887 127.766C481.887 133.777 472.605 142.645 460.168 145.512C451.859 147.445 446.043 145.852 443.586 143.898C442.07 142.695 441.875 141.477 441.875 140.547C441.875 134.535 451.156 125.668 463.578 122.801H463.594C466.25 122.18 468.652 121.926 470.773 121.926C475.277 121.926 478.504 123.086 480.176 124.414ZM379.535 152.953C387.852 151.035 393.672 152.637 396.129 154.594C397.645 155.797 397.84 157.016 397.84 157.945C397.84 163.937 388.551 172.801 376.133 175.687C367.816 177.605 361.996 176.004 359.535 174.047C358.023 172.844 357.828 171.625 357.828 170.695C357.828 164.707 367.113 155.848 379.535 152.953Z" fill="#546A7B"/>
</g>
<defs>
<clipPath id="clip0">
<rect width="512" height="512" fill="white"/>
</clipPath>
</defs>
</svg>
