<svg width="512" height="512" viewBox="0 0 512 512" fill="none" xmlns="http://www.w3.org/2000/svg">
<path d="M439.709 242.322C449.938 260.04 437.671 282.291 417.223 283.08C342.556 286.003 266.424 304.651 194.646 341.364L170.913 355.061C170.913 355.169 170.585 354.501 228.365 454.989C233.666 464.184 230.519 475.928 221.335 481.24L202.615 492.046C193.43 497.347 181.675 494.2 176.374 485.005L118.741 385.184L109.386 390.592C91.0065 401.195 67.5072 394.902 56.8937 376.523L13.6712 301.662C3.06831 283.283 9.3618 259.784 27.7409 249.17L113.002 199.942C178.161 157.793 233.376 101.984 274.766 36.3328C285.678 19.0204 311.076 19.5217 321.306 37.2395L358.288 101.305C379.536 89.0381 406.716 96.3237 418.983 117.572C431.25 138.821 423.964 165.989 402.716 178.256L439.709 242.322Z" fill="#AEEFF6"/>
<path d="M418.982 117.573C431.249 138.822 423.963 165.99 402.715 178.257L358.287 101.306C379.536 89.0391 406.715 96.3246 418.982 117.573Z" fill="#4D4E59"/>
<path d="M321.306 37.2391C326.409 46.0863 326.082 57.0615 320.434 65.5716C274.873 134.221 213.807 196.252 139.125 244.572L39.2292 302.248C32.3704 306.217 26.9409 311.71 23.1435 318.057L13.6712 301.662C3.06831 283.283 9.3618 259.783 27.7409 249.17L113.002 199.942C178.161 157.793 233.376 101.983 274.766 36.3324C285.678 19.02 311.076 19.5224 321.306 37.2391V37.2391Z" fill="#E8F8FC"/>
<path d="M113.002 199.943L194.646 341.366C178.285 350.807 125.723 381.149 109.386 390.593C91.0065 401.196 67.5073 394.903 56.8937 376.524L13.6712 301.663C3.06831 283.284 9.3618 259.785 27.7409 249.171L113.002 199.943Z" fill="#F0BFBC"/>
<path d="M138.856 244.732C30.3684 307.363 37.5579 303.006 34.0581 305.729C27.467 310.857 17.8475 308.893 13.6693 301.662C3.06636 283.283 9.35985 259.783 27.739 249.17L113 199.942L138.856 244.732Z" fill="#FAE1DF"/>
<path d="M186.454 382.092C156.1 399.667 178.432 386.733 134.335 412.183L118.74 385.185L170.912 355.072L186.454 382.092Z" fill="#BDEFFC"/>
<path d="M416.326 166.053C412.806 170.886 408.23 175.078 402.715 178.256L358.287 101.305C363.802 98.1157 369.722 96.2596 375.664 95.6196C377.899 99.4939 414.375 162.675 416.326 166.053V166.053Z" fill="#42434D"/>
<path d="M414.025 180.775C447.328 153.572 435.825 99.7765 394.21 88.6274C383.336 85.7143 372.079 86.3202 361.76 90.2509L328.695 32.9791C315.24 9.6729 281.868 9.05529 267.54 31.7791C226.87 96.2863 172.689 151.151 108.363 192.785C104.7 195.151 103.342 200.04 105.51 204.02C105.857 204.657 160.628 299.511 160.99 300.139C163.346 304.218 168.562 305.619 172.647 303.262C176.728 300.906 178.127 295.686 175.771 291.605L124.409 202.643C185.745 161.639 240.068 107.354 281.978 40.8812C289.474 28.9907 306.897 29.3598 313.914 41.5126L432.312 246.585C439.338 258.754 430.915 274.012 416.891 274.558C338.215 277.624 261.186 297.747 190.76 333.767C190.46 333.92 110.612 380.028 105.113 383.202C90.8393 391.444 72.5242 386.536 64.285 372.262L21.0616 297.394C12.8214 283.122 17.7292 264.807 32.0016 256.567L84.0231 226.532C88.1043 224.175 89.5027 218.956 87.1464 214.875C84.7901 210.793 79.5697 209.395 75.4896 211.752L23.468 241.786C1.04613 254.731 -6.66393 283.505 6.28146 305.928L49.506 380.795C62.4525 403.219 91.2265 410.927 113.648 397.981L115.616 396.845L168.982 489.277C176.647 502.555 193.597 507.102 206.882 499.433L225.599 488.627C238.879 480.959 243.421 464.009 235.754 450.727L197.932 385.218C195.576 381.137 190.356 379.739 186.275 382.095C182.194 384.451 180.796 389.671 183.152 393.752L220.974 459.261C223.924 464.371 222.177 470.895 217.065 473.846L198.348 484.652C193.238 487.603 186.714 485.854 183.763 480.744L130.398 388.312L198.725 348.862C265.586 314.7 339.969 294.634 417.557 291.612C444.446 290.563 460.529 261.319 447.092 238.051L414.025 180.775ZM411.588 121.836C420.012 136.428 416.986 154.536 405.324 165.703L370.459 105.315C385.744 100.831 403.027 107.008 411.588 121.836ZM495.052 83.8966L472.973 96.6447C468.888 99.0021 463.671 97.6015 461.316 93.5214C458.958 89.4402 460.358 84.2209 464.439 81.8646L486.519 69.1165C490.603 66.7591 495.82 68.1597 498.175 72.2398C500.532 76.321 499.133 81.5403 495.052 83.8966ZM400.097 35.2597L405.482 15.1674C406.702 10.6148 411.378 7.915 415.934 9.13316C420.487 10.3535 423.188 15.033 421.968 19.5846L416.583 39.6769C415.366 44.2178 410.698 46.9314 406.13 45.7111C401.579 44.4908 398.878 39.8123 400.097 35.2597V35.2597ZM511.706 175.017C510.684 178.829 507.237 181.343 503.468 181.343C501.924 181.343 503.004 181.519 481.162 175.666C476.609 174.446 473.907 169.768 475.127 165.215C476.348 160.662 481.027 157.964 485.579 159.181L505.672 164.564C510.224 165.785 512.927 170.464 511.706 175.017Z" fill="#546A7B"/>
</svg>
