<svg width="512" height="512" viewBox="0 0 512 512" fill="none" xmlns="http://www.w3.org/2000/svg">
<path fill-rule="evenodd" clip-rule="evenodd" d="M402.562 148.965V200.531C406.727 197.27 411.941 195.309 417.609 195.309C423.363 195.309 428.633 197.297 432.828 200.645V148.965H402.562Z" fill="#FFD064"/>
<path fill-rule="evenodd" clip-rule="evenodd" d="M417.695 116.555C369.77 116.555 330.945 125.809 330.945 137.246C330.945 148.684 369.77 157.961 417.695 157.961C449.918 157.961 478.059 153.762 493.023 147.52C500.277 144.512 504.441 140.992 504.441 137.246C504.441 133.5 500.277 130.008 493.023 126.973C478.059 120.758 449.918 116.555 417.695 116.555V116.555Z" fill="#E6E6E6"/>
<path fill-rule="evenodd" clip-rule="evenodd" d="M493.023 126.973C478.059 120.758 449.918 116.559 417.695 116.559C409.305 116.559 401.199 116.84 393.547 117.352C422.059 118.031 446.516 122.035 460.09 127.684C467.371 130.719 471.512 134.211 471.512 137.953C471.512 141.699 467.371 145.219 460.09 148.227C453.402 151.039 444.02 153.422 432.828 155.211C425.543 156.371 417.523 157.254 408.938 157.848C411.543 157.906 414.18 157.961 416.871 157.961H417.691C422.852 157.961 427.895 157.848 432.828 157.648C458.59 156.57 480.438 152.77 493.02 147.52C500.277 144.512 504.441 140.992 504.441 137.246C504.441 133.5 500.277 130.008 493.023 126.973V126.973Z" fill="#C2C7CC"/>
<path fill-rule="evenodd" clip-rule="evenodd" d="M79.1719 148.965V200.531C83.3398 197.27 88.5547 195.309 94.2227 195.309C99.9453 195.309 105.246 197.297 109.441 200.645V148.965H79.1719Z" fill="#FFD064"/>
<path fill-rule="evenodd" clip-rule="evenodd" d="M94.3047 116.555C46.3828 116.555 7.55859 125.809 7.55859 137.246C7.55859 148.684 46.3828 157.961 94.3047 157.961C126.527 157.961 154.672 153.762 169.605 147.52C176.891 144.512 181.055 140.992 181.055 137.246C181.055 133.5 176.891 130.008 169.605 126.973C154.672 120.758 126.527 116.555 94.3047 116.555V116.555Z" fill="#E6E6E6"/>
<path fill-rule="evenodd" clip-rule="evenodd" d="M94.2227 186.312C88.5547 186.312 83.3398 188.27 79.1719 191.535C73.418 196.047 69.707 203.027 69.707 210.859V220.938L94.6445 236.742L118.762 221.164V210.859C118.762 203.113 115.105 196.133 109.438 191.648C105.246 188.301 99.9453 186.312 94.2227 186.312Z" fill="#64B0D9"/>
<path fill-rule="evenodd" clip-rule="evenodd" d="M169.605 126.973C154.672 120.758 126.527 116.559 94.3047 116.559C85.9141 116.559 77.8125 116.84 70.1328 117.352C98.668 118.031 123.129 122.035 136.703 127.684C143.984 130.719 148.121 134.211 148.121 137.953C148.121 141.699 143.984 145.219 136.703 148.227C129.984 151.039 120.633 153.422 109.438 155.211C102.156 156.371 94.1367 157.254 85.5469 157.848C88.1562 157.906 90.7891 157.961 93.4531 157.961H94.3047C99.4648 157.961 104.508 157.848 109.438 157.648C135.199 156.57 157.051 152.77 169.605 147.52C176.887 144.512 181.055 140.992 181.055 137.246C181.055 133.5 176.891 130.008 169.605 126.973Z" fill="#C2C7CC"/>
<path fill-rule="evenodd" clip-rule="evenodd" d="M121.824 286.066L96.886 371.859C94.0501 381.594 99.6907 391.867 109.409 394.703C119.132 397.539 129.39 391.895 132.226 382.16L158.921 290.324L144.835 267.816L121.824 286.066Z" fill="#64B0D9"/>
<path fill-rule="evenodd" clip-rule="evenodd" d="M93.457 186.312C97.0547 188.043 102.781 195.34 102.781 210.859V221.164H118.766V210.859C118.766 203.113 115.109 196.133 109.441 191.648C105.246 188.301 99.9453 186.312 94.2227 186.312H93.457Z" fill="#00B6C8"/>
<path fill-rule="evenodd" clip-rule="evenodd" d="M140.641 286.805L114.625 376.258C112.672 382.984 107.145 387.75 100.711 389.113C102.949 391.695 105.926 393.684 109.41 394.703C119.133 397.543 129.391 391.895 132.227 382.16L158.922 290.324C153.449 288.594 147.812 287.457 140.641 286.805V286.805Z" fill="#00B6C8"/>
<path fill-rule="evenodd" clip-rule="evenodd" d="M390.148 286.066L415.086 371.859C417.922 381.594 412.281 391.867 402.562 394.703C392.84 397.539 382.582 391.895 379.746 382.16L353.051 290.324L367.164 267.816L390.148 286.066Z" fill="#00B6C8"/>
<path fill-rule="evenodd" clip-rule="evenodd" d="M371.359 286.805L397.348 376.258C399.301 382.984 404.828 387.75 411.262 389.113C409.051 391.695 406.074 393.684 402.562 394.703C392.84 397.543 382.582 391.895 379.746 382.16L353.051 290.324C358.52 288.594 364.16 287.457 371.359 286.805V286.805Z" fill="#64B0D9"/>
<path fill-rule="evenodd" clip-rule="evenodd" d="M417.609 186.312C411.941 186.312 406.727 188.27 402.559 191.535C396.809 196.047 393.094 203.027 393.094 210.859V220.938L418.031 236.742L442.148 221.164V210.859C442.148 203.113 438.492 196.133 432.824 191.648C428.633 188.301 423.363 186.312 417.609 186.312Z" fill="#64B0D9"/>
<path fill-rule="evenodd" clip-rule="evenodd" d="M416.871 186.312C420.473 188.043 426.168 195.34 426.168 210.859V221.164H442.152V210.859C442.152 203.113 438.496 196.133 432.828 191.648C428.633 188.301 423.363 186.312 417.609 186.312H416.871Z" fill="#00B6C8"/>
<path fill-rule="evenodd" clip-rule="evenodd" d="M158.922 290.324C167.789 293.16 176.238 297.703 190.207 304.684C193.609 306.387 197.152 307.949 200.863 309.395H311.105C314.82 307.949 318.363 306.387 321.762 304.684C335.762 297.703 344.18 293.16 353.051 290.324C358.519 288.594 364.16 287.457 371.359 286.805C378.867 286.125 386.519 286.039 394.059 286.039H443.598C492.398 286.039 492.398 221.164 443.598 221.164H393.234C356.168 221.105 351.492 217.391 321.762 202.52C282.367 182.824 229.629 182.824 190.207 202.52C160.477 217.391 155.832 221.105 118.762 221.164C102.523 221.191 86.2851 221.164 70.0742 221.164C17.9843 221.164 20.3671 286.039 68.375 286.039H117.91C125.449 286.039 133.102 286.125 140.641 286.805C147.812 287.457 153.449 288.594 158.922 290.324V290.324Z" fill="#E6E6E6"/>
<path fill-rule="evenodd" clip-rule="evenodd" d="M200.863 309.395C198.91 311.922 197.746 315.07 197.746 318.504V369.051C197.746 377.223 204.434 383.922 212.598 383.922H299.375C307.562 383.922 314.254 377.223 314.254 369.051V318.504C314.254 314.816 312.895 311.438 310.652 308.828C307.934 305.648 303.883 303.637 299.375 303.637H212.598C207.836 303.633 203.586 305.902 200.863 309.395V309.395Z" fill="#9EA3B0"/>
<path fill-rule="evenodd" clip-rule="evenodd" d="M255.984 326.566C246.492 326.566 238.812 334.258 238.812 343.762C238.812 353.27 246.492 360.988 255.984 360.988C265.48 360.988 273.188 353.27 273.188 343.762C273.188 334.258 265.48 326.566 255.984 326.566Z" fill="#A2D6F2"/>
<path fill-rule="evenodd" clip-rule="evenodd" d="M430.645 252.465C431.215 269.066 419.027 286.039 394.059 286.039H443.598C492.398 286.039 492.398 221.164 443.598 221.164H394.059C407.578 221.164 417.324 226.129 423.363 233.309C427.98 238.816 430.418 245.625 430.645 252.465Z" fill="#C2C7CC"/>
<path d="M512 137.246C512 109.793 427.348 109 417.695 109C408.039 109 323.387 109.793 323.387 137.246C323.387 156.926 366.809 162.918 395.004 164.734V188.113C389.16 193.93 385.535 201.98 385.535 210.859V213.535C359.496 213.055 353.234 209.902 330.941 198.676C329.113 197.754 327.188 196.785 325.141 195.762C283.793 175.086 228.207 175.086 186.832 195.758C184.738 196.801 182.77 197.793 180.906 198.73C158.633 209.93 152.395 213.063 126.32 213.539V210.859C126.32 202.055 122.754 194.07 116.996 188.262V164.73C145.188 162.914 188.609 156.926 188.609 137.242C188.609 109.793 103.957 109 94.3047 109C84.6523 109 0 109.793 0 137.246C0 156.926 43.4219 162.918 71.6133 164.734V188.113C65.7734 193.93 62.1484 201.98 62.1484 210.859V213.945C37.2227 216.609 24.2148 235.203 24.2148 253.602C24.2148 273.477 39.3828 293.594 68.375 293.594H111.766L89.6289 369.746C85.625 383.496 93.5508 397.945 107.293 401.957C109.687 402.656 112.129 403 114.555 403C118.867 403 123.145 401.91 127.043 399.766C133.129 396.418 137.543 390.914 139.48 384.27L163.895 300.285C168.746 302.359 174.07 305.035 180.91 308.473C182.773 309.41 184.738 310.398 186.824 311.441C188.113 312.086 189.445 312.715 190.797 313.332C190.402 314.992 190.191 316.727 190.191 318.504V369.051C190.191 381.414 200.242 391.477 212.598 391.477H239.719C243.895 391.477 247.277 388.094 247.277 383.922C247.277 379.746 243.895 376.363 239.719 376.363H212.598C208.574 376.363 205.305 373.082 205.305 369.051V318.508C205.305 314.473 208.574 311.191 212.598 311.191H299.375C301.629 311.191 303.645 312.215 304.988 313.82C305.094 313.965 305.199 314.105 305.312 314.242C306.18 315.445 306.695 316.914 306.695 318.508V369.051C306.695 373.082 303.414 376.363 299.375 376.363H273.188C269.016 376.363 265.633 379.746 265.633 383.922C265.633 388.094 269.016 391.477 273.188 391.477H299.375C311.746 391.477 321.809 381.414 321.809 369.051V318.504C321.809 316.742 321.598 315.027 321.211 313.379C322.66 312.695 324.027 312.012 325.141 311.445C327.23 310.398 329.199 309.41 331.062 308.473C337.898 305.035 343.223 302.359 348.074 300.285L372.488 384.273C374.426 390.918 378.84 396.418 384.93 399.766C388.828 401.91 393.102 403 397.414 403C399.844 403 402.285 402.656 404.676 401.957C418.422 397.945 426.344 383.496 422.344 369.75L400.203 293.594H443.598C472.586 293.594 487.754 273.477 487.754 253.602C487.754 235.176 474.711 216.555 449.707 213.934V210.859C449.707 202.055 446.145 194.07 440.383 188.262V164.734C468.578 162.918 512 156.926 512 137.246ZM339.199 137.246C341.445 135.422 347.883 132.035 362.141 129.062C377.441 125.871 397.172 124.113 417.695 124.113C438.207 124.113 457.934 125.871 473.238 129.062C487.496 132.035 493.941 135.422 496.188 137.246C493.941 139.074 487.5 142.465 473.242 145.445C457.93 148.645 438.203 150.406 417.695 150.406C397.176 150.406 377.445 148.645 362.137 145.445C347.879 142.465 341.441 139.074 339.199 137.246ZM427.93 197.395C428.109 197.551 428.301 197.695 428.496 197.836C432.219 200.953 434.594 205.633 434.594 210.859V213.609H400.652V210.859C400.652 205.621 403.031 200.934 406.762 197.816C407.008 197.648 407.242 197.469 407.469 197.277C410.301 195.148 413.805 193.867 417.609 193.867C421.492 193.867 425.062 195.191 427.93 197.395V197.395ZM77.2656 210.859C77.2656 205.625 79.6445 200.938 83.3711 197.816C83.6211 197.648 83.8555 197.469 84.082 197.273C86.9141 195.145 90.418 193.867 94.2227 193.867C98.1055 193.867 101.68 195.195 104.547 197.398C104.727 197.551 104.91 197.695 105.102 197.828C108.828 200.949 111.207 205.633 111.207 210.859V213.609H77.2656V210.859ZM15.8086 137.246C18.0547 135.422 24.4922 132.035 38.75 129.062C54.0547 125.871 73.7812 124.113 94.3047 124.113C114.82 124.113 134.547 125.871 149.852 129.062C164.105 132.035 170.551 135.422 172.801 137.246C170.551 139.074 164.109 142.465 149.852 145.445C134.543 148.645 114.816 150.406 94.3047 150.406C73.7852 150.406 54.0547 148.645 38.7461 145.445C24.4922 142.465 18.0547 139.074 15.8086 137.246ZM86.7305 165.41C90.3477 165.504 93.0078 165.516 94.3047 165.516C95.6016 165.516 98.2656 165.504 101.883 165.41V179.688C99.4258 179.086 96.8594 178.758 94.2188 178.758C91.6406 178.758 89.1328 179.074 86.7305 179.652V165.41ZM124.969 380.047C124.16 382.82 122.309 385.121 119.758 386.527C117.211 387.93 114.289 388.258 111.527 387.449C105.777 385.773 102.465 379.727 104.141 373.969L127.477 293.688C136.813 293.895 143.574 294.465 149.496 295.668L124.969 380.047ZM400.441 387.449C397.684 388.258 394.762 387.926 392.215 386.527C389.66 385.121 387.813 382.824 387.004 380.051L362.473 295.668C368.395 294.461 375.156 293.891 384.492 293.688L407.828 373.969C409.508 379.727 406.191 385.773 400.441 387.449V387.449ZM472.641 253.602C472.641 265.984 463.66 278.484 443.598 278.484H394.059C373.184 278.484 361.668 279.703 351.07 283.039C351.027 283.051 350.984 283.059 350.941 283.07C350.754 283.125 350.574 283.191 350.391 283.258C342.461 285.832 334.945 289.605 324.273 294.973C322.422 295.902 320.465 296.887 318.32 297.961C317.699 298.277 315.109 299.488 312.785 300.535C309.043 297.738 304.398 296.078 299.375 296.078H212.598C207.578 296.078 202.941 297.738 199.203 300.535C197.266 299.695 195.383 298.824 193.586 297.926C191.508 296.887 189.555 295.906 187.703 294.973C177.023 289.605 169.504 285.828 161.57 283.254C161.391 283.188 161.215 283.121 161.031 283.07C160.988 283.059 160.945 283.051 160.906 283.039C150.309 279.703 138.789 278.484 117.914 278.484H68.375C48.3125 278.484 39.332 265.984 39.332 253.602C39.332 241.219 48.3125 228.719 68.375 228.719H117.914C118.184 228.719 118.441 228.719 118.711 228.715C118.727 228.715 118.742 228.719 118.762 228.719C118.781 228.719 118.801 228.715 118.824 228.715C155.02 228.652 162.719 224.789 187.695 212.23C189.551 211.301 191.508 210.316 193.586 209.277C230.922 190.625 281.074 190.621 318.383 209.273C320.414 210.293 322.328 211.258 324.145 212.172C349.383 224.883 357.004 228.719 394.059 228.719H443.598C463.66 228.719 472.641 241.215 472.641 253.602V253.602ZM425.27 179.688C422.813 179.086 420.25 178.758 417.609 178.758C415.031 178.758 412.523 179.074 410.117 179.652V165.41C413.738 165.504 416.398 165.516 417.695 165.516C418.992 165.516 421.652 165.504 425.27 165.41V179.688Z" fill="#546A7B"/>
<path d="M393.746 244.91C389.574 244.91 386.191 248.293 386.191 252.465C386.191 256.637 389.574 260.02 393.746 260.02H438.582C442.754 260.02 446.137 256.637 446.137 252.465C446.137 248.293 442.754 244.91 438.582 244.91H393.746Z" fill="#546A7B"/>
<path d="M118.227 244.91H73.3906C69.2148 244.91 65.832 248.293 65.832 252.465C65.832 256.637 69.2148 260.02 73.3906 260.02H118.223C122.398 260.02 125.781 256.637 125.781 252.465C125.781 248.293 122.398 244.91 118.227 244.91Z" fill="#546A7B"/>
<path d="M222.035 230.805C217.859 230.805 214.477 234.188 214.477 238.359V261.605C214.477 265.777 217.859 269.16 222.035 269.16C226.207 269.16 229.59 265.777 229.59 261.605V238.359C229.59 234.188 226.207 230.805 222.035 230.805Z" fill="#546A7B"/>
<path d="M255.984 223.371C251.812 223.371 248.43 226.754 248.43 230.926V269.039C248.43 273.211 251.812 276.594 255.984 276.594C260.16 276.594 263.543 273.211 263.543 269.039V230.926C263.543 226.754 260.16 223.371 255.984 223.371V223.371Z" fill="#546A7B"/>
<path d="M280.746 343.762C280.746 330.113 269.637 319.012 255.984 319.012C242.348 319.012 231.254 330.113 231.254 343.762C231.254 357.43 242.348 368.543 255.984 368.543C269.637 368.543 280.746 357.43 280.746 343.762V343.762ZM255.984 353.434C250.684 353.434 246.367 349.094 246.367 343.762C246.367 338.445 250.684 334.121 255.984 334.121C261.305 334.121 265.633 338.445 265.633 343.762C265.633 349.094 261.305 353.434 255.984 353.434V353.434Z" fill="#546A7B"/>
<path d="M289.965 230.805C285.793 230.805 282.41 234.188 282.41 238.359V261.605C282.41 265.777 285.793 269.16 289.965 269.16C294.141 269.16 297.523 265.777 297.523 261.605V238.359C297.523 234.188 294.141 230.805 289.965 230.805Z" fill="#546A7B"/>
</svg>
