<?xml version="1.0" standalone="no"?>
<!DOCTYPE svg PUBLIC "-//W3C//DTD SVG 20010904//EN"
 "http://www.w3.org/TR/2001/REC-SVG-20010904/DTD/svg10.dtd">
<svg version="1.0" xmlns="http://www.w3.org/2000/svg"
 width="193.000000pt" height="193.000000pt" viewBox="0 0 193.000000 193.000000"
 preserveAspectRatio="xMidYMid meet">
<metadata>
Created by potrace 1.11, written by Peter Selinger 2001-2013
</metadata>
<g transform="translate(0.000000,193.000000) scale(0.100000,-0.100000)"
fill="#000000" stroke="none">
<path d="M425 1710 c-12 -37 -6 -126 14 -237 8 -42 7 -52 -13 -78 -37 -48 -84
-156 -102 -232 l-17 -71 -86 -17 c-47 -9 -93 -18 -101 -20 -87 -18 -110 -28
-117 -53 -11 -45 14 -73 137 -152 8 -6 57 -37 109 -71 52 -33 100 -63 108 -66
7 -3 33 -35 57 -72 50 -75 113 -142 169 -179 20 -13 37 -25 37 -26 0 -1 -26
-2 -57 -4 -78 -3 -88 -8 -106 -44 -17 -34 -8 -76 20 -100 19 -16 209 -20 238
-5 28 14 44 38 45 64 0 21 1 21 57 6 73 -19 201 -22 281 -8 55 11 62 10 62 -4
1 -9 10 -27 21 -41 20 -23 26 -24 136 -25 109 0 116 1 134 24 26 32 25 85 -3
111 -21 19 -33 22 -85 23 -28 0 -30 13 -4 22 33 10 154 139 191 202 27 46 49
69 95 99 176 112 257 168 270 187 22 31 18 64 -7 81 -20 12 -210 58 -246 59
-7 0 -15 12 -18 26 -25 124 -92 268 -156 338 -18 19 -20 30 -14 75 17 125 17
175 1 192 -20 19 -41 10 -132 -58 l-60 -46 -59 24 c-163 66 -375 59 -537 -18
l-48 -24 -27 25 c-36 33 -147 106 -166 109 -8 1 -18 -6 -21 -16z"/>
</g>
</svg>
