<svg width="23" height="23" viewBox="0 0 23 23" fill="none" xmlns="http://www.w3.org/2000/svg">
<path d="M22.7822 21.7491L16.8439 15.9057C18.3989 14.2162 19.3544 11.9817 19.3544 9.52298C19.3537 4.26325 15.0214 0 9.67684 0C4.33229 0 0 4.26325 0 9.52298C0 14.7827 4.33229 19.046 9.67684 19.046C11.9861 19.046 14.104 18.2472 15.7677 16.9194L21.729 22.7858C22.0195 23.072 22.4911 23.072 22.7816 22.7858C23.0727 22.4997 23.0727 22.0353 22.7822 21.7491ZM9.67684 17.5808C5.15476 17.5808 1.48892 13.9732 1.48892 9.52298C1.48892 5.07276 5.15476 1.46517 9.67684 1.46517C14.199 1.46517 17.8648 5.07276 17.8648 9.52298C17.8648 13.9732 14.199 17.5808 9.67684 17.5808Z" fill="#3B3B3D"/>
</svg>
